<?xml version="1.0" encoding="utf-8"?>
<!-- Generator: Adobe Illustrator 23.0.1, SVG Export Plug-In . SVG Version: 6.00 Build 0)  -->
<svg version="1.1" id="Layer_1" xmlns="http://www.w3.org/2000/svg" xmlns:xlink="http://www.w3.org/1999/xlink" x="0px" y="0px"
	 viewBox="0 0 350 300" style="enable-background:new 0 0 350 300;" xml:space="preserve">
<style type="text/css">
	.st0{fill:#FFFFFF;}
	.st1{fill:#C2B59B;}
	.st2{fill:#B9412E;}
	.st3{fill:#7B2E1F;}
</style>
<g>
	<path class="st0" d="M215.7,48.1c-1.4,0-2.5,1.3-2.5,3L213,76.4c1.8,0.1,3.6,0.1,5.4,0l-0.2-25.3C218.2,49.5,217,48.1,215.7,48.1z"
		/>
	<path class="st0" d="M212.7,230.7c0.3,0.3,0.9,0.7,1.6,0.7h2.7c0.8,0,1.3-0.4,1.6-0.7c0.6-0.6,0.9-1.4,0.9-2.3l-0.2-27
		c-1.2,0-2.3,0.2-3.5,0.2c-1.3,0-2.5-0.1-3.8-0.2l-0.2,27C211.8,229.3,212.1,230.2,212.7,230.7z"/>
	<path class="st1" d="M219.3,201.4l0.2,27c0,0.9-0.3,1.7-0.9,2.3c-0.3,0.3-0.9,0.7-1.6,0.7h-2.7c-0.8,0-1.3-0.4-1.6-0.7
		c-0.6-0.6-0.9-1.4-0.9-2.3l0.2-27c-2.2-0.1-4.4-0.1-6.6-0.4l-0.2,27.3c0,2.6,1,5.2,2.8,7c1.7,1.7,3.9,2.7,6.3,2.7h2.7
		c2.3,0,4.6-0.9,6.3-2.7c1.8-1.8,2.8-4.4,2.8-7l-0.2-27.3C223.7,201.3,221.5,201.4,219.3,201.4z"/>
	<path class="st1" d="M212.9,76.4l0.2-25.3c0-1.6,1.1-3,2.5-3s2.5,1.3,2.5,3l0.2,25.3c2.2-0.1,4.4-0.1,6.6-0.3l-0.2-25
		c0-5.2-4.1-9.5-9.1-9.5s-9,4.3-9.1,9.5l-0.2,25C208.6,76.3,210.8,76.3,212.9,76.4z"/>
	<path class="st0" d="M123.5,71.4c-0.1,0-0.2,0-0.3,0c-1.4,0.2-2.3,1.7-2.1,3.2l1.1,7.8l5.1-0.7l-1.2-7.7
		C125.9,72.4,124.8,71.4,123.5,71.4z"/>
	<path class="st0" d="M146.6,251.4c0.4,0.3,1,0.6,1.7,0.5l0,0l2.7-0.4c0.7-0.1,1.2-0.6,1.5-0.9c0.5-0.7,0.7-1.5,0.6-2.4l-4.1-26.3
		l-7.2,1.1l3.7,26.4C145.5,250.1,146,250.9,146.6,251.4z"/>
	<path class="st1" d="M149,221.8l4.1,26.3c0.1,0.9-0.1,1.7-0.6,2.4c-0.3,0.4-0.8,0.8-1.5,0.9l-2.7,0.4l0,0c-0.7,0.1-1.3-0.2-1.7-0.5
		c-0.6-0.5-1.1-1.3-1.2-2.1l-3.7-26.4l-6.5,1l3.7,26.4c0.4,2.6,1.7,4.9,3.8,6.5c1.6,1.2,3.4,1.8,5.3,1.8c0.4,0,0.8,0,1.3-0.1
		l2.7-0.4c2.3-0.3,4.4-1.6,5.8-3.5c1.5-2.1,2.1-4.7,1.7-7.3l-4.1-26.3L149,221.8z"/>
	<path class="st1" d="M120.8,82.6l1.4-0.2l-1.1-7.8c-0.2-1.6,0.7-3,2.1-3.2c0.1,0,0.2,0,0.3,0c1.3,0,2.4,1.1,2.6,2.5l1.2,7.7
		l3.7-0.5c1-0.1,1.9-0.1,2.9-0.1l-1.3-8.1c-0.8-5.2-5.5-8.8-10.4-8c-4.9,0.7-8.3,5.5-7.6,10.6l1.2,8.4
		C117.4,83.3,119.1,82.8,120.8,82.6z"/>
	<path class="st0" d="M182.3,181.6c0,4.9,3.5,9.2,8.3,10.2l6.2,1.3c12.7,2.6,25.5,2.6,38.2-0.1l5.6-1.2l0,0c4.8-1,8.3-5.3,8.3-10.2
		c0-3.2-1.4-6.1-3.8-8.1c-2.5-2-5.7-2.8-8.7-2.1c-13.6,2.9-27.3,2.9-40.9,0.1c-1-0.2-1.9-0.3-2.8-0.3c-2.6,0-4.8,0.8-6.6,2.3
		C183.7,175.5,182.3,178.4,182.3,181.6z"/>
	<path class="st0" d="M182.3,151.4c0,4.9,3.5,9.2,8.3,10.2l6.2,1.3c12.7,2.6,25.5,2.6,38.2-0.1l5.6-1.2l0,0c4.8-1,8.3-5.3,8.3-10.2
		c0-3.2-1.4-6.1-3.8-8.1c-2.5-2-5.7-2.8-8.7-2.1c-13.6,2.8-27.3,2.9-40.9,0.1c-1-0.2-1.9-0.3-2.8-0.3c-2.6,0-4.8,0.8-6.6,2.3
		C183.7,145.3,182.3,148.3,182.3,151.4z"/>
	<path class="st0" d="M182.3,121.3c0,4.9,3.5,9.2,8.3,10.2l6.2,1.3c12.7,2.6,25.5,2.6,38.2-0.1l5.6-1.2l0,0c4.8-1,8.3-5.3,8.3-10.2
		c0-3.2-1.4-6.1-3.9-8.1s-5.7-2.7-8.7-2.1c-13.5,2.9-27.3,2.9-40.9,0.1c-1-0.2-1.9-0.3-2.8-0.3c-2.6,0-4.8,0.8-6.6,2.3
		C183.7,115.2,182.3,118.1,182.3,121.3z"/>
	<path class="st0" d="M196.9,102.6c12.7,2.6,25.5,2.6,38.2-0.1l5.6-1.2l0,0c4.8-1,8.3-5.3,8.3-10.2c0-3.2-1.4-6.1-3.9-8.1
		s-5.6-2.7-8.7-2.1c-13.5,2.9-27.3,2.9-40.9,0.1c-1-0.2-1.9-0.3-2.8-0.3c-2.6,0-4.8,0.8-6.6,2.3c-2.4,2-3.8,4.9-3.8,8.1
		c0,4.9,3.5,9.2,8.3,10.2L196.9,102.6z"/>
	<path class="st2" d="M255.4,151.5c0-5.1-2.3-9.9-6.3-13.2c-1-0.8-2-1.4-3.1-2c0,0,0,0,0.1,0c5.7-2.8,9.5-8.5,9.5-15
		c0-5.1-2.3-9.9-6.3-13.2c-1-0.8-2-1.4-3.1-2h-0.1c5.6-2.9,9.4-8.5,9.4-15c0-5.1-2.3-9.9-6.3-13.2c-4-3.2-9.1-4.5-14.2-3.4
		c-3.4,0.7-6.7,1.2-10.1,1.5c-2.2,0.2-4.4,0.3-6.6,0.3c-1.8,0-3.6,0-5.4,0c-2.2-0.1-4.4-0.1-6.6-0.4c-3.4-0.3-6.8-0.9-10.2-1.6
		c-5-1-10.2,0.2-14.2,3.5c-4,3.2-6.3,8.1-6.3,13.2c0,6.5,3.8,12.1,9.3,15c0.1,0,0.2,0.1,0.2,0.1c-1.1,0.5-2.1,1.2-3,2
		c-4,3.2-6.3,8.1-6.3,13.2c0,6.5,3.8,12.1,9.3,15c-1.1,0.5-2.1,1.2-3.1,2c-4,3.2-6.3,8.1-6.3,13.2c0,6.5,3.8,12.1,9.3,15
		c-1,0.5-2,1.2-3,1.9c-4,3.2-6.3,8.1-6.3,13.2c0,8,5.7,15,13.5,16.7l6.2,1.3c3.3,0.7,6.6,1.2,9.9,1.5c2.2,0.2,4.4,0.3,6.6,0.4
		c1.3,0,2.5,0.2,3.8,0.2c1.2,0,2.3-0.1,3.5-0.2c2.2-0.1,4.4-0.1,6.6-0.3c3.5-0.4,7-0.9,10.5-1.6l5.6-1.2c7.8-1.6,13.5-8.6,13.5-16.6
		c0-5.1-2.3-9.9-6.3-13.2c-1-0.8-2-1.4-3.1-2v-0.1C251.6,163.6,255.4,158,255.4,151.5z M182.3,91.1c0-3.2,1.4-6.1,3.8-8.1
		c1.8-1.5,4-2.3,6.6-2.3c0.9,0,1.8,0.1,2.8,0.3c13.6,2.8,27.4,2.8,40.9-0.1c3.1-0.6,6.3,0.1,8.7,2.1c2.5,2,3.9,4.9,3.9,8.1
		c0,4.9-3.5,9.2-8.3,10.2l-5.6,1.2c-12.7,2.7-25.5,2.7-38.2,0.1l-6.2-1.3C185.8,100.4,182.3,96.1,182.3,91.1z M182.4,121.3
		c0-3.2,1.4-6.1,3.8-8.1c1.8-1.5,4-2.3,6.6-2.3c0.8,0,1.8,0.1,2.7,0.3c13.6,2.8,27.4,2.8,40.9-0.1c3-0.6,6.2,0.1,8.7,2.1
		s3.9,4.9,3.9,8.1c0,4.9-3.5,9.2-8.3,10.2l-5.6,1.2c-12.7,2.7-25.5,2.7-38.2,0.1l-6.2-1.3C185.9,130.5,182.4,126.2,182.4,121.3z
		 M248.9,181.6c0,4.9-3.5,9.2-8.3,10.2L235,193c-12.7,2.7-25.5,2.7-38.2,0.1l-6.2-1.3c-4.8-1-8.3-5.3-8.3-10.2
		c0-3.2,1.4-6.1,3.8-8.1c1.8-1.5,4-2.3,6.6-2.3c0.9,0,1.9,0.1,2.8,0.3c13.6,2.8,27.3,2.8,40.9-0.1c3.1-0.7,6.3,0.1,8.7,2.1
		C247.6,175.5,248.9,178.4,248.9,181.6z M240.6,161.7l-5.6,1.2c-12.7,2.7-25.5,2.7-38.2,0.1l-6.2-1.3c-4.8-1-8.3-5.3-8.3-10.2
		c0-3.2,1.4-6.1,3.8-8.1c1.8-1.5,4-2.3,6.6-2.3c0.9,0,1.9,0.1,2.8,0.3c13.6,2.8,27.3,2.8,40.9-0.1c3.1-0.7,6.3,0.1,8.7,2.1
		c2.5,2,3.8,4.9,3.8,8.1C248.9,156.4,245.4,160.7,240.6,161.7z"/>
	<path class="st0" d="M118.6,141.7L118.6,141.7c-1.8,0-3.3-1.4-3.3-3.2s1.4-3.3,3.2-3.3l42.5-0.9l-2.3-21.7
		c-0.7-6.2-3.6-12-8.2-16.2l-5.1-4.6c-3.1-2.8-7-4.3-11.1-4.3c-0.8,0-1.6,0.1-2.4,0.2l-10.2,1.5c-4.7,0.7-8.9,3.4-11.5,7.5l-5.3,8.4
		c-3.5,5.4-4.7,11.9-3.6,18.3l11,60.4c1,5.6,2.4,11,4.3,16.3l4.1,12c1.4,4.1,5.6,6.5,9.7,5.9l27.2-4c4.2-0.6,7.4-4.2,7.6-8.4
		l0.2-5.2l-25.5-1.8c-1.8-0.1-3.2-1.7-3-3.5c0.1-1.8,1.4-3.3,3.5-3l25.3,1.8V193c0.3-5.7,0.1-11.4-0.5-17l-3.7-35L118.6,141.7z
		 M150.2,156.2c-0.1,1.7-1.6,3.1-3.3,3.1c-0.1,0-0.1,0-0.2,0l-33.8-2.1c-1.8-0.1-3.2-1.7-3.1-3.5s1.4-3.1,3.5-3.1l33.8,2.1
		C148.9,152.8,150.3,154.4,150.2,156.2z"/>
	<path class="st3" d="M113.3,150.6c-2.1,0-3.4,1.3-3.5,3.1s1.3,3.4,3.1,3.5l33.8,2.1c0.1,0,0.1,0,0.2,0c1.7,0,3.2-1.3,3.3-3.1
		s-1.3-3.4-3.1-3.5L113.3,150.6z"/>
	<path class="st3" d="M171.9,174.8l-3.7-37.9l-2.7-25.2c-0.8-7.8-4.5-15.1-10.3-20.4l-5.1-4.6c-4.4-4-10.1-6-16-5.9
		c-1,0-1.9,0-2.9,0.1l-3.7,0.5l-5.1,0.7l-1.4,0.2c-1.7,0.3-3.4,0.7-5,1.4c-4.5,1.8-8.4,4.9-11.1,9.1l-5.3,8.4
		c-4.3,6.8-5.9,15-4.5,23l11,60.4c1.1,5.9,2.6,11.7,4.5,17.3l4.1,12c2.2,6.3,8.1,10.5,14.6,10.5c0.7,0,1.5-0.1,2.2-0.2l3.8-0.6
		l6.5-1l7.2-1.1l6.5-1l3.2-0.5c7.3-1.1,12.9-7.2,13.2-14.6l0.6-12.7C172.8,186.7,172.6,180.7,171.9,174.8z M167.1,200.3
		C167.1,200.3,167,200.3,167.1,200.3C167.1,200.3,167.1,200.3,167.1,200.3C167.2,200.3,167.1,200.3,167.1,200.3z M167.3,193.8
		l-1.4-0.1l-25.3-1.8c-2.1-0.3-3.4,1.2-3.5,3c-0.1,1.8,1.2,3.4,3,3.5l25.5,1.8l0.1,0l-0.2,5.2c-0.2,4.3-3.4,7.8-7.6,8.4l-27.2,4
		c-4.2,0.6-8.3-1.9-9.7-5.9l-4.1-12c-1.8-5.3-3.2-10.8-4.3-16.3l-11-60.4c-1.2-6.4,0.1-12.9,3.6-18.3l5.3-8.4
		c2.6-4,6.8-6.8,11.5-7.5l10.2-1.5c0.8-0.1,1.6-0.2,2.4-0.2c4.1,0,8,1.5,11.1,4.3l5.1,4.6c4.6,4.2,7.5,10,8.2,16.2l2.3,21.7
		l-0.3,0.1l-42.5,0.9c-1.8,0-3.3,1.5-3.2,3.3c0,1.8,1.5,3.2,3.3,3.2h0.1l43.1-0.9l0,0.1l0,0l3.7,35c0.6,5.6,0.8,11.3,0.5,17v0.9
		L167.3,193.8c0.2,0,0.2,0,0.3,0C167.5,193.8,167.4,193.8,167.3,193.8z"/>
</g>
</svg>
