<?xml version="1.0" encoding="utf-8"?>
<!-- Generator: Adobe Illustrator 23.0.1, SVG Export Plug-In . SVG Version: 6.00 Build 0)  -->
<svg version="1.1" id="Layer_1" xmlns="http://www.w3.org/2000/svg" xmlns:xlink="http://www.w3.org/1999/xlink" x="0px" y="0px"
	 viewBox="0 0 350 300" style="enable-background:new 0 0 350 300;" xml:space="preserve">
<style type="text/css">
	.st0{fill:#BE1E2D;}
	.st1{fill:#FDB714;}
</style>
<g>
	<path class="st0" d="M203.6,234.2L185.7,214c-0.1-0.1-0.2-0.2-0.3-0.3c0,0,0-0.1,0-0.1c0.5-1.8,0.6-3.6-0.1-5.5l-1.1-3.2
		c-0.8-2.3-2.5-4.2-4.8-5.2c-2.2-1-4.7-1.2-7.1-0.3l-3.4,1.2l1.7-0.9c4.4-2.5,6-8.1,3.5-12.6l-1.6-2.9c-2.5-4.4-8.1-6-12.6-3.5
		l-0.7,0.4l-0.6,0.3l0.6-0.4c1.8-1.4,3.1-3.4,3.5-5.7c0.4-2.4-0.2-4.9-1.6-6.9l-2-2.7c-1.9-2.6-4.8-3.8-7.9-3.7l0.9-0.6
		c2.7-1.9,3.7-5.6,2.3-8.6l-1.3-2.8c-1.2-2.5-2.7-4.7-4.1-7.1c0,0,0-0.1-0.1-0.1c1.5-1.3,2.8-2.8,3.6-4.7l7.3-16.1
		c0.5-1.1,0.6-2.2,0.8-3.3c0-0.1,0.1-0.2,0.2-0.4c0,0.2,0,0.3-0.1,0.5c6-3.4,10.5-9,12.8-16.2c2.6-8.1,2-17.2-1.5-25.6
		c-7.4-17.5-25.7-26.5-40.9-20.1c-0.7,0.3-1.2,0.8-1.5,1.5c-0.3,0.7-0.3,1.5,0,2.2l6.8,16l-9.5-12.8c-0.9-1.2-2.6-1.5-3.8-0.6
		c-5.4,3.7-8.8,9.6-9.5,16.5c-0.6,6.2,1,12.3,4.1,17.7c-0.2,0.2-0.5,0.3-0.6,0.5c-0.3,0.7-0.3,1.5,0,2.2c3,7.2,7.9,12.9,14.1,16.9
		l-0.1,0.2l-1.4,3c-0.7-0.3-1.5-0.4-2.2-0.4c-0.1,0-0.3,0-0.4,0c0,0,0.1,0,0.1,0L97.3,95.6c-2.9-2.3-7-2.4-9.9-0.3l-4.5,3.2
		c-3,2.2-4.2,6.1-2.9,9.5l13.1,36c0,0.1-0.1,0.2-0.1,0.3c-0.5,1.6-0.4,3.3,0.3,4.9v0.1l0,0.1l-4,0.4c-1.8-7.1-5.7-13.7-11.6-18.8
		c-0.6-0.5-1.5-0.8-2.1-0.7c-0.3,0-0.4,0.2-0.6,0.4c0-0.1,0-0.1,0-0.2c-4.1-4.7-9.5-8.2-15.5-9.6c-6.9-1.5-13.5-0.2-18.7,3.7
		c-1.2,0.9-1.5,2.6-0.6,3.9l9.1,13.1l9.1,8.3l1.8-2.2l-13.8-19.9c3.5-1.8,7.6-2.2,11.8-1.3c5,1.1,9.4,4.1,12.8,8l0.1,0l-0.2,0.2
		l-10.8,13.2l-1.8,2.2l-9.2-8.2l-13-11.5c-1.2-1-2.9-0.9-4,0.2c-5.3,6-7.6,14.1-6.4,22.7c1.2,8.4,5.6,16.4,12.4,22.5
		c7.2,6.4,16,9.6,24.4,9.6c7,0,13.6-2.4,18.8-6.9l0.1-0.3c0.7,0.1,1.3,0.4,2,0.4c0.5,0,0.9,0,1.4-0.1l17.6-1.8
		c2.7-0.3,5.1-1.5,7.1-3.1c1,1.1,1.7,2.3,2.8,3.3l3.3,3.2c1.4,1.3,3.1,2,4.9,2c1.2,0,2.3-0.4,3.4-1c0.7-1.5,1.6-3,3-4l15.9-11.1
		L127,177.5c-1.4,1-2.3,2.4-3,4c-0.3,0.7-0.6,1.3-0.8,2c-0.4,2.4,0.2,4.9,1.6,6.9l2,2.7c1.4,2,3.6,3.3,6,3.7c0.5,0.1,1,0.1,1.5,0.1
		c0.4,0,0.7-0.1,1.1-0.2c0.1-0.1,0.1-0.3,0.2-0.4c-0.1,0.2-0.2,0.3-0.2,0.5c-1.1,2.6-1.2,5.5,0.3,8.1l1.6,2.9
		c1.6,2.8,4.5,4.3,7.5,4.5c0,0,0-0.1,0.1-0.1c-1.1,2.2-1.2,4.6-0.4,7.1l1.2,3.2c0.7,1.9,1.9,3.3,3.4,4.4c0.3,0.2,0.5,0.5,0.8,0.6
		c-0.3-0.2-0.6-0.3-0.9-0.5c0,0.1-0.1,0.2-0.1,0.3l-0.5,27.5c0.3,1.9,1.3,3.5,3,4.4c1,0.6,2.1,0.9,3.2,0.9c0.7,0,1.4-0.1,2.1-0.4
		l11.7-4.3c0,0,0,0,0.1,0.1c1.4,1.2,3.2,2,5,2c0.8,0,1.6-0.1,2.4-0.4l8.7-3.2c1.8-0.7,3.3-2,4.2-3.9c0.3-0.7,0.4-1.4,0.5-2.1
		l0.3-0.1l11.2-4.1c1.7-0.6,3.1-2,3.7-3.8C205.1,238.1,204.9,236.2,203.6,234.2z M154.7,119.8l-7.3,16.1c-0.3,0.8-0.9,1.3-1.4,1.9
		c-3.2-4.7-6.8-9.1-10.9-13.2l-0.7-0.7l-0.1-0.1l5-11c0.9-2.1,2.6-3.6,4.7-4.4c1-0.4,2-0.5,3-0.5c1.2,0,2.4,0.3,3.5,0.7
		C154.8,110.5,156.7,115.6,154.7,119.8z M122.6,95c-2.6-4.4-4.1-9.6-3.5-14.6c0.5-4.3,2.2-8.1,5-10.8l14.5,19.4l-15.9,6L122.6,95z
		 M123.5,100.7l22.4-8.5c0.7-0.3,1.3-0.8,1.6-1.5c0.3-0.7,0.3-1.5,0-2.2L136,61.2c11.7-3.1,25.1,4.5,30.8,18
		c3,7.2,3.5,14.9,1.3,21.7c-1.5,4.7-4.2,8.6-7.7,11.4c0,0,0,0.1,0,0.1c-0.1-0.1-0.1-0.1-0.1-0.2c-1.1-3.8-3.7-7.1-7.5-8.8
		c-3.4-1.5-7.3-1.7-10.8-0.3c-3.5,1.3-6.3,3.9-7.9,7.4l-0.7,1.5C129.4,109.3,125.9,105.4,123.5,100.7z M85.1,106.2
		c-0.4-1.1,0-2.3,0.9-3l4.5-3.2c0.5-0.3,1-0.5,1.5-0.5c0.6,0,1.2,0.2,1.6,0.6l27.7,22.2l1.6-1.2c0.7-0.5,1.5-0.8,2.3-1
		c-0.7,0.2-1.4,0.6-2,1l-1.6,1.2l-24.3,17.2L85.1,106.2z M75.4,175.9c-3.6,2.4-8,3.7-12.8,3.7c-0.2,0-0.3,0-0.5,0
		c-7.2-0.1-14.3-3-20.2-8.2c-5.8-5.2-9.6-11.9-10.6-19c-0.8-5.9,0.3-11.5,3.3-15.9l22.2,19.6c0.6,0.5,1.3,0.8,2.1,0.7
		c0.8-0.1,1.5-0.4,2-1l15.2-18.5c3.7,3.8,6.2,8.3,7.6,13.1l-1.7,0.1c-7.7,0.8-13.4,7.7-12.6,15.4C69.8,170.1,72.2,173.6,75.4,175.9
		c0.1,0,0.2,0,0.4,0.1C75.6,176.1,75.5,176,75.4,175.9z M105.9,169.5c-1.2,0.9-2.5,1.5-4.1,1.7L84.2,173c-4.8,0.5-8.8-2.9-9.3-7.6
		c-0.5-4.6,2.9-8.8,7.6-9.3l13.7-1.4c2.7,5.3,6,10.1,9.6,14.6c1.2,1.4,2.3,2.8,3.6,4.2c0,0,0,0,0,0
		C108.1,172.4,107.1,171,105.9,169.5z M121.4,176.5c-0.6,0.4-1.2,0.3-1.7-0.1l-3.3-3.3c-7-6.9-12.7-14.9-16.8-23.9l-1.1-2.3
		c-0.3-0.6-0.1-1.3,0.4-1.7l27.5-19.7c0.2-0.2,0.5-0.3,0.8-0.3s0.7,0.1,0.9,0.4l3,2.9c7.1,6.8,12.7,14.8,16.9,23.7l1.3,2.8
		c0.3,0.6,0.1,1.3-0.4,1.6L121.4,176.5z M136.4,190.5c-0.8,0.6-1.7,0.8-2.7,0.6c-0.9-0.2-1.8-0.7-2.3-1.5l-2-2.5
		c-0.6-0.8-0.8-1.7-0.6-2.7c0.2-0.9,0.7-1.8,1.5-2.3l19.3-13.9c0.6-0.5,1.4-0.7,2.1-0.7c1.1,0,2.2,0.5,2.9,1.5l2,2.7
		c0.6,0.8,0.8,1.7,0.6,2.7s-0.7,1.8-1.5,2.3L136.4,190.5z M147.1,206.4c-1.7,1-3.9,0.4-4.9-1.4l-1.6-2.9c-1-1.7-0.4-3.9,1.4-4.9
		l20.7-11.6c0.6-0.3,1.2-0.5,1.8-0.5c1.3,0,2.5,0.7,3.1,1.8l1.6,2.9c1,1.7,0.4,3.9-1.4,4.9L147.1,206.4z M150.9,220.8l-1.1-3.1
		c-0.7-1.9,0.3-3.9,2.1-4.6l22.3-8.1c0.4-0.1,0.8-0.2,1.2-0.2c0.5,0,1,0.1,1.5,0.3c0.9,0.4,1.5,1.1,1.9,2l1.1,3.1
		c0.7,1.9-0.3,3.9-2.1,4.6l-22.3,8.1C153.6,223.5,151.6,222.6,150.9,220.8z M154.7,254.4H154l0.5-25.1l5.4-1.9v0l5.7,23.1
		L154.7,254.4z M184,247.6c-0.1,0.3-0.4,0.7-1,0.9l-8.7,3.2c-1.1,0.4-2.5-0.5-2.9-1.6l-6-24.6l7.2-2.6l11.4,22.4
		C184.3,246.1,184.3,247,184,247.6z M188.7,242.1L188.7,242.1L178,221l4.8-1.8l16.6,18.8L188.7,242.1z"/>
	<path class="st1" d="M230,200.8c-0.4-1-0.6-1.9-0.8-3l-0.6-0.1c-1.3-0.3-2.5-1-3.2-2.2c-0.4-0.6-1.1-1.1-1.9-1.3
		c-0.7-0.1-1.5,0-2.2,0.5c-1.1,0.8-2.4,1.1-3.8,0.9l-6.2-1.2c-0.8-0.2-1.6-0.6-2.4-1.4c-0.8-0.8-2-1-3-0.6c-1.1,0.4-1.9,0.6-2.8,0.4
		l-6.2-1.2c-1.8-0.3-3.1-1.6-3.6-3.2l-1.1-0.2c-1.8-0.3-3.3-1.1-4.7-2.1c-0.1,2.3,0.3,4.6,1.6,6.6c1.6,2.3,4,3.9,6.8,4.4l6.3,1.2
		c1.4,0.3,2.8,0.2,4.3-0.2c1.2,0.9,2.5,1.5,3.9,1.7l6.2,1.2c2,0.4,4,0.2,5.8-0.6c1.1,1,2.4,1.7,3.8,2.2
		C227.3,201.9,228.6,201.2,230,200.8z"/>
	<path class="st1" d="M246.5,156.1c0-0.1,0.1-0.1,0.1-0.2c-0.2,0-0.4,0-0.5,0C246.3,155.9,246.4,156,246.5,156.1z"/>
	<path class="st1" d="M277.4,137.1c0.6-3.2-0.1-6.4-1.9-9c-1.8-2.6-4.6-4.4-7.7-5l-7.4-1.4c-1.5-0.3-3-0.2-4.4,0.1
		c-1.2-0.8-2.6-1.4-4.2-1.7l-7.4-1.4c-2.5-0.4-4.8,0.1-7,1.1c-0.2,0.1-0.3,0.1-0.5,0.2c0.1-0.1,0.2-0.2,0.4-0.2
		c-1.7-1.7-3.7-3.1-6.2-3.5l-7.4-1.4c-1.7-0.3-3.4-0.2-5.1,0.2c-0.3,0-0.6,0.1-0.8,0.2c0.3-0.1,0.6-0.2,0.9-0.3
		c-1.4-1-2.9-1.7-4.7-2.1l-7.4-1.4c-3.1-0.5-6.4,0.1-9,1.9c-2.6,1.8-4.4,4.6-5,7.7c-0.6,3.2,0.1,6.4,1.9,9c0.2,0.2,0.4,0.4,0.6,0.6
		h0c-0.3,0.2-0.6,0.2-0.8,0.3c-2.6,1.8-4.4,4.6-5,7.7c-0.7,3.6,0.4,7,2.5,9.6c0,0.1,0.1,0.1,0.1,0.2c0,0-0.1,0-0.1,0
		c-0.3,0.2-0.6,0.2-0.8,0.3c-2.6,1.8-4.4,4.6-5,7.7c-0.7,3.6,0.4,7,2.5,9.6c0,0.1,0.1,0.1,0.1,0.1c0,0-0.1,0-0.1,0.1
		c-0.3,0.2-0.6,0.2-0.8,0.3c-2.6,1.8-4.4,4.6-5,7.7c-0.6,3.2,0.1,6.4,1.9,9c0.8,1.2,1.9,2.1,3,2.9c1.2,1.1,2.8,1.8,4.5,2.2l1.1,0.2
		l6.4,1.2c0.7,0.1,1.5,0.2,2.2,0.2c1,0,1.9-0.3,2.8-0.5l-0.1-0.2c1.4,1,3,1.8,4.7,2.1l7.5,1.6c0.7,0.1,1.5,0.2,2.3,0.2
		c1.7,0,3.3-0.5,4.8-1.2c1.4,1.4,3.1,2.5,5.1,3.1c0.1-1.4,0.4-2.9,1-4.3c0.2-0.4,0.5-0.6,0.7-1c-3.3-0.7-5.4-4-4.8-7.4
		c0.6-3.5,4-5.8,7.5-5.1l3.4,0.6c0.2-1.2,0.3-2.4,0.8-3.5c0.3-0.7,0.9-1.2,1.3-1.8l-4.5-0.8c-0.4-0.1-0.7,0-1.1,0
		c-2.8-1.1-4.7-4-4.1-7.1c0.6-3.5,4-5.8,7.5-5.1l7.4,1.4c0.1,0,0.2,0.1,0.3,0.1c0.2-1,0.3-2,0.7-3c0.4-0.8,1-1.4,1.5-2.1
		c-0.1,0-0.3-0.1-0.4-0.2c-0.4-0.1-0.7-0.4-1-0.4l-7.4-1.4c-0.4-0.1-0.7,0-1.1,0c-0.1,0-0.1,0-0.2,0c-1.1-0.5-2.1-1.2-2.9-2.2
		c-1-1.4-1.3-3.1-1-4.8s1.3-3.1,2.7-4.1c1.4-1,3.1-1.3,4.8-1l7.4,1.4c3.5,0.6,5.8,4,5.1,7.5c-0.1,0.4-0.3,0.7-0.4,1
		c2-0.7,4-0.7,6-0.3c0.3-2.2-0.1-4.3-0.9-6.4l6.3,1.2c1.7,0.3,3.1,1.3,4.1,2.7c1,1.4,1.3,3.1,1,4.8c-0.1,0.6-0.4,1.1-0.6,1.6
		c1.6,0.7,2.9,1.8,4,3.1c0.2,0,0.4,0,0.7,0c0.7-1.1,1.2-2.4,1.5-3.7c0.6-3.2-0.1-6.4-1.9-9c-0.2-0.2-0.4-0.4-0.6-0.6c0,0,0,0,0,0
		c0.3-0.1,0.5-0.2,0.7-0.4C275,143,276.8,140.2,277.4,137.1z M198,122.2c0.3-1.7,1.3-3.1,2.7-4.1c1.1-0.7,2.3-1.1,3.6-1.1
		c0.4,0,0.8,0,1.2,0.1l7.4,1.4c-1.6,1.7-2.8,3.6-3.3,5.9c-0.4,2.2,0,4.2,0.7,6.1l-7-1.3c-0.4-0.1-0.7,0-1.1,0c-0.1,0-0.2,0-0.3,0
		c-1.1-0.5-2.1-1.2-2.9-2.2C198,125.6,197.7,123.9,198,122.2z M194.7,139.9c0.6-3.1,3.3-5.2,6.3-5.2c0.4,0,0.8,0,1.2,0.1l7.2,1.4
		c-1.6,1.7-2.7,3.6-3.2,5.8c-0.4,2.2,0,4.2,0.7,6.2l0.3,0.1c0.7,0.1,1.3,0.3,2,0.6c-0.6-0.2-1.1-0.4-1.8-0.5l-0.3-0.1L200,147
		c-0.4-0.1-0.7,0-1.1,0c0,0-0.1,0-0.1,0C196,145.9,194.1,143,194.7,139.9z M199.6,177.4c-0.4,2.3,0,4.6,0.9,6.7c0,0.1,0,0.1,0.1,0.2
		l-7.4-1.4c-3.5-0.6-5.8-4-5.1-7.5c0.3-1.7,1.3-3.1,2.7-4.1c1.1-0.7,2.3-1.1,3.6-1.1c0.4,0,0.8,0,1.2,0.1l7.2,1.4
		C201.2,173.3,200.1,175.2,199.6,177.4z M203.5,165.9l0.3,0.1l0.3,0.2l-0.3-0.1l-7.1-1.3c-0.4-0.1-0.7,0-1.1,0c-0.3,0-0.6,0-0.9,0
		c0.3-0.1,0.5-0.1,0.8-0.1c-2.8-1.1-4.7-4-4.1-7.1c0.6-3.1,3.3-5.2,6.3-5.2c0.4,0,0.8,0,1.2,0.1l7.2,1.4c-1.6,1.7-2.8,3.6-3.3,5.8
		C202.4,161.9,202.8,163.9,203.5,165.9z M222.9,176.2c-1.2,1.5-2.2,3.2-2.6,5.2c-0.4,2-0.1,3.9,0.5,5.8c0.2,0.5,0.4,1.1,0.6,1.6
		c-0.2-0.5-0.4-1.1-0.6-1.6c-1,0.3-2,0.4-3,0.2l-7.4-1.4c-1.7-0.3-3.1-1.3-4.1-2.7c-1-1.4-1.3-3.1-1-4.8c0.3-1.7,1.3-3.1,2.7-4.1
		c1.1-0.7,2.3-1.1,3.6-1.1c0.4,0,0.8,0,1.2,0.1l7.4,1.4C221.3,175,222.1,175.5,222.9,176.2L222.9,176.2z M208.3,167.9
		c0.1,0,0.1,0.1,0.2,0.1c0.2,0,0.3,0,0.5-0.1c-0.1,0-0.2,0-0.3,0.1c-0.1,0-0.1,0-0.1,0C208.5,168,208.4,168,208.3,167.9z
		 M223.7,163.6c-0.4,2-0.1,4,0.5,5.8l-0.1,0.1c-0.5,0.2-1.1,0.2-1.6,0.2c-0.1,0-0.2-0.1-0.3-0.1c-0.4-0.1-0.7-0.3-1-0.4l-7.4-1.4
		c-0.4-0.1-0.7,0-1.1,0c-0.1,0-0.2,0-0.4,0c-2.6-1.2-4.4-4-3.8-7c0.6-3.1,3.3-5.2,6.3-5.2c0.4,0,0.8,0,1.2,0.1l7.4,1.4
		c1,0.2,1.9,0.7,2.7,1.3h0.2C225.1,159.9,224.1,161.6,223.7,163.6z M227,146c-0.4,2-0.1,3.9,0.5,5.8c-0.7,0.2-1.3,0.2-1.8,0.2
		c-0.1,0-0.2-0.1-0.3-0.1c-0.4-0.1-0.7-0.3-1-0.4l-7.4-1.4c-0.4-0.1-0.7,0-1.1,0c0,0-0.1,0-0.1,0c-2.7-1.2-4.4-4-3.9-7
		c0.6-3.1,3.3-5.2,6.3-5.2c0.4,0,0.8,0,1.2,0.1l7.4,1.4c1,0.2,1.9,0.7,2.7,1.3l0.1,0.1C228.4,142.3,227.4,144,227,146z M230.3,128.3
		c-0.4,2-0.1,3.9,0.5,5.8c-0.6,0.2-1.1,0.2-1.7,0.2c-0.1,0-0.2-0.1-0.3-0.1c-0.4-0.1-0.7-0.3-1-0.4l-7.4-1.4c-0.4-0.1-0.7,0-1.1,0
		c-0.2,0-0.3,0-0.5,0c-2.6-1.2-4.2-4-3.6-6.9c0.3-1.7,1.3-3.1,2.7-4.1c1.1-0.7,2.3-1.1,3.6-1.1c0.4,0,0.8,0,1.2,0.1l7.4,1.4
		c1,0.2,1.9,0.7,2.7,1.3c0,0,0,0,0.1,0C231.7,124.7,230.7,126.3,230.3,128.3z M255.8,133.1c-0.6,3.1-3.4,5.1-6.3,5.1c0,0,0,0,0,0
		c-0.4-0.1-0.7-0.4-1.1-0.4l-7.4-1.4c-0.4-0.1-0.7,0-1.1,0c-1.2-0.5-2.3-1.2-3.1-2.3c-1-1.4-1.3-3.1-1-4.8c0.6-3.5,3.9-5.8,7.5-5.1
		l7.4,1.4C254.2,126.2,256.5,129.6,255.8,133.1z M271.9,136.1c-0.3,1.7-1.3,3.1-2.7,4.1c-1.1,0.7-2.4,1-3.7,1
		c-0.4-0.1-0.7-0.3-1-0.4l-6-1.1c1.4-1.6,2.5-3.4,2.9-5.5c0.4-2.4,0-4.6-0.9-6.7v-0.1l6.3,1.2c1.7,0.3,3.1,1.3,4.1,2.7
		C271.9,132.7,272.2,134.4,271.9,136.1z"/>
	<path class="st1" d="M323.8,185.1c-1.1-3-3.3-5.4-6.2-6.8l-6.9-3.2c-1.4-0.7-2.9-0.9-4.3-1c0.1,0.1,0.2,0.2,0.3,0.3
		c-0.1-0.1-0.2-0.2-0.3-0.2c-1-1.1-2.2-2-3.6-2.6l-6.9-3.2c-2.3-1-4.7-1.1-7-0.7l0.1-0.1c-1.2-2.1-2.9-3.9-5.1-4.9l-6.9-3.2
		c-1.4-0.6-2.9-0.9-4.3-1c-0.4,0-0.6,0-0.8,0c-0.1,0-0.1,0-0.2,0c-1.1-1.3-2.4-2.3-3.9-3l-6.8-3.2c-0.9-0.5-2-0.6-3-0.8
		c-2-0.4-4-0.4-6,0.3c-0.1,0-0.2,0-0.2,0c-2.1,0.8-3.8,2.3-5.2,4c0,0.1-0.1,0.1-0.1,0.2c-0.5,0.7-1.1,1.3-1.5,2.1
		c-0.4,1-0.5,2-0.7,3c-0.4,2.4-0.2,4.8,0.8,7c1.2-0.4,2.4-0.5,3.6-0.5c-1.2,0-2.4,0.1-3.5,0.5c-0.3,0.1-0.6,0-0.9,0.1
		c-2.3,0.8-4.1,2.5-5.4,4.4c-0.4,0.6-1,1.1-1.3,1.8c-0.5,1.1-0.7,2.3-0.8,3.5c-0.3,1.9-0.2,3.9,0.5,5.7c0.1,0.3,0.3,0.5,0.5,0.8
		c0.1,0,0.3,0,0.5,0.1c-0.2,0-0.4,0.1-0.6,0.1c-0.3,0.1-0.6,0-0.9,0.1c-2.6,1-4.6,2.9-6,5.2c-0.2,0.4-0.6,0.6-0.7,1
		c-0.6,1.4-0.9,2.8-1,4.3c-0.1,0.9,0.1,1.8,0.3,2.7c0.2,1,0.4,2,0.8,3c0,0-0.1,0-0.1,0c-1.4,0.4-2.7,1.1-3.9,2
		c-1.5,1.2-2.9,2.6-3.8,4.4c-1.4,2.9-1.5,6.2-0.4,9.2c0.4,1.1,1.1,2.2,1.9,3.2c-1.5,5,0.6,10.4,5.5,12.6l5.8,2.7
		c1.3,0.6,2.8,0.9,4.2,0.9c1,1.2,2.1,2,3.4,2.6l5.8,2.7c1.8,0.9,3.8,1.1,5.8,0.9c1.1,1.7,2.6,3,4.4,3.8l5.8,2.7
		c1.1,0.5,2.3,0.8,3.7,0.9c0.9,1,1.9,1.7,3,2.2l5.8,2.7c1.4,0.7,2.9,1,4.4,1c1.2,0,2.5-0.2,3.6-0.7c2.3-0.9,4.1-2.5,5.3-4.6
		c0.1,0,0.1,0,0.2,0c4.3-0.3,8.2-2.7,10.2-6.9c1.5-3.3,1.3-6.7,0-9.7c3.2-0.9,6.1-3.2,7.6-6.5c1.4-2.9,1.5-6.2,0.4-9.2
		c-0.1-0.2-0.3-0.4-0.4-0.6h0c3.2-0.9,6.1-3.2,7.6-6.5c1.5-3.3,1.3-6.9-0.1-9.9c0-0.1-0.1-0.2-0.1-0.3c0,0.1,0.1,0.1,0.1,0.2
		c0.3-0.1,0.6-0.1,0.9-0.2c3-1.1,5.4-3.3,6.8-6.2C324.8,191.4,324.9,188.1,323.8,185.1z M285,176.6c1.1-2.3,3.4-3.7,5.8-3.7
		c0.9,0,1.8,0.2,2.7,0.6l6.9,3.2c1.5,0.7,2.7,2,3.3,3.6c0.6,1.6,0.5,3.4-0.2,4.9c-0.7,1.6-2,2.7-3.6,3.3c-1.2,0.4-2.4,0.4-3.6,0.1
		c-0.1,0-0.1-0.1-0.2-0.1c-0.3-0.2-0.6-0.5-0.9-0.7l-6.9-3.2c-0.4-0.2-0.7-0.1-1.1-0.3c-0.1,0-0.1,0-0.2-0.1c-1-0.7-1.8-1.6-2.2-2.7
		C284.2,179.9,284.3,178.1,285,176.6z M285.9,189.8l6.9,3.2c1.5,0.7,2.7,2,3.3,3.6c0.6,1.6,0.5,3.4-0.2,4.9s-2,2.7-3.6,3.3
		c-1.3,0.5-2.6,0.4-3.8,0.1c0,0,0,0,0,0c-0.3-0.2-0.5-0.5-0.9-0.7l-6.9-3.2c-0.4-0.2-0.7-0.1-1.1-0.3c-2.5-1.8-3.5-5-2.2-7.8
		c1.1-2.3,3.4-3.7,5.8-3.7C284.1,189.2,285,189.4,285.9,189.8z M256.2,228.9c0,0.1,0,0.1,0,0.2c-0.9,0-1.9-0.1-2.8-0.5l-6.9-3.2
		c-1.5-0.7-2.7-2-3.3-3.6c-0.6-1.6-0.5-3.4,0.2-4.9c0.7-1.5,2-2.7,3.6-3.3c1.6-0.6,3.3-0.5,4.9,0.2l6.9,3.2c0.9,0.4,1.5,1,2.1,1.7
		c-1.6,1.2-3,2.6-3.8,4.4C256.2,224.9,256.1,226.9,256.2,228.9z M254.3,208.7c-0.4-0.2-0.7-0.1-1.1-0.3c-0.1,0-0.1,0-0.2-0.1
		c-1.1-0.7-1.9-1.7-2.3-2.8c-0.6-1.6-0.5-3.4,0.2-4.9c0.7-1.6,2-2.7,3.6-3.3c1.6-0.6,3.4-0.5,4.9,0.2l6.9,3.2c1,0.4,1.7,1.1,2.3,1.8
		c-1.6,1.2-2.9,2.6-3.8,4.4c-0.9,1.9-1,3.8-0.9,5.8l-2.7-0.8L254.3,208.7z M271.4,196.3C271.4,196.3,271.4,196.3,271.4,196.3
		l-2.8-0.8l-6.9-3.2c-0.3-0.2-0.7-0.1-1.1-0.3h0.1c-1.1-0.7-2-1.7-2.4-3c-0.6-1.6-0.5-3.4,0.2-4.9c1.1-2.3,3.4-3.7,5.8-3.7
		c0.9,0,1.8,0.2,2.7,0.6l6.9,3.2c0.9,0.4,1.7,1.1,2.3,1.9c0,0,0,0-0.1,0c-1.6,1.2-2.9,2.6-3.8,4.4
		C271.4,192.4,271.3,194.3,271.4,196.3z M262.4,225.6c0.7-1.5,2-2.7,3.6-3.3c1.6-0.6,3.4-0.5,4.9,0.2l6.9,3.2c1.6,0.7,2.7,2,3.3,3.6
		c0.6,1.6,0.5,3.4-0.2,4.9c-1.5,3.2-5.3,4.7-8.5,3.1l-6.9-3.2c-1.5-0.7-2.7-2-3.3-3.6C261.6,228.9,261.7,227.1,262.4,225.6z
		 M281.2,221.4c-0.1,0-0.1-0.1-0.2-0.1c-0.3-0.2-0.6-0.5-0.9-0.7l-6.9-3.2c-0.3-0.2-0.7-0.1-1.1-0.3c-0.1,0-0.1,0-0.2-0.1
		c-2.3-1.8-3.2-4.9-2-7.5c1.5-3.2,5.3-4.6,8.5-3.2l6.9,3.2c3.2,1.5,4.6,5.3,3.1,8.5C287.1,220.8,284.1,222.1,281.2,221.4z
		 M266.1,167.8c1.1-2.4,3.4-3.7,5.8-3.7c0.9,0,1.8,0.2,2.7,0.6l6.9,3.2c0.9,0.4,1.7,1.1,2.3,1.9c0,0,0,0-0.1,0
		c-1.5,1.2-2.9,2.6-3.8,4.4c-0.9,1.8-1,3.7-0.9,5.7l-2.7-0.9l-6.9-3.2c-0.4-0.2-0.7-0.1-1.1-0.3c-0.1,0-0.1,0-0.2-0.1
		C265.8,173.7,264.8,170.6,266.1,167.8z M250.1,160.5c0.7-1.6,2-2.7,3.6-3.3c1.6-0.6,3.4-0.5,4.9,0.2l6.8,3.2
		c-1.8,1.2-3.5,2.7-4.5,4.8c-0.9,2-1.1,4.1-0.8,6.2l0.3,0.1c0.1,0,0.1,0.1,0.2,0.1l-0.3-0.1l-6.8-3.1c-0.4-0.2-0.7-0.1-1.1-0.3
		c-0.1,0-0.1,0-0.2,0c-1.1-0.7-1.9-1.7-2.3-2.9C249.3,163.8,249.4,162,250.1,160.5z M242.8,176.8c0.7-1.5,2-2.7,3.6-3.3
		c1.6-0.6,3.4-0.5,4.9,0.2l6.8,3.1c0,0-0.1,0-0.1,0.1c-1.9,1.2-3.6,2.7-4.6,4.9c-0.9,2-1.1,4.1-0.9,6.2l0.3,0.1l0.1,0.1l-0.3-0.1
		l-6.6-3l-1-0.5c-1.1-0.7-2-1.7-2.4-2.9C242,180.1,242.1,178.3,242.8,176.8z M235.1,193.2c0.7-1.6,2-2.7,3.6-3.3
		c1.6-0.6,3.3-0.5,4.9,0.2l6.7,3.1c-1.9,1.2-3.6,2.8-4.6,4.9c-0.9,2-1.1,4.1-0.8,6.2l-6.2-2.7l-1.3-0.5c-1.2-0.8-2.1-1.8-2.5-3
		C234.3,196.5,234.4,194.7,235.1,193.2z M284.8,249.3l-0.5-0.2c-0.3,0.2-0.6,0.5-1,0.6c-1.2,0.4-2.6,0.4-3.8-0.2l-5.8-2.7
		c-0.7-0.3-1.2-0.8-1.8-1.6c-0.5-0.7-1.4-1.2-2.3-1.2c-0.1,0-0.1,0-0.2,0c-1,0.1-1.7,0-2.4-0.3l-5.8-2.7c-1.2-0.6-2.1-1.6-2.6-2.9
		c-0.2-0.7-0.8-1.3-1.5-1.7c-0.7-0.3-1.5-0.4-2.2-0.1c-1.3,0.5-2.7,0.5-3.9-0.1l-5.8-2.7c-0.7-0.3-1.4-1-2-1.9
		c-0.6-0.9-1.6-1.4-2.8-1.3c-1.2,0.2-2,0.1-2.8-0.3l-5.8-2.7c-1.5-0.7-2.5-2.1-2.8-3.7l0.3,0.1l5.9,2.7c1.6,0.7,3.3,1.1,5,1.1
		c-1-1.1-1.8-2.3-2.3-3.7c-0.3-0.8-0.3-1.7-0.4-2.5l-6.8-3.2c-1.6-0.7-2.7-2-3.3-3.6c-0.6-1.6-0.5-3.4,0.2-4.9
		c1.1-2.3,3.4-3.7,5.8-3.7c0.9,0,1.8,0.2,2.7,0.6l6.7,3.2c-1.9,1.2-3.5,2.8-4.5,4.8c-1,2.1-1.1,4.5-0.8,6.7c0.1,0.8,0.1,1.7,0.4,2.5
		c0.5,1.4,1.3,2.6,2.3,3.7c1,1.3,2.4,2.4,3.9,3.1l6.9,3.2c1.6,0.7,3.3,1.1,5,1.1c0.7,0,1.4-0.2,2-0.3c1.2,1.9,2.7,3.6,4.9,4.6
		l6.9,3.2c1.3,0.6,2.7,0.8,4.2,0.9c0,0,0.1,0,0.1,0c1.1,1.1,2.3,2.1,3.8,2.7l6.4,3l0.5,0.2c1.4,0.6,2.9,1,4.4,1.1
		C287.8,250.3,286.2,250,284.8,249.3z M295.7,241c-1.5,3.2-5.3,4.6-8.5,3.1l-5.8-2.7l-0.2,0.1c0,0,0.1,0,0.1-0.1
		c1.9-1.2,3.6-2.8,4.6-4.9c1-2.1,1.1-4.4,0.8-6.7h0.1l5.8,2.7C295.8,234,297.2,237.8,295.7,241z M303.3,224.6
		c-1.3,2.9-4.5,4.2-7.4,3.4l-0.1,0.1c-0.3-0.2-0.6-0.5-0.9-0.7l-5.4-2.5c1.6-1.2,3-2.7,3.9-4.6c1-2.2,1.1-4.5,0.8-6.7l0.2-0.2
		l5.8,2.7c1.6,0.7,2.7,2,3.3,3.6C304.1,221.3,304,223.1,303.3,224.6z M310.8,208.3c-1.3,2.9-4.5,4.2-7.4,3.4c0,0,0,0,0,0
		c0,0,0,0,0,0c-0.3-0.2-0.6-0.5-0.9-0.7l-5.5-2.6c1.7-1.2,3.2-2.7,4.1-4.6c1-2.1,1.1-4.5,0.8-6.7l5.8,2.7
		C310.9,201.3,312.3,205.1,310.8,208.3z M318.4,191.9c-0.7,1.5-2,2.7-3.6,3.3c-1.3,0.5-2.6,0.4-3.8,0.1l-0.1,0.1
		c-0.3-0.2-0.5-0.5-0.9-0.7l-5.4-2.6c1.7-1.2,3.2-2.7,4.1-4.6c1-2.2,1.1-4.5,0.8-6.7c0,0,0-0.1,0-0.1c0,0,0,0,0,0l5.8,2.7
		c1.5,0.7,2.7,2,3.3,3.6C319.2,188.6,319.1,190.4,318.4,191.9z"/>
</g>
</svg>
