<?xml version="1.0" encoding="utf-8"?>
<!-- Generator: Adobe Illustrator 23.0.1, SVG Export Plug-In . SVG Version: 6.00 Build 0)  -->
<svg version="1.1" id="Layer_1" xmlns="http://www.w3.org/2000/svg" xmlns:xlink="http://www.w3.org/1999/xlink" x="0px" y="0px"
	 viewBox="0 0 350 300" style="enable-background:new 0 0 350 300;" xml:space="preserve">
<style type="text/css">
	.st0{fill:#C2B59B;}
</style>
<g>
	<path class="st0" d="M156.2,201.1c-6.6,1.7-14,2.7-22.2,2.7c-35.9,0-57.3-17-57.3-45.4c0-31.3,41.6-57.3,57.3-57.3
		c11.9,0,31.6,10.6,44.6,26.2c2.2-1.8,4.5-3.4,6.8-4.9c-14.8-18-37.4-29.9-51.4-29.9c-19.1,0-65.9,28.5-65.9,65.9
		c0,33.3,25.2,54,65.9,54c10,0,19.1-1.3,27.1-3.7C159.2,206.3,157.6,203.7,156.2,201.1z"/>
	<path class="st0" d="M124.3,111.6l-7.1,11.3c-1.3,2-0.7,4.6,1.3,5.9c0.7,0.4,1.5,0.7,2.3,0.7c1.4,0,2.8-0.7,3.6-2l7.1-11.3
		c1.3-2,0.7-4.6-1.3-5.9C128.2,109.1,125.5,109.6,124.3,111.6z"/>
	<path class="st0" d="M144.2,112.1c-1-2.1-3.6-3-5.7-2c-2.1,1-3,3.5-2,5.7l5.4,11.3c0.7,1.5,2.3,2.4,3.9,2.4c0.6,0,1.2-0.1,1.8-0.4
		c2.1-1,3-3.5,2-5.7L144.2,112.1z"/>
	<path class="st0" d="M216,110.3c-7.5,0-19.2,4.4-30.7,12c-2.3,1.5-4.6,3.2-6.8,4.9c-15.2,11.9-28.4,29.2-28.4,49
		c0,9.4,2.2,17.7,6,24.9c1.4,2.7,2.9,5.2,4.8,7.6c11.1,13.7,30.1,21.5,55,21.5c40.6,0,65.9-20.7,65.9-54
		C281.9,140.1,238.3,110.3,216,110.3z M216,221.6c-35.9,0-57.3-17-57.3-45.4c0-31.3,41.6-57.3,57.3-57.3c18.9,0,57.3,26.5,57.3,57.3
		C273.4,204.6,251.9,221.6,216,221.6z"/>
	<path class="st0" d="M206.3,129.5l-7.1,11.3c-1.3,2-0.7,4.6,1.3,5.9c0.7,0.4,1.5,0.7,2.3,0.7c1.4,0,2.8-0.7,3.6-2l7.1-11.3
		c1.3-2,0.7-4.6-1.3-5.9C210.2,126.9,207.6,127.5,206.3,129.5z"/>
	<path class="st0" d="M226.3,129.9c-1-2.1-3.6-3-5.7-2c-2.1,1-3,3.5-2,5.7l5.4,11.3c0.7,1.5,2.3,2.4,3.9,2.4c0.6,0,1.2-0.1,1.8-0.4
		c2.1-1,3-3.5,2-5.7L226.3,129.9z"/>
</g>
</svg>
