<?xml version="1.0" encoding="utf-8"?>
<!-- Generator: Adobe Illustrator 23.0.1, SVG Export Plug-In . SVG Version: 6.00 Build 0)  -->
<svg version="1.1" id="Layer_1" xmlns="http://www.w3.org/2000/svg" xmlns:xlink="http://www.w3.org/1999/xlink" x="0px" y="0px"
	 viewBox="0 0 350 300" style="enable-background:new 0 0 350 300;" xml:space="preserve">
<style type="text/css">
	.st0{fill:#472C12;}
	.st1{fill:#A26239;}
	.st2{fill:#8DC63F;}
	.st3{fill:#414042;}
	.st4{fill:#D79E53;}
</style>
<g>
	<path class="st0" d="M123.2,71.5c0.1,0,0.2-0.1,0.3-0.1L122,69c-2.3-3.7-7.2-4.9-10.9-2.6l-9.2,5.7c-3.7,2.3-4.9,7.2-2.6,10.9
		l1.3,2c1.3-1.4,2.8-2.8,4.5-3.8L123.2,71.5z"/>
	<path class="st1" d="M102.6,100.7h0.3c-0.5-2-0.7-4.2-0.1-6.2c0.9-3.1,2.9-5.6,5.7-7.1l18-9.9c1.8-1,3.8-1.5,5.7-1.5
		c3.7,0,7.2,1.8,9.5,4.9c2.4-1,4.8-1.5,7.3-1.4l-0.3-0.6c-4.9-9-16.2-12.3-25.2-7.5c-0.1,0-0.2,0.1-0.3,0.1l-18,9.9
		c-1.8,1-3.2,2.4-4.5,3.8c-2,2.1-3.6,4.5-4.4,7.4c-1,3.4-0.7,6.8,0.3,10.2C98.3,101.5,100.3,100.7,102.6,100.7z"/>
	<path class="st0" d="M136.9,83.3c0.1-0.1,0.2-0.1,0.3-0.1l-1.8-2c-2.9-3.3-7.9-3.5-11.2-0.6l-8,7.2c-3.3,2.9-3.5,7.9-0.6,11.2
		l1.6,1.7h0.1c1.1-1.6,2.2-3.2,3.8-4.5L136.9,83.3z"/>
	<path class="st1" d="M141.6,80.9c-1.5,0.6-3.1,1.2-4.4,2.3c-0.1,0.1-0.2,0.1-0.3,0.1l-16,12.9c-1.6,1.3-2.7,2.8-3.8,4.5h9.1
		l14.9-12c5.1-4.1,12.6-3.3,16.7,1.8l4.7,5.8l3.1-5.1c0.3-0.4,0.6-0.6,0.9-0.9l-3.3-4.1c-3.6-4.5-9-6.6-14.4-6.7
		C146.4,79.4,144,79.9,141.6,80.9z"/>
	<g>
		<path class="st2" d="M273.8,83.7l-10-9.5c-4.5-4.3-11.4-5.4-17-2.6c-2.1,1-4.4,1.1-6.6,0.3L233,69c-5.3-2.1-11.4-1-15.6,2.9
			l-9.8,9c-0.3,0.3-0.5,0.7-0.7,1c-4.3-0.9-8.9,0-12.4,2.8c-1.8,1.4-4.1,2-6.4,1.6l-7.6-1.3c-5.2-0.9-10.4,1.1-13.9,5.3
			c-0.3,0.3-0.6,0.6-0.9,0.9l-3.1,5.1l-0.5,0.8c0,0-1,1.5-2,3.6h7.8l3.5-5.7c1.8-2.5,4.8-3.8,7.9-3.2l7.6,1.3
			c4.2,0.7,8.5-0.3,11.8-3c1.9-1.5,4.2-1.6,6.5-1.2c0.3,1.4,0.8,2.7,1.8,3.8c0.5,0.6,0.5,1.5,0,2.1l-4.6,5.8h8.7l1.2-1.6
			c2.5-3.2,2.4-7.7-0.2-10.8c-0.6-0.7-0.5-1.7,0.1-2.3l9.8-9c2.3-2.1,5.5-2.7,8.4-1.6l7.2,2.9c3.9,1.6,8.4,1.4,12.1-0.5
			c3-1.5,6.7-1,9.2,1.4l10,9.5c2.4,2.3,3.2,6,1.8,9.1l-1.3,3h1.6c1.9,0,3.7,0.5,5.3,1.3l0.7-1.6C279.7,94.7,278.3,88,273.8,83.7z"/>
		<path class="st2" d="M256.1,88.1l-9.4,6.7c0.3-2.3,0.4-4.9,0-7.7c-0.2-1.9-2-3.2-3.8-3c-1.9,0.2-3.2,1.9-3,3.8
			c0.6,4.8-0.1,8.6-1.2,11.4l-7.8-8.7c-1.3-1.4-3.4-1.6-4.8-0.3c-1.4,1.3-1.5,3.4-0.3,4.8l5,5.6l4.1,4.6l2.5,2.9
			c0.7,0.8,1.6,1.2,2.6,1.2c0.3,0,0.5-0.2,0.8-0.3c0.5-0.1,1.1-0.2,1.5-0.6c0.9-0.8,1.1-1.8,0.9-2.9c0.3-0.6,0.7-1.1,1-1.8
			c0.1,0,0.2,0.2,0.3,0.2c0.7,0,1.4-0.2,2-0.6l3.7-2.6l9.9-7c1.5-1.1,1.9-3.2,0.8-4.8C259.8,87.3,257.6,87,256.1,88.1z"/>
	</g>
	<path class="st3" d="M230.7,100.7h-19.5h-8.7H168h-7.8h-33.9h-9.1h-0.1h-14.2h-0.3c-2.3,0-4.4,0.9-6.2,2c-3.7,2.4-6.1,6.6-5.4,11.4
		c2.7,19.2,11,36.5,23.2,50.4c0.1-4.4,1.4-9.3,4.1-14.1c5.9-10.6,15.6-16.1,23-13.4c0.4,0,0.8,0.2,1.2,0.4l0,0
		c0.2,0.1,0.3,0.2,0.5,0.3l80.9,45.2c0,0,0.1,0,0.1,0.1c0.2,0.1,0.4,0.3,0.6,0.5c1.6,1.2,2.9,2.8,3.8,4.7
		c28.8-13.7,49.8-41.2,54.4-74c0.7-5.1-2-9.9-6.3-12.1c-1.6-0.8-3.3-1.3-5.3-1.3h-1.6h-19.4h-3.7"/>
	<path class="st4" d="M228.4,188.1c-0.9-1.9-2.1-3.5-3.8-4.7c-0.2-0.2-0.4-0.3-0.6-0.5l-0.1-0.1L143,137.7c-0.2-0.1-0.3-0.2-0.5-0.3
		l0,0c-0.4-0.2-0.8-0.3-1.2-0.4c-7.4-2.8-17.1,2.8-23,13.4c-2.7,4.8-3.9,9.7-4.1,14.1c-0.1,5.2,1.3,9.7,4.5,12.3
		c0.1,0.1,0.1,0.1,0.2,0.2l-32.7-4.5c-0.5,0-0.9,0-1.3,0.1c-8.3,0.2-15.8,9.4-17.5,22.2c-1.7,12.6,2.8,23.5,10.7,26
		c0.4,0.3,0.9,0.5,1.4,0.5l99.1,13.5c0.1,0,0.3,0,0.4,0c0.1,0,0.3,0,0.4,0c6.9,0.5,13.2-5.5,16.4-14.4l5.4,3
		c0.2,0.1,0.5,0.2,0.7,0.3c1.5,0.7,3,1,4.7,1c6.6,0,14.3-5.3,19.2-14.1C230.4,202.4,231.2,193.9,228.4,188.1z M191.1,211.6
		c-1.4,10.3-7.2,17.1-11.5,16.3c-0.1,0-0.3,0-0.4,0c-0.1,0-0.2,0-0.2,0l-97.4-13.3c-0.3-0.1-0.6-0.3-0.9-0.3
		c-4.3-0.8-7.9-8.5-6.5-18.6s6.9-16.2,11.3-16.2c0.2,0,0.5,0,0.8,0l18.9,2.6l-5.7,9.4L94,197l0.9-4.9c0.1-0.8,0-1.6-0.4-2.3
		l-3.4-5.9c-0.9-1.7-3-2.2-4.7-1.3c-1.6,0.9-2.2,3-1.3,4.7l2.8,4.9l-2.2,12.4l-2.9,0.3c-1.9,0.2-3.3,1.8-3.1,3.7
		c0.2,1.8,1.7,3.1,3.4,3.1c0.1,0,0.2,0,0.3,0l10.7-0.9c1.1-0.1,2.1-0.7,2.6-1.6l15.9-26l71.8,9.8l0.5-3.4l-0.5,3.4
		C188.7,193.4,192.5,201.3,191.1,211.6z M219.9,207.2c-4.7,8.3-11.7,12.1-15.2,10.2c-0.2-0.1-0.4-0.2-0.5-0.2l-6.4-3.6
		c0.1-0.3,0.1-0.6,0.2-1c1.8-13.4-3.5-24.9-12.6-26.5l-48.5-6.6l-12.6-7c-0.2-0.2-0.4-0.4-0.7-0.6c-3.3-2.1-3.8-9.9,0.8-18.1
		c4.6-8.2,11.5-11.8,15-10.1c0.2,0.1,0.4,0.2,0.7,0.2l15.2,8.5l-8.7,6.6l-5.4,2.4l2.3-3.7c0.4-0.7,0.6-1.5,0.5-2.3l-1-6.4
		c-0.3-1.9-2-3.3-3.9-2.9c-1.9,0.3-3.2,2-2.9,3.9l0.7,5.1l-6,9.8l-2.4-0.7c-1.8-0.6-3.7,0.5-4.3,2.3c-0.5,1.8,0.5,3.7,2.3,4.3
		l9.6,2.8c0.3,0.1,0.6,0.1,1,0.1c0.7,0,1.5-0.2,2.1-0.7l22.5-17l58.6,32.7c0.1,0.1,0.2,0.1,0.3,0.2
		C224,190.9,224.6,198.8,219.9,207.2z"/>
</g>
</svg>
