<?xml version="1.0" encoding="utf-8"?>
<!-- Generator: Adobe Illustrator 23.0.1, SVG Export Plug-In . SVG Version: 6.00 Build 0)  -->
<svg version="1.1" id="Layer_1" xmlns="http://www.w3.org/2000/svg" xmlns:xlink="http://www.w3.org/1999/xlink" x="0px" y="0px"
	 viewBox="0 0 350 300" style="enable-background:new 0 0 350 300;" xml:space="preserve">
<style type="text/css">
	.st0{fill:#340632;}
	.st1{fill:#6E7326;}
	.st2{fill:#BE1E2D;}
	.st3{fill:#3A5918;}
</style>
<g>
	<path class="st0" d="M112.7,187.9c-5.2-2.1-10.1-5.9-13.6-11.3c-3.8-5.9-5.5-12.8-4.6-19.2c0.8-6.2,3.9-11.4,8.7-14.5
		c3-1.9,6.5-2.9,10.2-2.9c2.1,0,4.2,0.3,6.3,1c1.4-1.4,2.9-2.7,4.6-3.8c0.6-0.4,1.3-0.6,2-1c-1.4-0.7-2.8-1.3-4.3-1.8
		c-8-2.4-16-1.4-22.5,2.8s-10.7,11-11.8,19.3c-1.1,8.1,0.9,16.5,5.6,23.8c5,7.7,12.3,13,20,15.1
		C112.8,192.9,112.6,190.4,112.7,187.9z"/>
	<path class="st1" d="M119.7,141c-3.9,4.1-6.4,9.4-7.2,15.5c-0.8,6.3,0.3,12.9,3,19c1.2-2.6,2.8-5,4.7-7c-1-3.6-1.4-7.4-0.9-11
		c0.8-6.2,3.9-11.4,8.7-14.5c1.6-1,3.2-1.7,5-2.2c-2.2-1.5-4.2-3.1-6-4.9c-0.2,0.1-0.5,0.2-0.7,0.3c-0.7,0.3-1.4,0.6-2,1
		C122.6,138.3,121.1,139.5,119.7,141z"/>
	<path class="st0" d="M145.5,146.5c-1.8-0.6-3.7-0.9-5.4-1.7c-0.5-0.2-0.9-0.5-1.3-0.7c-2.5,3.6-4.2,7.7-4.9,12.5
		c-0.2,1.6-0.2,3.3-0.2,4.9c2.3-0.4,4.6-0.6,6.9-0.4c0-1.2,0-2.4,0.1-3.6C141.3,153.1,143,149.4,145.5,146.5z"/>
	<path class="st2" d="M167.1,149.5c-1,0.1-2,0.3-3.1,0.3c-1.4,0-2.9-0.3-4.4-0.4c-0.9,2.3-1.7,4.6-2,7.2c-0.2,1.7-0.2,3.4-0.2,5.2
		c2.3-0.5,4.6-0.8,6.9-0.7c0-1.2,0-2.4,0.1-3.6C164.8,154.5,165.7,151.8,167.1,149.5z"/>
	<path d="M236.6,162c-0.1-0.5-0.2-1.1-0.4-1.6c-0.3,0.5-0.5,0.9-0.8,1.4C235.8,161.9,236.2,161.9,236.6,162z"/>
	<path class="st2" d="M151.1,216.7c-3.5,0.9-7.4,0.9-11.3-0.3c-6.2-1.9-11.8-6.2-15.6-12.1c-3.8-5.9-5.5-12.8-4.6-19.2
		c0.8-6.2,3.9-11.4,8.7-14.5c3.1-2,6.6-2.9,10.2-2.9c2.1,0,4.2,0.3,6.3,0.9c1.4-1.4,2.9-2.7,4.6-3.8c0.6-0.4,1.3-0.6,2-1
		c-3.5-1.6-7.2-2.6-10.8-2.9c-2.3-0.2-4.6,0-6.9,0.4c-3.2,0.6-6.3,1.6-9.1,3.5c-1.6,1-3,2.2-4.3,3.5c-2,2-3.5,4.4-4.7,7
		c-1.3,2.7-2.3,5.6-2.7,8.7c-0.2,1.2-0.1,2.5-0.1,3.7c0,2.5,0.1,5,0.7,7.5c0.9,4.4,2.6,8.6,5.1,12.6c4.7,7.3,11.6,12.6,19.4,15
		c2.9,0.9,5.7,1.3,8.5,1.3c4.2,0,8.2-1.2,11.8-3.1C155.7,220,153.3,218.5,151.1,216.7z"/>
	<path class="st1" d="M173.1,217.3c-2.7,0.3-5.6,0-8.5-0.9c-6.2-1.9-11.8-6.2-15.6-12.1c-3.8-5.9-5.5-12.8-4.6-19.2
		c0.8-6.2,3.9-11.4,8.7-14.5c3.1-2,6.6-2.9,10.2-2.9c0.6,0,1.1,0.2,1.7,0.2c0.2-2.2,0.6-4.5,1.3-6.9c-0.7-0.1-1.4-0.1-2.1-0.1
		c-2.3-0.1-4.6,0.2-6.9,0.7c-2.1,0.5-4,1.2-6,2.2c-0.7,0.3-1.4,0.6-2,1c-1.7,1.1-3.2,2.4-4.6,3.8c-3.9,4.1-6.4,9.4-7.2,15.5
		c-1.1,8.1,0.9,16.5,5.6,23.8c2.2,3.4,4.9,6.3,7.8,8.7c2.2,1.8,4.6,3.3,7.1,4.5c1.4,0.7,2.9,1.3,4.4,1.8c2.9,0.9,5.7,1.3,8.5,1.3
		c3.6,0,7-1,10.2-2.4C178.5,220.8,175.7,219.3,173.1,217.3z"/>
	<path class="st0" d="M196.4,216.9c-3.3,0.7-6.8,0.6-10.4-0.5c-6.2-1.9-11.8-6.2-15.6-12.1c-3.8-5.9-5.5-12.8-4.6-19.2
		c0.3-2,0.8-3.8,1.6-5.6c-0.1-0.1-0.1-0.2-0.2-0.2l0,0l0,0c0-0.1-0.1-0.1-0.1-0.2c-1.4-2.4-2-5.5-2-8.9c-3.2,3.9-5.3,8.6-6,14
		c-1.1,8.1,0.9,16.5,5.7,23.8c2.3,3.6,5.2,6.7,8.4,9.3c2.5,2,5.4,3.5,8.3,4.6c0.9,0.4,1.7,0.8,2.6,1.1c2.9,0.9,5.7,1.3,8.5,1.3
		c4,0,7.8-1.1,11.3-2.9C201.2,220.3,198.7,218.8,196.4,216.9z"/>
	<path class="st2" d="M217.1,217.3c-2.4,0.1-4.9-0.1-7.4-0.9c-6.2-1.9-11.8-6.2-15.6-12.1c-3.4-5.3-5-11.3-4.7-17.2
		c-0.3,0-0.6,0.1-0.9,0.1c-2.1,0-4.1-0.2-5.9-0.4c-0.4,7.3,1.5,14.7,5.7,21.2c2.2,3.5,5,6.4,8.1,8.9c2.3,1.9,4.8,3.3,7.5,4.5
		c1.3,0.6,2.5,1.2,3.8,1.6c2.9,0.9,5.7,1.3,8.5,1.3c3.4,0,6.6-0.9,9.7-2.1C222.8,221,219.8,219.4,217.1,217.3z"/>
	<path class="st1" d="M256.6,177.1c-5-7.7-12.3-12.9-20-15.1c-0.4-0.1-0.8-0.1-1.2-0.2c-1.3,2.2-2.9,4.2-4.5,6.3
		c7.4,0.8,15,5.2,19.9,12.8c3.8,5.9,5.5,12.8,4.6,19.2c-0.8,6.2-3.9,11.4-8.7,14.5s-10.7,3.8-16.8,1.9c-6.2-1.9-11.8-6.2-15.6-12.1
		c-3.8-5.9-5.5-12.8-4.6-19.2c0.1-0.8,0.4-1.6,0.6-2.4c-2.5,1-5,1.9-7.4,2.5c-0.8,7.7,1.2,15.8,5.7,22.8c2.3,3.6,5.2,6.7,8.5,9.3
		c2.7,2.1,5.7,3.7,8.9,4.9c0.7,0.3,1.3,0.6,2.1,0.8c2.9,0.9,5.7,1.3,8.5,1.3c5,0,9.8-1.4,13.9-4.1c6.5-4.2,10.7-11,11.8-19.3
		C263.4,192.9,261.4,184.4,256.6,177.1z"/>
	<path class="st3" d="M133,140.7c1.8,1.2,3.7,2.3,5.7,3.3c0.5,0.2,0.9,0.5,1.3,0.7c1.8,0.8,3.6,1.1,5.4,1.7c4.7,1.5,9.4,2.5,14,2.8
		c1.5,0.1,3,0.4,4.4,0.4c1.1,0,2-0.2,3.1-0.3c1.5-0.1,3-0.2,4.4-0.4c1.6-2.8,3.5-5.5,5.6-8.1c-8.8,2.7-21.7,3-34.2-2.5
		c-19.4-8.6-27.6-32.4-27.4-35.2c1.7-2.1,13.7-7.9,27.6-7.9c5.6,0,11.6,1,17.3,3.5c13.9,6.2,23.4,18,26.5,27c0.6,1.8,1,3.5,1.1,4.9
		c0.4-0.3,0.8-0.7,1.3-1c1.6-1.1,3.2-1.9,4.8-2.7c-0.3-1.2-0.3-2.2-0.7-3.5c-3.4-9.6-13.4-23.5-30.2-31c-22.6-10-49.9,1.2-53.5,7
		c-0.5,0.8-1.7,2.8,0.5,9.8c2.1,6.8,7.6,17.8,16.8,26.5C128.9,137.6,130.9,139.2,133,140.7z"/>
	<path class="st3" d="M134.3,111.7c-0.8,1.7,0.1,3.8,1.8,4.5l45.3,19.4c1.8-1.8,3.9-3.4,6-4.9l-48.5-20.8
		C137,109.2,135,109.9,134.3,111.7z"/>
	<g>
		<path class="st3" d="M167.3,179.5c0.1,0.1,0.2,0.2,0.2,0.3C167.5,179.6,167.5,179.6,167.3,179.5
			C167.4,179.5,167.4,179.5,167.3,179.5z"/>
		<path class="st3" d="M167.3,179.5c0-0.1-0.1-0.1-0.1-0.2C167.3,179.4,167.3,179.4,167.3,179.5z"/>
		<path class="st3" d="M167.2,179"/>
		<path class="st3" d="M243.6,127.9c-0.4-0.8-1.5-2.9-8.6-4.8c-8.7-2.3-26.2-3.6-41,3.9c-1.5,0.8-3.1,1.7-4.7,2.7
			c-0.4,0.3-0.8,0.7-1.3,1c-0.1,0.1-0.2,0.2-0.3,0.2c-2.1,1.5-4.1,3.2-6,4.9c-1.7,1.6-3.3,3.3-4.7,5.1c-2.2,2.6-4,5.3-5.6,8.1
			c-2.3,4-4,8.1-5.1,12c-0.7,2.4-1.1,4.7-1.3,6.9c-0.1,0.8,0,1.5,0,2.2c0,3.2,0.5,6,1.7,8.4l0.9,1.3c2.1,3,6.1,5.3,11.4,6.5
			c1.1,0.2,2.3,0.4,3.6,0.6c1.8,0.2,3.8,0.4,5.9,0.4c0.3,0,0.6-0.1,0.9-0.1c4.2-0.1,8.7-0.7,13.5-1.9c2.4-0.6,4.9-1.5,7.4-2.5
			c3.7-1.5,7.4-3.2,10.9-5.7c3.8-2.5,6.8-5.7,9.6-9c1.7-2,3.2-4.1,4.5-6.3c0.3-0.5,0.6-0.9,0.8-1.4
			C243.8,146.9,245.7,132.1,243.6,127.9z M217.4,171.4c-12.6,8.5-27.7,10.3-36.9,8.2c-2-0.4-3.7-1.1-5-1.9v-0.1l43.6-30.3
			c1.6-1.1,1.9-3.2,0.9-4.8c-1.1-1.6-3.2-1.9-4.8-0.9l-43.2,30l-0.1,0.1c-0.7-8.8,5.8-25.7,21.2-36.2c8.4-5.7,18.4-7.4,26.8-7.4
			c9.1,0,16.4,2,17.6,2.9C238.7,134.5,235.4,159.3,217.4,171.4z"/>
		<path class="st3" d="M167,179c-0.1-0.2-0.2-0.4-0.3-0.5c0.1,0.3,0.2,0.5,0.4,0.7C167.1,179.1,167,179.1,167,179z"/>
	</g>
</g>
</svg>
