<?xml version="1.0" encoding="utf-8"?>
<!-- Generator: Adobe Illustrator 23.0.1, SVG Export Plug-In . SVG Version: 6.00 Build 0)  -->
<svg version="1.1" id="Layer_1" xmlns="http://www.w3.org/2000/svg" xmlns:xlink="http://www.w3.org/1999/xlink" x="0px" y="0px"
	 viewBox="0 0 350 300" style="enable-background:new 0 0 350 300;" xml:space="preserve">
<style type="text/css">
	.st0{fill:#7B651C;}
	.st1{fill:#FFFFFF;}
	.st2{opacity:0.67;fill:#382D00;enable-background:new    ;}
	.st3{fill:#546B2D;}
	.st4{fill:#92943C;}
	.st5{fill:#B9AA34;}
</style>
<g>
	<polygon class="st0" points="254.5,75.3 254.5,57.1 244.3,57.1 244.3,75.3 245.5,75.3 252.4,75.3 	"/>
	<rect x="242.7" y="34.6" class="st0" width="13.6" height="18.3"/>
	<path class="st1" d="M256.8,110.8c-1.4-0.5-2.4-1.9-2.4-3.4v-32h-9.8v32c0,1.5-1,2.9-2.4,3.4c-8.3,3.1-13.8,10.7-14,19.5
		c0,0.3,0,0.5-0.1,0.7v117.2c0,2,1.7,3.7,3.7,3.7h35.4c2,0,3.7-1.7,3.7-3.7V131c-0.1-0.2-0.1-0.5-0.1-0.7
		C270.7,121.5,265.2,113.8,256.8,110.8z M265.9,242.8c0,2.3-1.9,4.1-4.1,4.1h-24.5c-2.3,0-4.1-1.9-4.1-4.1v-74.1h32.7V242.8z"/>
	<path class="st2" d="M278.2,129.3c-0.5-10.6-6.8-19.9-16.4-24.4V63.6c1.4-1.1,2.2-2.8,2.2-4.6c0-2.9-2.1-5.4-5-5.9
		c-0.3-0.1-0.7-0.1-1-0.1h-1.7h-13.6h-1.8c-0.4,0-0.7,0.1-1,0.2c-2.8,0.5-4.9,3-4.9,5.9c0,1.9,0.9,3.5,2.2,4.6V105
		c-9.6,4.5-15.9,13.8-16.4,24.4c-0.1,0.3-0.1,0.6-0.1,0.9v118c0,6.1,5,11,11,11h35.4c6.1,0,11-5,11-11v-118
		C278.3,129.9,278.2,129.6,278.2,129.3z M270.9,248.2c0,2-1.7,3.7-3.7,3.7h-35.4c-2,0-3.7-1.7-3.7-3.7V131c0.1-0.2,0.1-0.5,0.1-0.7
		c0.2-8.8,5.6-16.4,14-19.5c1.4-0.5,2.4-1.9,2.4-3.4v-32l0,0V57.1h9.8v18.2l0,0v32c0,1.5,1,2.9,2.4,3.4c8.3,3.1,13.8,10.7,14,19.5
		c0,0.2,0,0.5,0.1,0.7V248.2z"/>
	<path class="st1" d="M103.6,233.2c1.8,1.7,3.8,3.3,5.8,4.7c5.9-0.1,11.8,0.9,17.5,3.1c1.1,0.4,1.9,1.3,2.2,2.4
		c0.3,0.9,0,1.9-0.5,2.8c3.3,0.7,6.6,0.9,9.9,0.9c-4.4-4.6-6.8-10.2-6.5-15.6c-0.3-0.1-0.5-0.2-0.8-0.2
		C122,229.3,112.6,229.9,103.6,233.2z"/>
	<path class="st3" d="M138.5,247c-3.3,0-6.6-0.2-9.9-0.9c-0.1,0.1,0,0.3-0.1,0.5c-1.6,2.1-3.3,4-5.1,5.7c1,0.3,2,0.7,3.1,0.9
		c3.9,0.8,7.9,1.2,11.8,1.2c3.3,0,6.7-0.5,10-1.1c-1.2-0.5-2.4-0.7-3.6-1.4C142.4,250.6,140.3,248.9,138.5,247z"/>
	<path class="st1" d="M119.2,246.2c-6.7-1.6-13.6-1.5-20.1,0.4c-6.6,1.9-12.5,5.4-17.3,10.4c6.7,1.6,13.6,1.5,20.1-0.4
		C108.5,254.7,114.4,251.2,119.2,246.2z"/>
	<path class="st3" d="M132.7,223.9c-12.4-2.6-25.2-1-37.1,4.5c-1,0.5-1.8,1.5-2,2.6c-0.2,1.1,0.1,2.3,0.8,3.2
		c1.5,1.8,3.2,3.3,4.9,4.8c0.5-0.1,1-0.2,1.5-0.3c-0.4,0.1-0.9,0.2-1.3,0.3c-0.8,0.2-1.6,0.2-2.3,0.5c-9.8,2.8-18.3,8.7-24.6,17.1
		c-0.7,0.9-0.9,2.1-0.6,3.2c0.3,1.1,1.1,2,2.2,2.4c5.6,2.2,11.4,3.2,17.2,3.2c4.3,0,8.6-0.6,12.7-1.8c7.4-2.1,14-6,19.5-11.3
		c1.7-1.7,3.4-3.6,5-5.7c0.1-0.1,0-0.3,0.1-0.5c0.5-0.9,0.8-1.8,0.5-2.8c-0.3-1.1-1.1-2-2.2-2.4c-5.7-2.2-11.6-3.1-17.5-3.1
		c-0.1,0-0.2,0-0.2,0c-2-1.4-3.9-2.9-5.7-4.6c9-3.2,18.4-3.9,27.6-2c0.3,0.1,0.5,0.2,0.8,0.2c0.1-2.5,0.8-4.9,2-7.1
		C133.6,224.2,133.2,224,132.7,223.9z M119.2,246.2c-4.8,4.9-10.7,8.5-17.3,10.4c-6.5,1.9-13.4,2-20.1,0.4c4.8-5,10.7-8.5,17.3-10.4
		C105.7,244.7,112.5,244.6,119.2,246.2z"/>
	<path class="st4" d="M192.8,223.5c-9,3.9-13.8,12.8-10.7,20.1c3.1,7.2,12.9,10,21.9,6.1s13.8-12.8,10.7-20.1
		C211.6,222.4,201.8,219.6,192.8,223.5z M198.8,233.2c-2.8,0.3-5.2-1-5.4-2.9s1.9-3.7,4.7-4s5.2,1,5.4,2.9
		C203.7,231.1,201.6,232.9,198.8,233.2z"/>
	<path class="st1" d="M198,226.3c-2.8,0.3-4.9,2.1-4.7,4s2.6,3.2,5.4,2.9c2.8-0.3,4.9-2.1,4.7-4C203.3,227.3,200.8,226,198,226.3z"
		/>
	<path class="st4" d="M163.4,219.8c-11.1-6.4-24.2-4.4-29.4,4.5l0,0c-1.3,2.2-1.9,4.6-2,7.1c-0.2,5.4,2.2,11,6.5,15.6
		c1.8,1.9,3.8,3.6,6.3,5c1.2,0.7,2.4,0.9,3.6,1.4c10.2,4.2,21.2,2.1,25.8-5.9C179.3,238.6,174.5,226.2,163.4,219.8z M142.6,225
		c0-2.6,3.1-4.7,6.9-4.7c3.8,0,6.9,2.1,6.9,4.7c0,2.6-3.1,4.7-6.9,4.7C145.7,229.7,142.6,227.6,142.6,225z"/>
	<path class="st1" d="M149.5,229.7c3.8,0,6.9-2.1,6.9-4.7c0-2.6-3.1-4.7-6.9-4.7c-3.8,0-6.9,2.1-6.9,4.7
		C142.6,227.6,145.7,229.7,149.5,229.7z"/>
	<path class="st5" d="M233.1,242.8c0,2.3,1.9,4.1,4.1,4.1h24.5c2.3,0,4.1-1.9,4.1-4.1v-74.1h-32.7L233.1,242.8L233.1,242.8z"/>
</g>
</svg>
