<?xml version="1.0" encoding="utf-8"?>
<!-- Generator: Adobe Illustrator 23.0.1, SVG Export Plug-In . SVG Version: 6.00 Build 0)  -->
<svg version="1.1" id="Layer_1" xmlns="http://www.w3.org/2000/svg" xmlns:xlink="http://www.w3.org/1999/xlink" x="0px" y="0px"
	 viewBox="0 0 350 300" style="enable-background:new 0 0 350 300;" xml:space="preserve">
<style type="text/css">
	.st0{fill:#D57632;}
	.st1{fill:#FCB445;}
	.st2{fill:#472C12;}
	.st3{fill:#FFFFFF;}
	.st4{fill:#A26239;}
	.st5{fill:#8DC63F;}
	.st6{fill:#414042;}
	.st7{fill:#D79E53;}
	.st8{fill:#EEB321;}
	.st9{fill:#FCE68D;}
	.st10{fill:#4C5E3D;}
	.st11{fill:#A0570A;}
	.st12{fill:#FBB040;}
	.st13{fill:#65BC46;}
	.st14{fill:#F0514B;}
	.st15{fill:#C2B59B;}
	.st16{fill:#FFD137;}
	.st17{fill:#EBAB13;}
	.st18{fill:#935135;}
	.st19{fill:#9DCE72;}
	.st20{fill:#FAD618;}
	.st21{fill:#BE1E2D;}
	.st22{fill:#FDB714;}
	.st23{fill:#B9412E;}
	.st24{fill:#7B2E1F;}
	.st25{fill:#340632;}
	.st26{fill:#6E7326;}
	.st27{fill:#3A5918;}
	.st28{fill:#D7C5B6;}
	.st29{fill:#F48067;}
	.st30{fill:#F37376;}
	.st31{fill:#9C5E45;}
	.st32{fill:#DDB23E;}
	.st33{fill:#F36E29;}
	.st34{fill:#680C00;}
	.st35{fill:#001143;}
	.st36{fill:#ED7C75;}
	.st37{fill:none;}
	.st38{fill:#DC8023;}
	.st39{fill:#841B00;}
	.st40{fill:#D3AD89;}
	.st41{fill:#FFCE3B;}
	.st42{fill:#F47521;}
	.st43{fill:#7B651C;}
	.st44{opacity:0.67;fill:#382D00;}
	.st45{fill:#546B2D;}
	.st46{fill:#92943C;}
	.st47{fill:#B9AA34;}
	.st48{fill:#F15636;}
	.st49{fill:#6D6E71;}
	.st50{fill:#FAAD66;}
	.st51{fill:#297739;}
	.st52{fill:#C4D82E;}
	.st53{opacity:0.67;fill:#5A2D15;}
	.st54{fill:#D8B08D;}
	.st55{fill:#E8AC68;}
	.st56{fill:#DE651E;}
</style>
<g>
	<path class="st3" d="M175,36.6C112.4,36.6,61.5,87.5,61.5,150c0,62.6,50.9,113.5,113.5,113.5c62.6,0,113.5-50.9,113.5-113.5
		C288.5,87.5,237.6,36.6,175,36.6z M244.9,205c-0.1,0-0.3,0.1-0.4,0.1c-1,8.7-7,16-15.5,18.2c-1.1,0.3-2.4,0.3-3.6,0.4
		c-8,15.4-24.1,23.1-55,23.3c-0.2,0-0.5,0-0.7,0c-46.6,0-86.7-36.7-91.5-83.9c-2.7-27.1,1.4-46.3,12.5-58.7c2.4-2.6,5.2-4.9,8.2-6.9
		c1.2-2.7,2.9-5.3,5.2-7.3c3.3-2.8,7.3-4.5,11.6-5c1-4.6,3.4-8.7,7-11.8c4.7-4,10.8-5.7,17.1-4.7c1.2-2.2,2.6-4.1,4.4-5.6
		c6.8-5.9,16.4-6.6,24.2-2.3c4.3-3.4,9.6-5,15-4.6c5.8,0.4,11,3.1,14.7,7.5c0.1,0.1,0.2,0.2,0.2,0.3c8.3-2.9,17.4-0.6,23.2,6.1
		c1.3,1.5,2.3,3.1,3.1,5c6.5-0.1,12.6,2.4,16.9,7.3c2.8,3.2,4.5,7.2,4.9,11.4c6.5,1.8,11.8,6.5,14.3,13c0.1,0.3,0.8,1.7,0.9,2
		c0.1,0.4,0.2,1.1,0.2,1.5c1,3.1,1.1,7,0.2,10.6c0.9,0.7,1.8,1.5,2.6,2.4c4.2,4.9,5.8,11.5,4.4,18.1c-0.2,1-0.5,2.2-0.9,3.3
		c-0.3,0.9-0.5,1.4-0.7,1.8c-0.5,1-0.9,1.9-1.4,2.8c6.5,9,5.1,21.6-3.5,29c-0.7,0.6-1.4,1.1-2.2,1.6C262.7,191,255.9,202,244.9,205z
		"/>
	<path class="st53" d="M175,27.7C107.5,27.7,52.6,82.6,52.6,150c0,67.5,54.9,122.4,122.4,122.4S297.4,217.5,297.4,150
		C297.4,82.6,242.5,27.7,175,27.7z M175,263.6c-62.6,0-113.5-50.9-113.5-113.5c0-62.6,50.9-113.5,113.5-113.5
		c62.6,0,113.5,50.9,113.5,113.5C288.5,212.6,237.6,263.6,175,263.6z"/>
	<path class="st3" d="M210.9,118.9c14.2,16.5,22,37.6,22,59.3c0,13.9-0.9,25.7-3.5,35.3c4.2-2.3,6.7-6.8,6.3-12.1
		c-0.2-2.1,1.1-4,3-4.6c1.3-0.4,2.6-0.4,3.3-0.4c7.3-1.8,11.3-8.7,9.5-15.5c-0.1-0.1-0.6-1.1-0.7-1.2c-0.5-1.1-0.6-2.4-0.2-3.6
		c0.5-1.2,1.4-2.1,2.5-2.5c1.6-0.6,2.7-1.2,3.6-1.9c5.2-4.5,5.9-12.3,1.6-17.6c-1-0.8-1.8-2.1-1.9-3.3c-0.3-1.4,0.1-3.4,1-4.5
		c0.7-0.8,1.3-1.9,2-3.3c0.6-1.6,0.8-2.3,0.9-3c0.5-2.5,0.8-7-2.4-10.7c-0.6-0.7-1.5-1.4-2.7-2.2c-2.3-1.4-3.2-4.2-2.2-6.7
		c1-2.5,1-5.4,0.2-8.3c-0.1-0.2-0.1-0.6-0.2-0.9c-0.1-0.3-0.3-0.6-0.3-0.7c-1.9-5-6-8-10.8-8.4c-1.2-0.1-2.3-0.7-3.1-1.6
		c-0.9-0.9-1.2-2-1.2-3.3c0.2-2.4-0.2-5.8-2.9-8.9C232.2,85,228,83.5,224,84c-1.1,0.1-2-0.1-2.9-0.7l-2.3-1.5
		c-0.9-0.5-1.5-1.3-1.8-2.3c-0.5-1.5-1.2-2.7-2.1-3.7c-3.9-4.6-10.4-5.6-15.9-2.3c-1.8,1-4,0.7-5.5-0.8c-1-1-1.5-2.1-1.8-2.8
		c-2.4-3-5.5-4.6-8.9-4.8c-3.6-0.3-6.7,0.8-9.2,3c-0.1,0.1-0.9,1.3-1,1.5c-1.6,1.9-4.4,2.1-6.2,0.5c-4.8-4.1-11.6-4.1-16.2-0.2
		c-1.2,1-2.2,2.4-3,4.2c-1.2,2.9-4.4,4.4-7.3,3.6c-4.1-1.1-8.2-0.2-11.2,2.4c-3,2.5-3.9,5.7-4.2,7.9c0,0.2-0.2,0.2-0.2,0.4
		c5.4-0.8,11.3-1.3,17.7-1.3C168.4,87.1,193.6,98.7,210.9,118.9z M229,104c8.2,1.9,14.4,8.7,15.4,16.9c0.4,3.6-0.1,7.2-1.6,10.5
		l0.2,1.2c2.6,3,4.3,6.6,4.8,10.6c0.7,6-1.4,11.9-5.8,16.2c-0.9,0.9-2,1.3-3.1,1.3c-1.1,0-2.3-0.4-3.1-1.3c-1.7-1.7-1.7-4.6,0-6.3
		c0.8-0.8,1.3-1.8,1.8-2.8l-8.3-36.9c-0.7-0.3-1.4-0.7-2.2-0.8c-2.4-0.5-3.9-2.9-3.3-5.3C224.3,105,226.7,103.5,229,104z"/>
	<path class="st54" d="M266.1,149.4c0.5-0.9,1-1.8,1.4-2.8c0.2-0.4,0.4-0.9,0.7-1.8c0.4-1.1,0.7-2.3,0.9-3.3
		c1.4-6.7-0.3-13.3-4.4-18.1c-0.8-1-1.7-1.8-2.6-2.4c0.9-3.7,0.8-7.5-0.2-10.6c0-0.4-0.1-1.2-0.2-1.5c-0.1-0.3-0.7-1.7-0.9-2
		c-2.5-6.5-7.8-11.2-14.3-13c-0.5-4.2-2.2-8.2-4.9-11.4c-4.2-4.9-10.3-7.4-16.9-7.3c-0.8-1.8-1.8-3.5-3.1-5
		c-5.7-6.6-14.9-8.9-23.2-6.1c-0.1-0.1-0.2-0.2-0.2-0.3c-3.7-4.4-9-7-14.7-7.5c-5.4-0.4-10.7,1.2-15,4.6c-7.7-4.3-17.3-3.6-24.2,2.3
		c-1.8,1.5-3.2,3.4-4.4,5.6c-6.4-1-12.4,0.7-17.1,4.7c-3.5,3-6,7.2-7,11.8c-4.3,0.5-8.3,2.2-11.6,5c-2.4,2-4,4.6-5.2,7.3
		c6.7-4.5,15.1-7.5,25.1-9.1c0-0.1,0.2-0.2,0.2-0.4c0.3-2.2,1.3-5.4,4.2-7.9c3-2.6,7.2-3.5,11.2-2.4c3,0.8,6.1-0.8,7.3-3.6
		c0.8-1.9,1.7-3.2,3-4.2c4.6-3.9,11.4-3.9,16.2,0.2c1.9,1.6,4.6,1.4,6.2-0.5c0.1-0.1,0.9-1.3,1-1.5c2.6-2.2,5.6-3.3,9.2-3
		c3.4,0.3,6.4,1.8,8.9,4.8c0.3,0.7,0.8,1.8,1.8,2.8c1.4,1.5,3.7,1.8,5.5,0.8c5.5-3.2,12-2.2,15.9,2.3c0.9,1,1.6,2.2,2.1,3.7
		c0.3,0.9,1,1.8,1.8,2.3l2.3,1.5c0.9,0.5,1.7,0.8,2.9,0.7c4-0.4,8.2,1,10.8,4.1c2.6,3.1,3,6.5,2.9,8.9c-0.1,1.3,0.3,2.4,1.2,3.3
		c0.8,0.9,1.9,1.5,3.1,1.6c4.8,0.4,8.8,3.5,10.8,8.4c0,0.1,0.2,0.4,0.3,0.7c0.1,0.3,0.1,0.7,0.2,0.9c0.9,2.9,0.8,5.8-0.2,8.3
		c-1,2.5-0.1,5.4,2.2,6.7c1.3,0.8,2.1,1.4,2.7,2.2c3.2,3.8,2.9,8.2,2.4,10.7c-0.1,0.7-0.3,1.4-0.9,3c-0.6,1.4-1.3,2.5-2,3.3
		c-0.9,1.1-1.4,3.1-1,4.5c0.1,1.2,0.9,2.5,1.9,3.3c4.3,5.3,3.7,13.1-1.6,17.6c-0.9,0.8-2.1,1.3-3.6,1.9c-1.1,0.5-2.1,1.4-2.5,2.5
		c-0.5,1.2-0.4,2.5,0.2,3.6c0.1,0.1,0.6,1.1,0.7,1.2c1.8,6.8-2.2,13.7-9.5,15.5c-0.7,0.1-2,0-3.3,0.4c-1.9,0.6-3.2,2.5-3,4.6
		c0.4,5.2-2.2,9.7-6.3,12.1c-1,3.7-2.3,7.2-4,10.3c1.2-0.1,2.4-0.1,3.6-0.4c8.5-2.3,14.5-9.6,15.5-18.2c0.1,0,0.3-0.1,0.4-0.1
		c11-2.9,17.8-14,15.6-25c0.7-0.4,1.5-1,2.2-1.6C271.2,171,272.6,158.4,266.1,149.4z"/>
	<path class="st55" d="M196.7,195.6l-6,6c-0.5,0.5-0.8,1.2-0.8,1.9c0,0.7,0.3,1.4,0.8,1.9l6,6c1,1,2.7,1,3.7,0l6-6
		c0.5-0.5,0.8-1.2,0.8-1.9c0-0.7-0.3-1.4-0.8-1.9l-6-6C199.4,194.6,197.7,194.6,196.7,195.6z"/>
	<path class="st55" d="M148.5,187.8c-0.1,0-0.1,0-0.2,0l-8.5,0.5c-0.7,0.1-1.3,0.4-1.8,0.9c-0.5,0.5-0.7,1.2-0.6,1.9l0.5,8.5
		c0.1,1.4,1.3,2.5,2.6,2.5c0.1,0,0.1,0,0.2,0l8.5-0.5c1.4-0.1,2.5-1.4,2.4-2.8l-0.6-8.5C151,188.8,149.9,187.8,148.5,187.8z"/>
	<path class="st55" d="M163.9,149.7l-8.2-2.3c-0.2-0.1-0.5-0.1-0.7-0.1c-0.5,0-0.9,0.1-1.3,0.3c-0.6,0.3-1,0.9-1.2,1.6l-2.3,8.2
		c-0.2,0.7-0.1,1.4,0.2,2c0.3,0.6,0.9,1.1,1.6,1.2l8.2,2.3c1.4,0.4,2.8-0.4,3.2-1.8l2.3-8.2C166.1,151.6,165.3,150.1,163.9,149.7z"
		/>
	<path class="st56" d="M210.9,118.9c-17.3-20.2-42.5-31.7-69.1-31.7c-6.5,0-12.3,0.5-17.7,1.3C114.1,90,105.7,93,99,97.6
		c-3,2-5.8,4.3-8.2,6.9c-11.2,12.4-15.3,31.6-12.5,58.7c4.8,47.2,44.9,83.9,91.5,83.9c0.2,0,0.5,0,0.7,0c30.9-0.2,46.9-7.9,55-23.3
		c1.6-3.1,2.9-6.5,4-10.3c2.6-9.6,3.5-21.3,3.5-35.3C232.9,156.4,225.1,135.3,210.9,118.9z M209.6,208.5l-6,6
		c-1.4,1.4-3.2,2.1-5,2.1c-1.8,0-3.6-0.7-5-2.1l-6-6c-2.7-2.8-2.7-7.2,0-10l6-6c2.8-2.8,7.2-2.8,10,0l6,6
		C212.3,201.2,212.3,205.7,209.6,208.5z M134.7,186.2c1.3-1.4,3-2.3,4.9-2.4l8.5-0.5c0.1,0,0.3,0,0.4,0c3.7,0,6.8,2.9,7.1,6.6
		l0.6,8.5c0.2,3.9-2.7,7.3-6.6,7.5l-8.5,0.5c-0.1,0-0.3,0-0.4,0c-3.7,0-6.8-2.9-7.1-6.6l-0.5-8.5
		C132.8,189.5,133.4,187.7,134.7,186.2z M160.9,167.6c-0.6,0-1.3-0.1-1.9-0.3l-8.2-2.3c-1.8-0.5-3.4-1.7-4.3-3.4
		c-0.9-1.7-1.2-3.6-0.6-5.4l2.3-8.2c0.5-1.8,1.7-3.3,3.3-4.3c1.7-0.9,3.6-1.2,5.4-0.7l8.2,2.3c3.8,1.1,6,5,4.9,8.7l-2.3,8.2
		C166.8,165.5,164,167.6,160.9,167.6z"/>
	<path class="st3" d="M193.5,192.5l-6,6c-2.7,2.8-2.7,7.2,0,10l6,6c1.4,1.4,3.2,2.1,5,2.1c1.8,0,3.6-0.7,5-2.1l6-6
		c2.7-2.8,2.7-7.2,0-10l-6-6C200.8,189.7,196.3,189.7,193.5,192.5z M207.2,203.5c0,0.7-0.3,1.4-0.8,1.9l-6,6c-1,1-2.7,1-3.7,0l-6-6
		c-0.5-0.5-0.8-1.2-0.8-1.9c0-0.7,0.3-1.4,0.8-1.9l6-6c1-1,2.7-1,3.7,0l6,6C206.9,202.1,207.2,202.8,207.2,203.5z"/>
	<path class="st3" d="M165.1,145.5l-8.2-2.3c-1.8-0.5-3.7-0.3-5.4,0.7c-1.6,0.9-2.8,2.4-3.3,4.3l-2.3,8.2c-0.5,1.8-0.3,3.7,0.6,5.4
		c0.9,1.7,2.4,2.8,4.3,3.4l8.2,2.3c0.6,0.2,1.3,0.3,1.9,0.3c3.1,0,5.9-2.1,6.8-5.2l2.3-8.2C171,150.4,168.8,146.5,165.1,145.5z
		 M163.4,161.2c-0.4,1.4-1.9,2.3-3.2,1.8l-8.2-2.3c-0.7-0.2-1.2-0.6-1.6-1.2c-0.3-0.6-0.4-1.3-0.2-2l2.3-8.2
		c0.2-0.7,0.6-1.2,1.2-1.6c0.4-0.2,0.9-0.3,1.3-0.3c0.2,0,0.5,0,0.7,0.1l8.2,2.3c1.4,0.4,2.2,1.9,1.8,3.3L163.4,161.2z"/>
	<path class="st3" d="M148.5,183.3c-0.1,0-0.3,0-0.4,0l-8.5,0.5c-1.9,0.1-3.6,1-4.9,2.4c-1.3,1.4-1.9,3.2-1.8,5.1l0.5,8.5
		c0.2,3.7,3.4,6.6,7.1,6.6c0.1,0,0.3,0,0.4,0l8.5-0.5c3.9-0.2,6.8-3.6,6.6-7.5l-0.6-8.5C155.3,186.2,152.2,183.3,148.5,183.3z
		 M149.2,201.5l-8.5,0.5c-0.1,0-0.1,0-0.2,0c-1.4,0-2.6-1.1-2.6-2.5l-0.5-8.5c-0.1-0.7,0.2-1.4,0.6-1.9c0.5-0.5,1.1-0.8,1.8-0.9
		l8.5-0.5c0.1,0,0.1,0,0.2,0c1.4,0,2.5,1.1,2.6,2.5l0.6,8.5C151.8,200.2,150.7,201.4,149.2,201.5z"/>
	<path class="st3" d="M235.7,138c-0.7-0.7-1.1-1.5-1.3-2.5l-0.6-4.1c-0.1-1,0-2,0.5-2.8c1.1-2,1.6-4.3,1.3-6.6
		c-0.5-3.8-2.9-6.9-6.4-8.5l8.3,36.9c1-1.9,1.7-3.9,1.4-6.1C238.6,142,237.5,139.7,235.7,138z"/>
	<path class="st54" d="M227.1,112.7c0.8,0.2,1.5,0.5,2.2,0.8c3.5,1.6,5.9,4.7,6.4,8.5c0.3,2.3-0.2,4.6-1.3,6.6
		c-0.5,0.9-0.6,1.8-0.5,2.8l0.6,4.1c0.2,0.9,0.6,1.8,1.3,2.5c1.8,1.8,2.9,4,3.2,6.4c0.3,2.2-0.4,4.2-1.4,6.1c-0.5,1-1,2-1.8,2.8
		c-1.7,1.7-1.7,4.6,0,6.3c0.9,0.9,2,1.3,3.1,1.3c1.1,0,2.3-0.4,3.1-1.3c4.4-4.4,6.5-10.3,5.8-16.2c-0.5-4-2.1-7.6-4.8-10.6l-0.2-1.2
		c1.5-3.3,2.1-6.9,1.6-10.5c-1-8.2-7.2-15-15.4-16.9c-2.3-0.5-4.8,0.9-5.3,3.3C223.2,109.8,224.7,112.2,227.1,112.7z"/>
</g>
</svg>
