<?xml version="1.0" encoding="utf-8"?>
<!-- Generator: Adobe Illustrator 23.0.1, SVG Export Plug-In . SVG Version: 6.00 Build 0)  -->
<svg version="1.1" id="Layer_1" xmlns="http://www.w3.org/2000/svg" xmlns:xlink="http://www.w3.org/1999/xlink" x="0px" y="0px"
	 viewBox="0 0 350 300" style="enable-background:new 0 0 350 300;" xml:space="preserve">
<style type="text/css">
	.st0{fill:#FFFFFF;}
	.st1{fill:#9C5E45;}
	.st2{fill:#DDB23E;}
	.st3{fill:#F36E29;}
	.st4{fill:#680C00;}
</style>
<g>
	<path class="st0" d="M224.4,134.4l-1.7-3.7c-0.2-0.4-0.3-0.9-0.3-1.4l-2-0.9l-2.4,1.5c-2.1,1.3-4.9,1.3-7,0l-2.1-1.3l-2.2,1.3
		c-0.2,0.1-0.5,0.1-0.7,0.2v13.1h8.1l0.1-6.3c0-1.8,1.5-3.3,3.3-3.3c0,0,0,0,0.1,0c1.8,0,3.3,1.5,3.3,3.4l-0.1,6.2h2.8
		C223.4,140,223.5,136.9,224.4,134.4z"/>
	<path class="st1" d="M217.6,133.7L217.6,133.7c-1.9,0-3.4,1.5-3.4,3.3l-0.1,6.3h6.7l0.1-6.2C220.9,135.3,219.5,133.8,217.6,133.7z"
		/>
	<path class="st0" d="M197,125.4c-0.2-0.4-0.3-0.9-0.3-1.4l-2-0.9l-2.4,1.5c-2.2,1.3-4.9,1.3-7,0l-2.1-1.3l-2.2,1.3
		c-2.1,1.3-4.8,1.3-7,0l-2.4-1.4l-2,0.8v19.4h18.7l0.2-11.7c0-1.8,1.5-3.3,3.3-3.3c0,0,0,0,0.1,0c1.8,0,3.3,1.5,3.3,3.4l-0.2,11.5
		h4.3v-12.9L197,125.4z"/>
	<path class="st1" d="M224.9,123l-1.9-0.8c-2-0.8-4.2-0.7-6.1,0.5l-2.4,1.4l-2.1-1.3c-2.2-1.3-4.9-1.3-7,0l-1.7,1v0.1l-0.4-0.8
		c-0.3-2.4-1.8-4.4-4.1-5.4l-1.9-0.8c-1.9-0.8-4.2-0.7-6.1,0.5l-2.4,1.5l-2.1-1.3c-2.1-1.3-4.8-1.3-7,0l-2.2,1.3l-2.4-1.4
		c-1.8-1.1-4.1-1.3-6.1-0.5l-1.9,0.8c-2.5,1.1-4.1,3.5-4.1,6.2v7.2c1.1,1.8,2.1,3.6,3,5.6c0.9,2.1,1.5,4.3,2.2,6.5h1.4v-19.4l2-0.8
		l2.4,1.4c2.2,1.3,4.9,1.3,7,0l2.2-1.3l2.1,1.3c2.2,1.3,4.9,1.3,7,0l2.4-1.5l2,0.9c0,0.5,0.1,1,0.3,1.4l2.3,5v12.9h6.7v-13.1
		c0.2-0.1,0.5-0.1,0.7-0.2l2.2-1.3l2.1,1.3c2.2,1.3,4.9,1.3,7,0l2.4-1.5l2,0.9c0,0.5,0.1,1,0.3,1.4l1.7,3.7c0.8-2.1,1.8-3.9,3.4-5.1
		c0.3-0.3,0.6-0.6,1-0.8l0.2-0.1C228.7,126,227.2,124,224.9,123z"/>
	<path class="st1" d="M191.9,128.4L191.9,128.4c-1.9,0-3.4,1.5-3.4,3.3l-0.2,11.7h6.7l0.2-11.5C195.2,129.9,193.8,128.4,191.9,128.4
		z"/>
	<path class="st0" d="M73.1,127c-0.1,0.1-0.2,0.2-0.4,0.3c-2.9,1.7-3.9,8.1-2,16.1h4c-1.3-4.4-2.2-8.8-2.1-12.7
		C72.7,129.3,72.9,128.1,73.1,127z"/>
	<path class="st0" d="M93.6,128.7c-1-1.1-1.9-2.3-2.9-3.1c-2.4-1.9-4.7-3-6.5-3c-0.6,0-1.1,0.1-1.5,0.3c-1.9,0.9-3.1,3.8-3.2,7.8
		c-0.1,3.8,0.9,8.1,2.4,12.5h11.5C92.2,137.8,92.3,132.7,93.6,128.7z"/>
	<g>
		<path class="st2" d="M70.8,143.2L70.8,143.2c0,0,0,0.1,0,0.1V143.2z"/>
		<path class="st2" d="M94.7,120.4c-5.3-4.3-10.6-5.5-15-3.5c0,0-0.1,0.1-0.1,0.1l-9.9,4.1c-0.4,0.2-0.8,0.5-1.1,0.8
			c-4.9,3.6-6.5,11.8-4.6,21.3h6.8c-1.9-8-0.9-14.3,2-16c0.1-0.1,0.2-0.2,0.3-0.2c0,0,0,0,0,0c-0.2,1.2-0.4,2.3-0.5,3.6
			c-0.1,3.9,0.8,8.3,2.1,12.7h7c-1.5-4.4-2.6-8.7-2.4-12.5c0.1-4,1.3-7,3.2-7.8c0.5-0.2,1-0.3,1.5-0.3c1.8,0,4.1,1,6.5,3
			c1,0.8,1.9,2.1,2.9,3.1c0.8-2.5,2-4.6,3.7-6.1C96.3,121.9,95.5,121.1,94.7,120.4z"/>
	</g>
	<path class="st0" d="M102,130.6c0-1.3,0.2-2.5,0.5-3.6c-0.1,0.1-0.2,0.2-0.4,0.3c-2.9,1.7-3.9,8.1-2,16.1h4
		C102.8,138.9,101.9,134.5,102,130.6z"/>
	<path class="st0" d="M123.2,128.9c-3.5-3.9-7.1-6.3-9.7-6.3c-0.6,0-1.1,0.1-1.6,0.3c-3.6,1.7-4.5,10.3-1,20.3H123
		C121.9,137.9,122,132.9,123.2,128.9z"/>
	<path class="st2" d="M109.2,117c-0.2,0-0.4,0-0.2,0l-9.9,4.1c-0.4,0.2-0.8,0.5-1.1,0.8c-0.3,0.2-0.4,0.5-0.7,0.7
		c-1.7,1.6-3,3.6-3.7,6.1c-1.2,4-1.3,9-0.2,14.6h6.8c-1.9-8-0.9-14.4,2-16.1c0.1-0.1,0.2-0.2,0.3-0.2c0,0,0,0,0,0
		c-0.2,1.2-0.4,2.3-0.5,3.6c-0.1,3.9,0.8,8.3,2.1,12.7h6.8c-3.5-10-2.6-18.6,1-20.3c0.5-0.2,1-0.3,1.6-0.3c2.6,0,6.2,2.4,9.7,6.3
		c0.8-2.5,2-4.6,3.7-6.1C121,117,114.5,114.6,109.2,117z"/>
	<path class="st0" d="M132.1,127c-0.1,0.1-0.2,0.2-0.3,0.2c-2.9,1.7-3.9,8.1-2,16.1h3.8C131.7,137.2,131.3,131.6,132.1,127z"/>
	<path class="st0" d="M149.7,125.6c-2.4-1.9-4.7-3-6.5-3c-0.6,0-1.1,0.1-1.5,0.3c-3.6,1.7-4.5,10.3-1,20.3h20.6
		c-0.5-1.3-0.7-2.5-1.3-3.8C157.2,133.8,153.5,128.7,149.7,125.6z"/>
	<path class="st2" d="M165.8,136.8c-0.9-2-1.9-3.8-3-5.6c-2.7-4.4-5.8-8.1-9.1-10.7c-5.3-4.3-10.7-5.5-15-3.5
		c-0.1,0-0.2,0.1-0.3,0.2c-0.1,0.1-0.3,0.1-0.4,0.2c0.2-0.1,0.3-0.2,0.5-0.3l-9.9,4.1c-0.4,0.2-0.8,0.5-1.1,0.8
		c-0.3,0.2-0.5,0.5-0.7,0.7c-1.6,1.6-2.9,3.7-3.6,6.2c-1.2,4-1.3,8.9-0.2,14.4h6.8c-1.9-8-0.9-14.4,2-16.1c0.1-0.1,0.2-0.2,0.3-0.2
		c-0.8,4.6-0.4,10.2,1.5,16.3h7c-3.5-10-2.6-18.6,1-20.3c0.5-0.2,1-0.3,1.5-0.3c1.8,0,4.1,1,6.5,3c3.8,3.1,7.5,8.1,10.2,13.9
		c0.6,1.3,0.9,2.5,1.3,3.8h7C167.4,141.2,166.8,139,165.8,136.8z"/>
	<path class="st0" d="M230.3,143.3h1.3c-0.5-2.5-0.8-4.9-0.6-7.2C230.2,137.7,230,140.1,230.3,143.3z"/>
	<path class="st0" d="M247.7,135.5c-1.9-2.1-3.9-3.5-5.4-4.1c-0.6-0.2-1.1-0.3-1.6-0.3c-0.4,0-0.7,0.1-0.9,0.2c-0.6,0.3-1.1,1-1.5,2
		c-0.8,2.1-0.8,5.7,0.2,10h8.7C246.9,140.4,247,137.8,247.7,135.5z"/>
	<path class="st3" d="M244.5,125.2c-2.8-1-5.4-1-7.6,0.1c-0.1,0-0.1,0.1-0.2,0.1l-7.6,3.1l-0.2,0.1c-0.4,0.2-0.8,0.5-1,0.8
		c-1.6,1.2-2.7,3-3.4,5.1c-0.9,2.5-1.1,5.5-0.8,8.9h6.7c-0.4-3.1-0.1-5.4,0.6-7c-0.1,2.1,0.1,4.5,0.6,7h6.8c-1-4.3-1-7.9-0.2-10
		c0.4-1,0.9-1.7,1.5-2c0.3-0.1,0.6-0.2,0.9-0.2c0.5,0,1,0.1,1.6,0.3c1.6,0.6,3.5,2,5.4,4.1c0.7-2.4,1.7-4.5,3.4-5.9
		C248.9,127.7,246.7,126,244.5,125.2z"/>
	<path class="st0" d="M254.4,136.1c-0.8,1.5-1,4-0.7,7.2h1.3C254.6,140.8,254.3,138.4,254.4,136.1z"/>
	<path class="st0" d="M265.7,131.4c-0.6-0.2-1.1-0.3-1.6-0.3c-0.4,0-0.7,0.1-0.9,0.2c-0.6,0.3-1.1,1-1.5,2c-0.8,2.1-0.8,5.7,0.2,10
		h14.4C273,136.7,268.7,132.5,265.7,131.4z"/>
	<path class="st3" d="M282.8,141.3c-3.6-7.9-9.3-14.1-14.7-16.1c-2.8-1-5.4-1-7.6,0.1c-0.1,0-0.1,0.1-0.2,0.1l-7.9,3.1
		c-0.4,0.2-0.8,0.5-1,0.8c-0.1,0.1-0.1,0.2-0.2,0.3c-1.8,1.4-2.8,3.5-3.5,5.9c-0.7,2.3-0.8,4.9-0.5,7.8h6.7c-0.4-3.1-0.1-5.4,0.6-7
		c-0.1,2.2,0.1,4.5,0.6,7.1h6.8c-1-4.3-1-7.9-0.2-10c0.4-1,0.9-1.7,1.5-2c0.3-0.1,0.6-0.2,0.9-0.2c0.5,0,1,0.1,1.6,0.3
		c3,1.1,7.3,5.2,10.6,11.9h7.2C283.2,142.7,283.1,142,282.8,141.3z"/>
	<path class="st4" d="M324.8,173.6l-3.1-12.3c-0.6-2.3-2.9-3.7-5.2-3.1l-24.7,6.3v-17.4c0-2.1-1.7-3.8-3.8-3.8h-4.5h-7.2h-14.4h-6.8
		h-1.3h-6.7h-8.7h-6.8h-1.3h-6.7h-2.8h-6.7H206h-6.7H195h-6.7h-18.7h-1.4h-7h-20.6h-7h-3.8H123h-12.1h-6.8h-4h-6.8H81.8h-7h-4H64h-2
		c-2.1,0-3.8,1.7-3.8,3.8v17.3v0.1l-24.7-6.3c-2.3-0.6-4.6,0.8-5.2,3.1l-3.1,12.3c-0.6,2.3,0.8,4.6,3.1,5.2l29.9,7.6v24
		c0,2.1,1.7,3.8,3.8,3.8h226c2.1,0,3.8-1.7,3.8-3.8v-24l29.9-7.6C324,178.2,325.4,175.9,324.8,173.6z"/>
</g>
</svg>
