<?xml version="1.0" encoding="utf-8"?>
<!-- Generator: Adobe Illustrator 23.0.1, SVG Export Plug-In . SVG Version: 6.00 Build 0)  -->
<svg version="1.1" id="Layer_1" xmlns="http://www.w3.org/2000/svg" xmlns:xlink="http://www.w3.org/1999/xlink" x="0px" y="0px"
	 viewBox="0 0 350 300" style="enable-background:new 0 0 350 300;" xml:space="preserve">
<style type="text/css">
	.st0{fill:#FCE68D;}
	.st1{fill:#4C5E3D;}
	.st2{fill:#A0570A;}
</style>
<g>
	<path class="st0" d="M245,147.6c14.1,1.7,26,10,32.6,21.9h8.4c-7.9-17.3-25.2-29.5-45.4-29.7l3.2,2.6
		C245.4,143.6,245.6,145.7,245,147.6z"/>
	<path class="st0" d="M217.3,153.6c1.4-0.8,2.8-1.6,4.3-2.3c-1.7-1.7-2-4.3-0.5-6.3l1.7-2.1c-3.5,1.3-6.8,2.8-9.9,4.8
		C214.4,149.6,215.9,151.6,217.3,153.6z"/>
	<path class="st0" d="M242,152.3l-4.5,5.7c-1.6,2.1-4.7,2.5-6.8,0.8l-5-4c-2,0.8-4,1.8-5.8,3c1.3,2.1,2.4,4.3,3.5,6.5
		c4.8-3,10.4-4.9,16.5-4.9c9,0,17,3.9,22.7,10h9.4C265.4,159.6,254.5,153,242,152.3z"/>
	<path class="st0" d="M225,167.7c0.2,0.6,0.4,1.2,0.7,1.8H257c-4.7-3.9-10.6-6.3-17.1-6.3C234.4,163.2,229.3,164.9,225,167.7z"/>
	<path class="st0" d="M167.7,126.7l-1.6,0.7c23.1,5,42.1,20.9,51.5,42.1h8c-0.2-0.6-0.4-1.2-0.7-1.8c-0.5-1.2-1.1-2.3-1.6-3.4
		c-1.1-2.2-2.2-4.4-3.5-6.5c-0.8-1.4-1.7-2.9-2.6-4.2c-1.4-2-2.9-4-4.4-5.9c-10.8-13.1-25.7-22.6-42.6-26.9
		C171,123.1,170,125.7,167.7,126.7z"/>
	<path class="st0" d="M83.6,169.5c5.7-13,15-23.9,26.7-31.7l2.2-2.2c1.1-1.1,2.5-1.4,4-1.2c10-5.3,21.2-8.6,33.3-8.8l-3.1-7.3
		c-32.4,1.6-59.7,22.3-71.1,51h8V169.5z"/>
	<path class="st0" d="M150.6,132c-10.2,0-19.7,2.5-28.4,6.6l5.1,5.1c0.1,0.1,0.1,0.3,0.2,0.4c7.1-3,14.9-4.7,23.1-4.7
		c22.1,0,41.2,12.2,51.4,30.1h8.4C199.5,147.4,176.9,132,150.6,132z"/>
	<path class="st0" d="M109.8,155.8l-5.2-5.2c-5.7,5.4-10.3,11.8-13.8,18.9h8.4C102.1,164.4,105.6,159.8,109.8,155.8z"/>
	<path class="st0" d="M150.6,145.5c-8.9,0-17.2,2.4-24.6,6.3l-6.8,6.8c-1.2,1.2-2.9,1.4-4.4,1c-3.3,3-6.3,6.3-8.8,10h9.4
		c8.5-10.1,21-16.6,35.1-16.6c14.2,0,26.7,6.6,35.1,16.6h9.4C185.6,155,169.2,145.5,150.6,145.5z"/>
	<path class="st0" d="M124,169.5h12.7c4.6-2.3,9.6-3.8,15.1-3.8s10.5,1.4,15.1,3.8h12.7c-7.3-6.9-17-11.2-27.8-11.2
		C141.1,158.3,131.3,162.6,124,169.5z"/>
	<path class="st1" d="M313.4,169.5H274h-8h-5.4h-9h-5.3h-30h-7.7H202h-8h-6.6h-9h-5.8h-12.2h-28.8h-12.1h-8.2h-9h-6.6h-8h-6.9h-7.7
		H36.6c-2.1,0-2.8,3.4-0.9,4.5L56,186.3l11.5,20.4h215l11.5-20.4l20.3-12.3C316.2,172.8,315.5,169.5,313.4,169.5z"/>
	<path class="st2" d="M221.6,151.3c0.1,0.1,0.1,0.4,0.3,0.5l3.9,3.1l5,4c2.1,1.6,5.1,1.3,6.8-0.8l4.5-5.7l2.5-3.2
		c0.3-0.4,0.3-1,0.4-1.5c0.6-1.9,0.4-4-1.2-5.3l-3.2-2.6l-5.6-4.5c-2.1-1.6-5.1-1.3-6.8,0.8l-5.3,6.8l-1.7,2.1
		C219.5,146.9,219.9,149.6,221.6,151.3z"/>
	<path class="st2" d="M149.7,125.7l1.2,2.9c1,2.4,3.9,3.6,6.3,2.5l8.8-3.8l1.6-0.7c2.3-1,3.3-3.6,2.5-5.9c0-0.1,0.1-0.3,0-0.4
		l-4.5-10.4c-1-2.4-3.9-3.6-6.3-2.5l-10.4,4.5c-2.4,1-3.6,3.9-2.5,6.3l0.1,0.3L149.7,125.7z"/>
	<path class="st2" d="M104.5,150.5l0.1,0.1l5.2,5.2l2.7,2.7c0.7,0.7,1.5,0.8,2.4,1c1.6,0.4,3.2,0.2,4.4-1l6.8-6.8l1.3-1.3
		c1.8-1.8,1.7-4.5,0.2-6.4c-0.1-0.1-0.1-0.3-0.2-0.4l-5.1-5.1l-2.9-2.9c-0.8-0.8-1.8-1-2.8-1.2c-1.4-0.2-2.9,0.1-4,1.2l-2.2,2.2
		l-5.9,5.9C102.6,145.5,102.6,148.6,104.5,150.5z"/>
</g>
</svg>
