<?xml version="1.0" encoding="utf-8"?>
<!-- Generator: Adobe Illustrator 23.0.1, SVG Export Plug-In . SVG Version: 6.00 Build 0)  -->
<svg version="1.1" id="Layer_1" xmlns="http://www.w3.org/2000/svg" xmlns:xlink="http://www.w3.org/1999/xlink" x="0px" y="0px"
	 viewBox="0 0 350 300" style="enable-background:new 0 0 350 300;" xml:space="preserve">
<style type="text/css">
	.st0{fill:#EEB321;}
</style>
<path class="st0" d="M277.6,202.4c0-4.3-1.9-8.2-4.9-11.2c3.3-7.2,1.5-15.9-4.8-21.2c-0.8-0.7-1.6-1.2-2.4-1.6
	c0.4-5.8-1.9-11.4-6.4-15.2c-2.7-2.3-5.9-3.6-9.4-4l-0.6-0.5c-0.9-3.6-2.9-6.7-5.7-9.1c-3.8-3.2-8.7-4.5-13.7-3.9L228,135
	c-0.8-1-1.6-1.9-2.6-2.7c-5.4-4.5-12.9-5.2-19.2-2.1c-0.2,0.1-0.5,0.1-0.7,0.3c-0.1,0-0.1-0.1-0.2-0.2c-2-1.7-4.4-2.8-6.8-3.4
	c-6.4-1.7-13.4-0.1-18.1,5.1c-7-2.4-14.7-0.5-19.6,5.3c-1.2,1.5-2.2,3.2-2.8,5.1c-5.3,0.1-10.1,2.3-13.4,6.3
	c-2.3,2.8-3.7,6.1-4.1,9.8l-0.8,1c-3.1,1-5.9,2.9-8,5.5c-4.6,5.5-5.4,13.4-2.1,19.8c0.2,1.8,0.9,3.5,1.9,5
	c-5.4,3.4-10.8,6.8-16.5,10L98.6,209c-1.3,0.7-2.9,0.6-4.1-0.3c-0.5-0.4-1.1-0.7-1.8-0.8c-4.4-0.7-7.7-3.9-8.5-8.2
	c-0.4-2.3-0.1-4.6,1.1-6.7c0.4-0.8,0.6-1.7,0.4-2.6l-0.5-2.5c-0.2-0.9-0.7-1.7-1.4-2.3c-1.4-1.1-3.3-3.1-3.8-6.2
	c-0.6-3.2,0.5-6.4,2.9-8.9c1.9-1.9,2.1-4.9,0.5-7c-1-1.3-1.5-2.5-1.8-3.8c-0.9-4.9,2-9.6,6.8-11.4c2-0.7,3-2.9,2.4-4.9
	c-0.1-0.2-0.5-1.2-0.6-1.3c-0.5-2.7,0.1-5.5,1.6-7.7c1.5-2.2,3.9-3.8,7-4.3c0.7,0.1,1.7,0.2,2.9-0.2c1.7-0.4,2.9-2,2.9-3.8
	c0-5.1,3.3-9.3,8.2-10.2c1.1-0.2,2.2-0.2,3.5,0c0.8,0.2,1.7,0,2.5-0.4l2.1-1.1c0.8-0.4,1.4-1.1,1.7-1.9c1.4-3.2,4.1-5.4,7.3-5.9
	c2.5-0.5,5.2,0.1,7.4,1.6c0.8,0.5,2,0.7,2.9,0.6l1.6-0.3c0.9-0.2,1.8-0.7,2.4-1.5c1.1-1.4,3.1-3.3,6.3-3.9c3.7-0.8,7.5,0.8,9.9,3.8
	c1.4,1.8,3.9,2.3,5.9,1.2c1-0.5,1.8-0.9,2.6-1c5.4-1.1,10.5,2.5,11.8,7.8c0.3,1,0.9,1.9,1.9,2.5c0.9,0.5,2,0.6,3.1,0.3
	c0.1,0,0.9-0.4,1.3-0.6c2.7-0.4,5.3,0.2,7.5,1.7c2.3,1.6,3.8,3.9,4.3,6.6c0.1,0.4-0.1,0.8,0,1.3c2.4,0.7,4.7,1.7,6.8,3.4
	c0.1,0,0.1,0.1,0.2,0.2c0.2-0.1,0.5-0.1,0.7-0.3c0.3-2,0.4-4,0-6c-0.9-4.7-3.5-8.9-7.5-11.6c-3.5-2.4-7.7-3.5-11.9-3.1
	c-3.5-7.1-11.4-11.3-19.4-9.8c-0.9,0.2-1.8,0.4-2.7,0.8c-4.2-4-10-5.9-15.7-4.8c-3.6,0.7-6.9,2.4-9.5,5.1c-3.4-1.7-7.3-2.3-11.1-1.6
	c-5.3,1-9.7,4.3-12.3,9c-1.6-0.2-3.2-0.1-4.8,0.2c-7.2,1.3-12.7,7-14.1,14.1c-0.1,0-0.1,0-0.2,0c-4.7,0.9-8.9,3.6-11.6,7.5
	c-2.6,3.7-3.6,8.2-3,12.7c-6.3,3.8-9.8,11.1-8.4,18.5c0.3,1.9,1,3.7,2.1,5.4c-3.3,4.1-4.7,9.2-3.7,14.3c0.7,3.8,2.6,7.3,5.5,9.9
	c-1.4,3.3-1.8,6.8-1.2,10.4c1.3,7.1,6.8,12.7,13.9,14.2c1.9,1.2,4.1,1.9,6.3,1.9c1.9,0,3.8-0.5,5.6-1.4l16.4-9.2
	c6.6-3.7,13-7.5,19.3-11.6l15.8,6.1c28.4,11,58,18,88.2,20.8l16.7,1.6c0.3,0,0.7,0,1,0c3.1,0,6.1-1.3,8.3-3.6c1.9-1.1,3.6-2.5,5-4.2
	C276.6,211.9,278.1,207.2,277.6,202.4z M267.9,210.7c-0.9,1.1-2,1.9-3.3,2.6c-0.5,0.2-0.9,0.6-1.2,1c-0.8,1-2,1.6-3.2,1.4l-16.7-1.6
	c-29.5-2.8-58.5-9.6-86.2-20.4l-17.5-6.8c-1.4-0.5-2.3-1.9-2.4-3.3c0-0.7-0.2-1.3-0.5-1.9c-2.2-3.8-1.9-8.5,0.9-11.8
	c1.4-1.6,3.2-2.8,5.3-3.3c0.8-0.2,1.6-0.7,2.1-1.4l2.3-2.9c0.5-0.7,0.8-1.5,0.8-2.3c0-2.4,0.8-4.6,2.3-6.3c1.9-2.3,4.6-3.5,7.7-3.5
	c0.1,0,0.2,0,0.3,0c3.1,0.2,5.7-1.8,6.5-4.7c0.4-1.3,0.9-2.3,1.6-3.2c3.2-3.8,8.6-4.6,13.1-2c1.8,1.1,4.2,0.5,5.3-1.3
	c0.1-0.1,0.6-1.2,0.6-1.3c3.7-4.3,10.2-4.9,14.7-1c0.4,0.5,0.9,1.4,1.9,2.1c1.4,1.1,3.4,1,4.8-0.1c4-3.3,9.3-3.4,13.1-0.2
	c0.7,0.5,1.2,1.2,1.8,2c0.4,0.7,1.1,1.2,1.8,1.5l3.8,1.5c0.7,0.3,1.5,0.3,2.2,0.2c3.1-0.7,6.1,0.1,8.4,2c2.3,1.9,3.1,4.3,3.4,5.9
	c0.2,0.9,0.6,1.7,1.3,2.3l2.6,2.2c0.7,0.6,1.5,0.9,2.4,0.9c2.3,0.1,4.4,0.9,6.2,2.3c2.9,2.4,4.2,6.2,3.4,10
	c-0.5,2.3,0.7,4.6,2.8,5.4c1.1,0.5,1.9,0.9,2.5,1.4c4.1,3.5,4.8,9.6,1.5,14c-0.6,0.9-0.9,2-0.7,3s0.8,2,1.7,2.6
	c0.1,0.1,0.9,0.5,1.2,0.6c2,1.8,3.3,4.2,3.5,6.9C270.5,205.9,269.6,208.5,267.9,210.7z"/>
</svg>
