<?xml version="1.0" encoding="utf-8"?>
<!-- Generator: Adobe Illustrator 23.0.1, SVG Export Plug-In . SVG Version: 6.00 Build 0)  -->
<svg version="1.1" id="Layer_1" xmlns="http://www.w3.org/2000/svg" xmlns:xlink="http://www.w3.org/1999/xlink" x="0px" y="0px"
	 viewBox="0 0 350 300" style="enable-background:new 0 0 350 300;" xml:space="preserve">
<style type="text/css">
	.st0{fill:#F48067;}
	.st1{fill:#D7C5B6;}
	.st2{fill:#F37376;}
</style>
<g>
	<path class="st0" d="M90.3,102.2v0.8v9.2c0,13.6,11.1,24.8,24.7,24.8h66.8c13.6,0,24.8-11.1,24.8-24.8v-10c0-0.3-0.1-0.7-0.1-1
		c-0.1-3.6-1.1-6.9-2.6-9.9c-4.1-8.1-12.4-13.8-22.1-13.8H115c-10.3,0-19.1,6.3-22.8,15.2C91,95.6,90.3,98.9,90.3,102.2z M115,83.9
		h66.8c10.1,0,18.3,8.2,18.3,18.3v10c0,10.1-8.2,18.3-18.3,18.3H115c-10.1,0-18.3-8.2-18.3-18.3v-10C96.7,92.1,104.9,83.9,115,83.9z
		"/>
	<path class="st1" d="M217.1,231.5h15.3c-2.9-0.3-5.7-1-7.7-2.4C222.7,230.4,220,231.2,217.1,231.5z"/>
	<path class="st2" d="M207,146.4h-35.2c-8.7,0-16.4,3.8-21.9,9.7c-1.1,1.2-2.1,2.3-2.9,3.7c-2.3,3.4-3.8,7.4-4.5,11.6
		c-0.3,1.6-0.5,3.1-0.5,4.8c0,16.4,13.4,29.8,29.8,29.8h56.7c16.4,0,29.8-13.4,29.8-29.8c0-2.3-0.3-4.5-0.8-6.6
		c-0.9-4.1-2.8-7.9-5.3-11.2c-5.4-7.2-14-12-23.7-12h-13.2H207z M251.8,176.2c0,12.9-10.5,23.3-23.3,23.3h-56.7
		c-12.9,0-23.3-10.5-23.3-23.3c0-12.9,10.5-23.3,23.3-23.3h56.7C241.3,152.8,251.8,163.3,251.8,176.2z"/>
	<path class="st2" d="M182.8,183.6L182.8,183.6c-6.3,0-11.4-5.1-11.4-11.4c0-6.3,5.1-11.4,11.4-11.4l0,0c1.8,0,3.2-1.4,3.2-3.2
		s-1.4-3.2-3.2-3.2c-9.8,0-17.9,8-17.9,17.8s8,17.9,17.9,17.9c1.8,0,3.2-1.4,3.2-3.2S184.6,183.6,182.8,183.6z"/>
	<path class="st2" d="M203.9,183.6L203.9,183.6c-6.3,0-11.4-5.1-11.4-11.4c0-6.3,5.1-11.4,11.4-11.4l0,0c1.8,0,3.2-1.4,3.2-3.2
		s-1.4-3.2-3.2-3.2c-9.8,0-17.9,8-17.9,17.8s8,17.9,17.9,17.9c1.8,0,3.2-1.4,3.2-3.2S205.6,183.6,203.9,183.6z"/>
	<path class="st0" d="M118.4,87c-1.8,0-3.2,1.4-3.2,3.2v26.3c0,1.8,1.4,3.2,3.2,3.2s3.2-1.4,3.2-3.2V90.2
		C121.7,88.4,120.2,87,118.4,87z"/>
	<path class="st0" d="M136.8,87c-1.8,0-3.2,1.4-3.2,3.2v26.3c0,1.8,1.4,3.2,3.2,3.2s3.2-1.4,3.2-3.2V90.2
		C140,88.4,138.6,87,136.8,87z"/>
	<path class="st0" d="M155.2,87c-1.8,0-3.2,1.4-3.2,3.2v26.3c0,1.8,1.4,3.2,3.2,3.2s3.2-1.4,3.2-3.2V90.2
		C158.4,88.4,157,87,155.2,87z"/>
	<g>
		<path class="st1" d="M216.2,124.1c0,8.7-3.5,16.5-9.1,22.3h8.3c4.5-6.3,7.3-14,7.3-22.3c0-13.9-7.5-26-18.6-32.8
			c1.3,3,2.2,6.4,2.4,9.9C212.4,107,216.2,115.1,216.2,124.1z"/>
		<path class="st1" d="M252.2,158.4c2.5,3.3,4.3,7.1,5.3,11.2c6.3,5.9,10.3,14.2,10.3,23.4c0,13.5-8.4,25-20.3,29.7
			c0,0.3,0,0.6-0.1,0.9c0-0.3,0.1-0.6,0.1-0.9c0-0.1,0.1-0.1,0.1-0.2c0-1.8-1.4-3.2-3.2-3.2s-3.2,1.4-3.2,3.2c0,0.8-2.6,2.7-7,2.7
			c-3.4,0-6-1.2-6.8-2.4c-0.1-0.2-0.5-0.2-0.6-0.3c-1.2-1.1-2.9-1.1-4.1,0c-0.2,0.2-0.5,0.1-0.6,0.3c-0.8,1.2-3.3,2.4-6.8,2.4
			c-3.5,0-5.7-1.2-6.5-2.1c0.8-0.1,1.6-0.2,2.4-0.4c6.1-1.1,10.3-4.5,10.3-8.9c0-1.8-1.4-3.2-3.2-3.2c-1.8,0-3.2,1.4-3.2,3.2
			c0,0.8-2.6,2.7-7,2.7c-3.4,0-6-1.2-6.8-2.4c-0.1-0.2-0.5-0.2-0.7-0.3c-1.2-1.1-2.9-1.1-4.1,0c-0.2,0.2-0.5,0.1-0.7,0.3
			c-0.8,1.2-3.3,2.4-6.8,2.4c-4.3,0-7-1.9-7-2.7c0-1.8-1.4-3.2-3.2-3.2c-1.8,0-3.2,1.4-3.2,3.2c0,5.2,5.8,9.2,13.4,9.2
			c3.7,0,7-1,9.5-2.6c1,0.7,2.2,1.1,3.4,1.6c0,0,0.1,0,0.1,0c-0.1,0.1-0.1,0.2-0.1,0.3c0,0.9,0.4,1.7,0.7,2.5
			c1.4,3.5,5.5,5.9,10.9,6.4c0.6,0.1,1.2,0.2,1.8,0.2c0.6,0,1.2-0.2,1.8-0.2c2.9-0.3,5.7-1,7.7-2.4c2,1.4,4.7,2.1,7.7,2.4
			c0.6,0.1,1.2,0.2,1.8,0.2c1,0,1.8-0.2,2.7-0.4c4.9-0.4,8.7-2.7,10-5.9c-1.3,3.3-5.2,5.6-10.1,6.2c20.7-0.6,37.3-17.5,37.3-38.3
			C274.2,177.7,265.1,164.6,252.2,158.4z"/>
		<path class="st1" d="M202.6,225H166c-17.7,0-32-14.4-32-32c0-8.3,3.3-15.9,8.5-21.6c0.7-4.2,2.2-8.2,4.5-11.6l0,0
			c0.8-1.3,1.8-2.5,2.9-3.7h-35.6c-17.7,0-32-14.4-32-32c0-8.1,3.1-15.4,8.1-21v-0.8c0-3.4,0.7-6.6,1.9-9.6
			c-9.9,7-16.4,18.4-16.4,31.4c0,21.2,17.3,38.5,38.5,38.5h28.4c-9.2,7-15.2,18-15.2,30.4c0,21.2,17.3,38.5,38.5,38.5h47.5
			C208,231,203.9,228.5,202.6,225z"/>
		<path class="st1" d="M114.2,152.8c3.7,0,7-1,9.5-2.6c2.4,1.7,5.8,2.6,9.5,2.6c7.6,0,13.4-3.9,13.4-9.2c-0.1-1.8-1.5-3.2-3.3-3.2
			c-1.8,0-3.2,1.4-3.2,3.2c0,0.8-2.6,2.7-7,2.7c-3.4,0-6-1.2-6.8-2.4c-0.1-0.2-0.5-0.2-0.6-0.3c-1.2-1.1-2.9-1.1-4.1,0
			c-0.2,0.2-0.5,0.1-0.6,0.3c-0.7,1.2-3.4,2.4-6.8,2.4c-4.3,0-7-1.9-7-2.7c0-1.8-1.4-3.2-3.2-3.2s-3.2,1.4-3.2,3.2
			C100.8,148.8,106.6,152.8,114.2,152.8z"/>
	</g>
</g>
</svg>
