<?xml version="1.0" encoding="utf-8"?>
<!-- Generator: Adobe Illustrator 23.0.1, SVG Export Plug-In . SVG Version: 6.00 Build 0)  -->
<svg version="1.1" id="Layer_1" xmlns="http://www.w3.org/2000/svg" xmlns:xlink="http://www.w3.org/1999/xlink" x="0px" y="0px"
	 viewBox="0 0 350 300" style="enable-background:new 0 0 350 300;" xml:space="preserve">
<style type="text/css">
	.st0{fill:#D7C5B6;}
	.st1{fill:#001143;}
	.st2{fill:#ED7C75;}
</style>
<g>
	<path class="st0" d="M40.8,157.6h0.8c-0.6-1.9-0.8-3.8,0.1-5.7c0.7-1.5,1.8-2.7,3.3-3.5c0.7-0.4,1.2-0.9,1.5-1.6l1.2-2.7
		c0.3-0.7,0.4-1.4,0.2-2.2c-0.4-1.7-0.2-3.5,0.5-5.1c1-2.1,2.9-3.5,5.3-4.1c2.5-0.6,4.3-2.7,4.4-5.2c0-1,0.2-1.9,0.6-2.7
		c1.3-2.7,4-4.3,6.9-4.3c0.8,0,1.5,0.1,2.3,0.3c1.8,0.5,3.7-0.5,4.2-2.3c0-0.1,0.2-1,0.2-1.1c1.9-3.9,6.6-5.5,10.6-3.6
		c0.4,0.4,1,0.9,2,1.3c1.4,0.6,3.1,0.1,4.1-1.2c2.3-3.2,6.2-4.3,9.6-2.7c0.6,0.3,1.1,0.7,1.7,1.1c0.5,0.5,1.1,0.8,1.8,0.9l3.2,0.4
		c0.6,0.1,1.3,0,1.9-0.3c2.2-1.1,4.5-1.1,6.6-0.1c2,1,3.1,2.6,3.6,3.7c0.3,0.7,0.9,1.3,1.6,1.6l2.4,1.2c0.7,0.4,1.5,0.5,2.3,0.3
		c1.7-0.4,3.4-0.2,5,0.5c2.6,1.2,4.3,3.8,4.4,6.7c0.1,2,1.6,3.7,3.5,3.9c0.9,0.1,1.6,0.3,2.1,0.6c3.7,1.8,5.4,6.2,3.8,10
		c-0.4,0.9-0.3,1.9,0.1,2.7c0.4,0.9,1.1,1.5,2,1.8c0.1,0,0.7,0.2,1,0.2c1.8,0.9,3.2,2.5,3.9,4.4c0.7,2,0.6,4.1-0.3,6
		c-0.1,0.1-0.2,0.2-0.2,0.3h0.5c2.4,0,4.4,1.1,5.8,2.8c0-0.1,0.1-0.1,0.1-0.2c1.7-3.5,1.9-7.5,0.6-11.2c-1.1-3.2-3.3-5.9-6.2-7.6
		c1-6.3-2.2-12.7-8.1-15.5c-0.7-0.3-1.3-0.6-2-0.7c-0.9-4.5-3.8-8.4-8-10.4c-2.6-1.2-5.3-1.6-8.2-1.3l-0.4-0.2
		c-1.5-2.6-3.6-4.6-6.3-5.9c-3.6-1.7-7.7-1.8-11.5-0.3l-1.3-0.2c-0.8-0.6-1.6-1.1-2.5-1.5c-5.3-2.5-11.5-1.5-15.8,2.4
		c-7.1-3.3-15.4-0.5-19.1,6.2c-5.8-0.4-11.5,2.7-14.1,8.1c-0.7,1.3-1.1,2.8-1.2,4.4c-4,1.2-7.3,3.9-9,7.6c-1.3,2.6-1.7,5.5-1.2,8.4
		l-0.3,0.7c-2.2,1.5-4,3.5-5.1,5.9c-1.7,3.7-1.7,7.7-0.4,11.3C36.4,158.7,38.5,157.6,40.8,157.6z"/>
	<path class="st1" d="M155.7,160.3c-1.4-1.6-3.4-2.7-5.8-2.7h-0.5H42.1h-0.8c-2.3,0-4.3,1-5.7,2.6s-2.1,3.7-1.8,6
		c3.1,22.2,18,40.6,38.1,48.9l0.1,0.1v10.6h47.3v-10.6v-0.1c20.1-8.3,35-26.7,38.1-48.9C157.7,164,157,161.9,155.7,160.3z"/>
	<path class="st1" d="M308.6,157.7h-40.5v-0.1h-0.2h-50.3h-4.2h-39.3c-4.6,0-8.1,4.1-7.5,8.6c3.7,26.8,24.5,48.1,51,52.7l-0.1,0.2
		v6.8h47.3v-6.8l0.3-0.1c26.5-4.6,47.3-25.9,51-52.7C316.7,161.8,313.2,157.7,308.6,157.7z"/>
	<path class="st2" d="M212.3,132.8l-2.3,9.3c-0.4,1.8,0.7,3.7,2.5,4.1c1.6,0.4,3.3,0.6,4.9,0.6c9.3,0,17.8-6.3,20.1-15.7
		c1.2-4.8,0.6-9.7-1.8-14.1c-1.2-2.3-2.4-5.8-1.5-9.5l2.3-9.3c0.2-0.9,0.1-1.8-0.4-2.6c-0.5-0.8-1.2-1.3-2.1-1.5
		c-11.1-2.7-22.3,4.1-25,15.2c-1.2,4.8-0.5,9.6,1.8,14.1C212,125.5,213.2,129,212.3,132.8z M215.7,110.8c1.5-6.3,7.1-10.5,13.3-10.5
		l-1.4,5.6c-1.1,4.6-0.4,9.5,2.1,14.3c1.5,2.9,1.9,6.1,1.2,9.3c-0.9,3.6-3.1,6.6-6.3,8.5c-2.2,1.3-4.6,2-7,2l1.4-5.6
		c1.1-4.6,0.4-9.5-2.1-14.3C215.3,117.2,214.9,113.9,215.7,110.8z"/>
	<path class="st2" d="M245.6,131.8l-1.9,7.8c-0.4,1.8,0.7,3.7,2.5,4.1c1.4,0.3,2.9,0.5,4.3,0.5c3.2,0,6.4-0.9,9.2-2.6
		c4.1-2.5,6.9-6.4,8.1-11c1-4.1,0.5-8.3-1.5-12.2c-0.9-1.8-1.9-4.6-1.2-7.5l1.9-7.8c0.2-0.9,0.1-1.8-0.4-2.6
		c-0.5-0.8-1.2-1.3-2.1-1.5c-9.6-2.3-19.2,3.5-21.6,13.1c-1,4.1-0.5,8.3,1.5,12.2C245.4,126,246.3,128.8,245.6,131.8z M260.2,121.6
		c0.9,1.6,1.7,4.2,0.9,7.4c-0.7,2.9-2.5,5.3-5,6.8c-1.5,0.9-3.2,1.5-4.9,1.6l1-4c1-4,0.3-8.2-1.8-12.3c-1.2-2.3-1.5-4.9-0.9-7.4
		c1.2-4.7,5.2-8,9.9-8.4l-1,4C257.5,113.3,258.1,117.5,260.2,121.6z"/>
</g>
</svg>
