<?xml version="1.0" encoding="utf-8"?>
<!-- Generator: Adobe Illustrator 23.0.1, SVG Export Plug-In . SVG Version: 6.00 Build 0)  -->
<svg version="1.1" id="Layer_1" xmlns="http://www.w3.org/2000/svg" xmlns:xlink="http://www.w3.org/1999/xlink" x="0px" y="0px"
	 viewBox="0 0 350 300" style="enable-background:new 0 0 350 300;" xml:space="preserve">
<style type="text/css">
	.st0{fill:#D57632;}
	.st1{fill:#FCB445;}
	.st2{fill:#472C12;}
	.st3{fill:#FFFFFF;}
	.st4{fill:#A26239;}
	.st5{fill:#8DC63F;}
	.st6{fill:#414042;}
	.st7{fill:#D79E53;}
	.st8{fill:#EEB321;}
	.st9{fill:#FCE68D;}
	.st10{fill:#4C5E3D;}
	.st11{fill:#A0570A;}
	.st12{fill:#FBB040;}
	.st13{fill:#65BC46;}
	.st14{fill:#F0514B;}
	.st15{fill:#C2B59B;}
	.st16{fill:#FFD137;}
	.st17{fill:#EBAB13;}
	.st18{fill:#935135;}
	.st19{fill:#9DCE72;}
	.st20{fill:#FAD618;}
	.st21{fill:#BE1E2D;}
	.st22{fill:#FDB714;}
	.st23{fill:#B9412E;}
	.st24{fill:#7B2E1F;}
	.st25{fill:#340632;}
	.st26{fill:#6E7326;}
	.st27{fill:#3A5918;}
	.st28{fill:#D7C5B6;}
	.st29{fill:#F48067;}
	.st30{fill:#F37376;}
	.st31{fill:#9C5E45;}
	.st32{fill:#DDB23E;}
	.st33{fill:#F36E29;}
	.st34{fill:#680C00;}
	.st35{fill:#001143;}
	.st36{fill:#ED7C75;}
	.st37{fill:none;}
	.st38{fill:#DC8023;}
	.st39{fill:#841B00;}
	.st40{fill:#D3AD89;}
	.st41{fill:#FFCE3B;}
	.st42{fill:#F47521;}
	.st43{fill:#7B651C;}
	.st44{opacity:0.67;fill:#382D00;}
	.st45{fill:#546B2D;}
	.st46{fill:#92943C;}
	.st47{fill:#B9AA34;}
	.st48{fill:#F15636;}
	.st49{fill:#6D6E71;}
	.st50{fill:#FAAD66;}
	.st51{fill:#297739;}
	.st52{fill:#C4D82E;}
	.st53{opacity:0.67;fill:#5A2D15;}
	.st54{fill:#D8B08D;}
	.st55{fill:#E8AC68;}
	.st56{fill:#DE651E;}
</style>
<g>
	<path d="M88.7,166.2c-4.1,43.7,23.8,85.1,67.7,96.2s88.1-12.1,105.2-52.5L88.7,166.2z"/>
	<path d="M219,185.9c17.1,0,31-13.9,31-31s-13.9-31-31-31c-17.1,0-31,13.9-31,31S201.9,185.9,219,185.9z M219,134.8
		c11.1,0,20.1,9,20.1,20.1c0,11.1-9,20.1-20.1,20.1c-11.1,0-20.1-9-20.1-20.1C198.9,143.8,207.9,134.8,219,134.8z"/>
	<path d="M167.8,116.9c8.4,0,15.2-6.8,15.2-15.2c0-8.4-6.8-15.2-15.2-15.2c-8.4,0-15.2,6.8-15.2,15.2
		C152.6,110.1,159.4,116.9,167.8,116.9z"/>
	<circle cx="118.3" cy="118.8" r="7.5"/>
	<path d="M213.5,72.9c10.5,0,19-8.5,19-19s-8.5-19-19-19c-10.5,0-19,8.5-19,19S203,72.9,213.5,72.9z M213.5,43.1
		c6,0,10.8,4.8,10.8,10.8c0,5.9-4.8,10.8-10.8,10.8c-5.9,0-10.8-4.8-10.8-10.8C202.7,47.9,207.5,43.1,213.5,43.1z"/>
	<path d="M134.6,153.9c6.5-1,12.9,2.8,16.4,9.6c0.6,1.2,1.8,1.9,3,1.9c0.3,0,0.7-0.1,1-0.2c1.6-0.5,2.6-2.1,2.3-3.7
		c-1.1-7.6,2-14.3,7.9-17.2c1.5-0.7,2.2-2.5,1.7-4.1c-0.5-1.6-2-2.6-3.8-2.4c-6.5,1-12.9-2.8-16.4-9.6c-0.8-1.5-2.4-2.2-4.1-1.7
		c-1.6,0.5-2.6,2.1-2.3,3.7c1.1,7.6-2,14.3-7.9,17.2c-1.5,0.7-2.2,2.5-1.7,4.1S132.8,154.2,134.6,153.9z M146.7,139.1
		c2.5,2.2,5.3,3.8,8.4,4.8c-2,2.5-3.4,5.4-4.1,8.6c-2.5-2.2-5.3-3.8-8.4-4.7C144.5,145.3,145.9,142.3,146.7,139.1z"/>
	<path d="M228.7,86.3c0.1-1-0.6-1.9-1.6-2.1c-1-0.2-2,0.3-2.4,1.2c-1.8,4.3-5.5,7-9.5,7c-0.2,0-0.5,0-0.7,0c-1,0.1-1.9,0.6-2.2,1.6
		c-0.2,1,0.3,2,1.2,2.4c4,1.7,6.3,5.9,5.9,10.8c-0.1,1,0.6,1.9,1.6,2.1c0.2,0,0.3,0.1,0.5,0.1c0.8,0,1.5-0.5,1.9-1.3
		c1.8-4.3,5.5-6.9,9.4-6.9c0.3,0,0.7,0,0.9,0c0.9,0,1.8-0.6,2-1.6c0.2-1-0.3-2-1.2-2.4C230.6,95.5,228.3,91.3,228.7,86.3z
		 M228.4,97.7c-2,0.7-3.9,2-5.5,3.6c-0.6-2.2-1.7-4.1-3.2-5.7c2-0.7,3.9-2,5.5-3.6C225.9,94.2,227,96.1,228.4,97.7z"/>
</g>
</svg>
