<?xml version="1.0" encoding="utf-8"?>
<!-- Generator: Adobe Illustrator 23.0.1, SVG Export Plug-In . SVG Version: 6.00 Build 0)  -->
<svg version="1.1" id="Layer_1" xmlns="http://www.w3.org/2000/svg" xmlns:xlink="http://www.w3.org/1999/xlink" x="0px" y="0px"
	 viewBox="0 0 350 300" style="enable-background:new 0 0 350 300;" xml:space="preserve">
<style type="text/css">
	.st0{fill:#FBB040;}
	.st1{fill:#65BC46;}
	.st2{fill:#F0514B;}
</style>
<g>
	<path d="M249,135.3c-0.1-0.1-0.1-0.2-0.2-0.3C248.8,135.1,248.8,135.2,249,135.3C249,135.2,249,135.3,249,135.3z"/>
	<path class="st0" d="M98.2,155.2c-0.2-2-0.3-4-0.1-5.8c1-6.8,5.4-12.3,11.3-15.2c9.8-15.4,24.8-27.6,43.7-33.2
		c18-5.3,36.4-3.8,52.4,3c1.8-0.2,3.6-0.3,5.5,0c5.6,0.8,10.4,4,13.6,8.5c3.8,0.8,7.3,2.3,10.5,4.4c-21.1-21.3-53-30.7-83.8-21.6
		c-31,9.2-52.7,34.8-58.6,64.5C94.5,158,96.3,156.5,98.2,155.2z"/>
	<path class="st1" d="M237.4,118.1c4.8,3.6,8.7,8.7,10.8,14.8C247,126.5,243.1,121,237.4,118.1z"/>
	<path d="M154.2,104.1c0.6-0.1,1.1-0.2,1.7-0.3C155.3,103.8,154.7,104,154.2,104.1z"/>
	<path class="st1" d="M211.1,103.9c-1.8-0.3-3.7-0.2-5.5,0c-2.3,0.3-4.6,0.9-6.7,1.9l-2.1-0.3c-3.1-3.2-7.1-5.2-11.4-5.8
		c-5.8-0.9-11.6,0.9-16.1,4.7l-1.2,0.2c2.6,0.7,5,1.6,7.3,2.9c2.8-1.6,5.9-2.2,9-1.8c3.3,0.5,6.3,2.1,8.6,4.7c0.5,0.5,1.1,0.9,1.8,1
		l4.1,0.7c0.7,0.1,1.4,0,2-0.4c2.8-1.6,6-2.2,9.2-1.8c1.8,0.3,3.5,1,5,1.9c3.2-0.3,6.4-0.1,9.5,0.6
		C221.5,107.9,216.7,104.7,211.1,103.9z"/>
	<path class="st1" d="M250,142c6.5,2.3,10.8,8.7,9.7,15.7c-0.1,0.4-0.4,0.8-0.5,1.3c1.4,2.3,2.7,4.6,3.9,7v-0.1
		c1.3-2.3,2.2-4.7,2.6-7.3c0.4-3.1,0.2-6.1-0.6-8.9c-2.1-7.2-8.2-13-16-14.5H249C249.5,137.5,249.8,139.8,250,142z"/>
	<path class="st1" d="M95,210.2c-1.5-1.6-2.6-3.4-3.2-5.5c-0.2-0.8-0.4-1.7-0.5-2.6c-2-2.4-3.6-5.3-4.8-8.3c-0.5,1.3-1,2.5-1.2,3.9
		c-1.3,8.4,2.7,16.5,10.1,20.8c0.1,0.2,0.3,0.3,0.5,0.5C95.4,216,95.1,213.1,95,210.2z"/>
	<path class="st1" d="M118.5,138.1c1.7,0,3-1.4,3-3c0-0.5-0.1-0.9-0.2-2.1c0.6-3.9,2.6-7.3,5.8-9.6c1.3-0.9,2.7-1.5,4.1-2
		c1.2-2.5,2.8-4.8,4.6-6.9c-4.4,0-8.7,1.3-12.3,4c-4.4,3.3-7.3,8.1-8.1,13.6c0,0.1,0,0.2,0,0.2c-2.1,0.3-4,1-5.8,1.9
		c-6,2.9-10.3,8.4-11.3,15.2c-0.3,1.8-0.2,3.8,0.1,5.8c1.9-1.3,3.9-2.3,6.1-3.2c0-0.6-0.2-1.2-0.1-1.8
		C105.2,143.3,111.2,138.2,118.5,138.1z"/>
	<path class="st2" d="M91.2,202.1c1.1,1.3,2.3,2.4,3.6,3.6c0-2.9,0.1-5.7,0.3-8.6c-1.8-2.4-3.2-5-4.1-8
		c-4.1-13.7,3.8-28.2,17.5-32.3c0.2-0.1,0.4-0.1,0.7-0.1c1.6-2.4,3.2-4.7,5-6.9c-2.5,0.1-4.9,0.5-7.4,1.2c-0.9,0.3-1.7,0.7-2.5,1
		c-2.2,0.9-4.2,1.9-6.1,3.2c-2,1.3-3.8,2.8-5.4,4.5c-7.6,8-11,19.8-7.6,31.1c0.3,1.1,0.8,2,1.2,3C87.7,196.9,89.2,199.7,91.2,202.1z
		"/>
	<path class="st2" d="M168.1,104.6c-3.9-1-8.1-1.4-12.2-0.8c-0.6,0.1-1.1,0.2-1.7,0.3c-1.1,0.2-2.3,0.3-3.4,0.6
		c-6,1.8-11.1,5.3-15,9.7c-1.8,2.1-3.4,4.4-4.6,6.9c-2.2,4.5-3.3,9.5-3.3,14.6c2-1.6,4.2-3.2,6.3-4.6c1.6-9.5,8.3-17.9,18.2-20.8
		c9.2-2.7,18.7,0,25.2,6.1c2.6-0.2,5.3-0.2,7.9-0.2c-2.8-3.7-6.2-6.8-10.2-9.1C173.1,106.2,170.7,105.3,168.1,104.6z"/>
	<path class="st2" d="M224.7,112.4c-3.1-0.7-6.3-0.9-9.5-0.6c-2.6,0.2-5.2,0.7-7.7,1.6c-3,1-5.7,2.6-8.2,4.5c2.9,0.5,5.8,1.2,8.6,2
		c0.6-0.2,1.1-0.6,1.6-0.8c13.5-4.7,28.4,2.5,33.1,16c0.6,1.7,1,3.3,1.2,5c2.1,2,4.2,4.1,6.1,6.3c0.1-1.4,0.1-2.9,0-4.4
		c-0.1-2.3-0.4-4.5-1-6.8c0-0.1,0-0.2-0.1-0.3c0-0.1,0-0.3-0.1-0.4c-0.1-0.5-0.3-1-0.5-1.4c0-0.1-0.1-0.2-0.1-0.2
		c-2.2-6.1-6-11.1-10.8-14.8c-0.7-0.5-1.4-0.9-2.1-1.3C232,114.7,228.5,113.2,224.7,112.4z"/>
	<path class="st0" d="M259.2,159c-2.7-4.5-5.8-8.7-9.3-12.6c-1.9-2.2-4-4.3-6.1-6.3c-10.3-9.5-22.6-16.5-36-20.3
		c-2.8-0.8-5.7-1.5-8.6-2c-4.5-0.8-9-1.2-13.6-1.3c-2.6-0.1-5.3,0-7.9,0.2c-6.5,0.4-13,1.5-19.4,3.4c-8.7,2.6-16.7,6.5-24,11.3
		c-2.2,1.5-4.3,3-6.3,4.6c-5.1,4.1-9.7,8.7-13.7,13.8c-1.8,2.2-3.4,4.5-5,6.9c-7.8,12-12.8,25.8-14.1,40.5c-0.3,2.8-0.4,5.7-0.3,8.6
		c0,1.5,0.1,3,0.2,4.5c0.2,2.9,0.5,5.8,0.9,8.7c0.1,0.5,0.1,1,0.2,1.5c0.6,3.4,2.6,6.3,5.5,8.1c2.8,1.8,6.3,2.2,9.5,1.3l146.6-43.5
		c3.2-0.9,5.9-3.2,7.3-6.3c1.3-2.7,1.5-5.7,0.6-8.5c-0.1-0.4-0.3-0.9-0.5-1.3c-0.6-1.5-1.4-2.8-2-4.2
		C261.9,163.6,260.6,161.3,259.2,159z M259.5,172.7c0.6,1.6,0.6,3.3-0.1,4.9c-0.7,1.5-1.9,2.6-3.5,3L109.4,224
		c-1.6,0.5-3.2,0.2-4.6-0.6c-1.2-0.8-2.1-2-2.6-3.4c-0.1-0.2-0.1-0.4-0.2-0.7c-7.2-41.3,17.7-81.5,58-93.4S243.1,134.1,259.5,172.7z
		"/>
	<path class="st0" d="M132.2,200.4c2.1-0.6,3.3-2.8,2.7-4.9s-2.8-3.3-4.9-2.7c-2.1,0.6-3.3,2.8-2.7,4.9
		C127.9,199.8,130.1,201,132.2,200.4z"/>
	<path class="st0" d="M144.3,179.1c2.1-0.6,3.3-2.8,2.7-4.9c-0.6-2.1-2.8-3.3-4.9-2.7c-2.1,0.6-3.3,2.8-2.7,4.9
		C140,178.5,142.2,179.7,144.3,179.1z"/>
	<path class="st0" d="M206,168.9c0.6,2.1,2.8,3.3,4.9,2.7c2.1-0.6,3.3-2.8,2.7-4.9s-2.8-3.3-4.9-2.7S205.4,166.8,206,168.9z"/>
	<path class="st0" d="M182.2,190.1c-0.6-2.1-2.8-3.3-4.9-2.7c-2.1,0.6-3.3,2.8-2.7,4.9s2.8,3.3,4.9,2.7
		C181.6,194.4,182.8,192.2,182.2,190.1z"/>
	<path class="st0" d="M173.4,149.3c0.6,2.1,2.8,3.3,4.9,2.7c2.1-0.6,3.3-2.8,2.7-4.9s-2.8-3.3-4.9-2.7
		C174,145,172.8,147.2,173.4,149.3z"/>
</g>
</svg>
