<?xml version="1.0" encoding="utf-8"?>
<!-- Generator: Adobe Illustrator 23.0.1, SVG Export Plug-In . SVG Version: 6.00 Build 0)  -->
<svg version="1.1" id="Layer_1" xmlns="http://www.w3.org/2000/svg" xmlns:xlink="http://www.w3.org/1999/xlink" x="0px" y="0px"
	 viewBox="0 0 350 300" style="enable-background:new 0 0 350 300;" xml:space="preserve">
<style type="text/css">
	.st0{fill:none;}
	.st1{fill:#DC8023;}
	.st2{fill:#841B00;}
</style>
<g>
	<polygon class="st0" points="182.5,179.6 182.2,179.4 182.1,179.6 	"/>
	<g>
		<polygon class="st1" points="176.7,176.8 175.4,179.6 180.6,179.6 180.9,179.6 182.1,179.6 182.2,179.4 		"/>
		<path class="st1" d="M137.6,157.9c-0.5-0.3-0.8-0.7-1.3-1l-6,12.4l-7-12.2c-1.3-2.2-3.4-3.8-5.8-4.5c-2.5-0.7-5.1-0.3-7.3,1
			l-27.6,16c-3.6,2.1-5.3,6.2-4.5,10.1h6.1v-0.1c-1-1.7-0.4-3.9,1.3-4.8l27.6-16c0.8-0.5,1.8-0.6,2.7-0.4c0.9,0.2,1.7,0.8,2.2,1.7
			l11.3,19.5h7l-2.3-4l-0.1-0.1l7.7-15.7L137.6,157.9z"/>
	</g>
	<path d="M131.5,233v-0.2h-2.6C129.7,232.8,130.6,233,131.5,233z"/>
	<path d="M163.8,233c0.9,0,1.8-0.1,2.7-0.2h-2.6L163.8,233z"/>
	<path class="st2" d="M213.1,194.3h-35.8v0.1h-62.4H68.3c-1.7,0-3-1.4-3-3c0-1.6,1.4-3,3-3H114l0-0.1l0,0h64.8h21.8l-18.1-8.7h-0.4
		L78,179.7H63.9c-5.7,0-10.1,3.5-9.3,7.4c4.6,23,30.5,41.2,63.5,45.2v8h59v-8.1v-0.1c24.3-2.9,44.7-13.6,55.7-28.2L213.1,194.3z"/>
	<path class="st2" d="M271,108.5c-0.4-1.7,0.4-3.5,1.9-4.4l18.7-11c2.8-1.6,2.6-5.7-0.3-7.1l-53.4-25.9c-2.9-1.4-6.2,1-5.7,4.2
		l3,21.4c0.2,1.7-0.7,3.4-2.3,4.2L136.3,135c-1.5,0.7-2.7,1.7-3.7,3.1c-4.4,6.2-2.4,14.5,3.8,18.6c0.5,0.3,0.8,0.8,1.3,1l4,1.9
		l35.1,17l5.4,2.6l0.3,0.2l18.1,8.7l12.5,6.1l19.7,9.6l43.7,21.2c7.5,3.6,16.4-0.4,18.6-8.4l0.1-0.3c0.4-1.5,0.5-3.1,0.1-4.6
		L271,108.5z M184.3,120.5c0.7-1.5,2.5-2.2,4-1.4l86.5,41.9c1.5,0.7,2.1,2.5,1.4,4c-0.5,1.1-1.6,1.7-2.7,1.7c-0.4,0-0.9-0.1-1.3-0.3
		l-86.5-41.9C184.2,123.8,183.5,122,184.3,120.5z M178.2,128.6l5,14.3l14.1-4.9l4.9,14l14.2-5l5,14.3l14.1-4.9l4.9,14l14.2-5l5,14.2
		l14.1-4.9l5.2,14.8l-19.9-9.6h0.1l-18.4-8.9l0.1,0.2l-19.9-9.6l0.1-0.1l-18.5-8.9l0.1,0.2l-19.9-9.6l0.2-0.1l-19.3-9.3L178.2,128.6
		z M287.2,209c-0.5,1.1-1.6,1.7-2.7,1.7c-0.4,0-0.9-0.1-1.3-0.3l-139.5-67.6c-1.5-0.7-2.1-2.5-1.4-4c0.7-1.5,2.5-2.1,4-1.4
		L285.8,205C287.3,205.7,288,207.5,287.2,209z"/>
</g>
</svg>
