<?xml version="1.0" encoding="utf-8"?>
<!-- Generator: Adobe Illustrator 23.0.1, SVG Export Plug-In . SVG Version: 6.00 Build 0)  -->
<svg version="1.1" id="Layer_1" xmlns="http://www.w3.org/2000/svg" xmlns:xlink="http://www.w3.org/1999/xlink" x="0px" y="0px"
	 viewBox="0 0 350 300" style="enable-background:new 0 0 350 300;" xml:space="preserve">
<style type="text/css">
	.st0{fill:#FFCE3B;}
	.st1{fill:#F47521;}
	.st2{fill:none;}
	.st3{fill:#D3AD89;}
</style>
<g>
	<path class="st0" d="M254.1,128.9C254.1,128.9,254,128.8,254.1,128.9C254,128.9,254.1,128.9,254.1,128.9z"/>
	<path class="st0" d="M287.1,146.8c0.6-3.7,0.8-7.5,0.4-11.3c0.1-0.1,0-0.2,0-0.2c1.5-5.6,2.2-12.8-0.1-20.2
		c-2.7-8.8-8.9-15.7-18.3-20.5c-0.9-0.4-2.2-1-3.2-1.4c-7.8-2.7-16.3-2.6-24,0.4c-0.3,0.1-0.7,0.2-1,0.2c-0.5-0.1-0.9-0.2-1.4-0.2
		c-10.3-4.9-20.3-3.9-32.7,3.4c-7.8,4.6-13.2,11.3-15.3,18.9c-2.4,8.9-1.3,18.1,3.2,26c-3.8,18.2,7.5,36.4,25.7,40.8
		c4.1,1,8.4,1.2,12.8,0.6c1.3-0.2,2.5,0,3.6,0.6c7.2,4,15,5,23.3,3.2c1.6-0.4,3-1,4.5-1.6c8.9-3.2,16.1-9.4,19.9-17.5
		c0.2-0.4,0.5-0.7,0.6-1.1C287.9,160.5,288.5,153.6,287.1,146.8L287.1,146.8z M242.1,186.1c-0.5-0.1-0.9-0.3-1.3-0.6
		c-0.2-0.2-0.5-0.4-0.7-0.5C241.2,185.6,242,186.1,242.1,186.1c0.2,0,0.3,0,0.4,0C242.3,186.1,242.2,186.1,242.1,186.1z M268.4,152
		c-0.6,2.3-1.9,4.1-3.5,5.7c6.4-1.5,11.3-4.9,14.9-8.9c1,5.1,0.5,10.3-1.5,15.1c-3.3,7.9-10.7,13.8-19.7,15.9
		c-4.8,1.1-9.2,0.9-13.5-0.5c0.2,0.2,0.4,0.3,0.6,0.5c-0.2-0.2-0.3-0.3-0.5-0.4c-0.3-0.2-2-1.5-4.1-3.7c-4.7-4.9-11.1-14.4-7.6-27
		c0.4-1.6,0.8-3.2,1.6-4.9c0.9-1.9,0.1-4.1-1.8-5c-1.8-0.8-4.1-0.1-5,1.8c-6.7,14.3-2.6,26.7,3.4,35.3c0.2,0.3,0.4,0.6,0.5,0.9
		c-0.2-0.3-0.4-0.6-0.6-0.9c-3.2,0.4-6.3,0.2-9.3-0.5c-14.6-3.6-23.5-18.3-19.8-33.2l0.2-0.9c0,0,0,0,0,0c0.1-0.1,0.2-0.1,0.2-0.2
		c0.2-0.3,1.3-2.3,3.2-4.7c3.9-5.2,11.6-12.6,23.1-12.1c0.8-2.9,2.6-5.2,4.9-6.8c-16.7-2.7-28.8,7-34.9,15.5v-0.1
		c-1.5-4.9-1.7-10-0.3-15c1.6-5.7,5.8-10.8,11.9-14.4c9.3-5.6,15.8-6,20.8-4.8c1.8,0.4,3.4,1.1,4.8,1.8c0.7,0.3,1.4,0.3,2.2,0.5
		v-0.1c0,0,0,0.1,0.1,0.1c0.2,0.1,2.4,1,5,2.8c3.5,2.4,7.7,6.5,9.3,12.6c1.3-2.7,3.3-4.7,5.9-5.9c-2.2-4.8-5.4-8.5-8.9-11.4
		c4.5-0.8,9-0.5,13.4,1.1c0.7,0.2,1.6,0.7,2.3,1c7.5,3.8,12.4,9.2,14.5,16c1.9,6.2,1.1,12.3-0.2,16.8l-0.2,0.3
		c-0.2,0.3-1,2.5-2.5,5.2c-1.8,3-4.6,6.5-8.8,8.9C268.6,149.6,268.7,150.8,268.4,152z"/>
	<path class="st1" d="M267.1,109.5c-2.8-0.7-5.6-0.2-8.1,0.9c-2.6,1.4-4.7,3.4-5.9,6c-0.3,0.6-0.7,1.2-0.9,1.8
		c0,0.2-0.2,0.3-0.2,0.5c-0.2,0.8-0.1,1.6-0.1,2.3c0,0.1,0,0.1,0,0.2c-1.7-2.9-4.4-5-7.8-5.8c-3.6-0.9-7.2,0-10,2
		c-2.3,1.6-4.1,3.9-4.9,6.8c0,0.1-0.1,0.2-0.1,0.3c-0.1,0.4,0,0.8-0.1,1.3c-0.8,6.2,2.9,12.3,9.2,13.8c6.7,1.6,13.4-2.5,15.1-9.1
		c0.2-0.8,0.1-1.6,0.1-2.3V128c0.2,0.3,0.4,0.5,0.6,0.7l0.1,0.1c1.7,2.3,4,4.2,7,4.9c6.7,1.6,13.4-2.5,15.1-9.1
		C277.8,117.9,273.7,111.2,267.1,109.5z M246,128.6c-0.7,2.7-3.4,4.3-6,3.6c-2.6-0.6-4.3-3.3-3.6-6c0.7-2.7,3.3-4.3,6-3.6
		C245.1,123.3,246.7,125.9,246,128.6z M268.8,122.9c-0.6,2.6-3.3,4.3-6,3.6c-2.6-0.6-4.3-3.3-3.6-6c0.7-2.6,3.4-4.2,6-3.6
		C267.8,117.5,269.5,120.2,268.8,122.9z"/>
	<path class="st1" d="M268.3,152c0.3-1.2,0.2-2.4,0.1-3.6c0-0.9-0.2-1.7-0.4-2.5c-1.1-4.2-4.3-7.8-8.9-8.9
		c-6.7-1.6-13.4,2.5-15.1,9.1c-1.6,6.7,2.5,13.4,9.1,15c4.4,1.1,8.6-0.5,11.6-3.4C266.4,156.1,267.7,154.3,268.3,152z M257.3,144.2
		c2.6,0.6,4.3,3.3,3.6,6c-0.6,2.6-3.3,4.3-6,3.6s-4.3-3.3-3.6-6C252,145.2,254.7,143.6,257.3,144.2z"/>
	<g>
		<path class="st2" d="M189.2,175.4c-0.2-1.6-0.5-3.1-0.9-4.6c-7.6-9.9-14.4-22-18.8-34.1c-0.8-2.1-1.5-4.2-2.1-6.3
			c-0.4-0.5-0.9-0.9-1.3-1.4c-6.6-6.5-15.3-9.5-25.9-9.2c-1,0-2.4,0.1-3.4,0.3c-8.1,1.4-15.6,5.5-20.9,11.9
			c-0.6,0.7-1.4,1.1-1.9,1.2c-11.4,0.5-19.8,6.3-27.1,18.7c-4.6,7.8-6.1,16.3-4.3,23.9c2.1,8.9,7.6,16.4,15.3,21.3
			c5.4,17.8,24.1,28.2,42.2,23.4c4.1-1.1,8-3,11.5-5.6c1-0.8,2.2-1.2,3.5-1.2c8.3,0,15.6-2.9,22.1-8.1c0.1-0.1,0.1-0.1,0.2-0.2
			c1-1.3,1.9-2.6,2.8-4c6.2-7,9.5-15.9,8.9-24.9C189.1,176.1,189.2,175.7,189.2,175.4z"/>
		<path class="st2" d="M56.4,157.3c2.3-12.5,15-24,35-31.5c3.5-1.3,7.2-2.5,10.9-3.5c15.2-4.1,31.4-5.3,43.5-3.1
			c7.6,1.4,14.7,4.3,20.9,8.6c0-0.1-0.1-0.2-0.1-0.4c-6.2-4.3-13.3-7.2-20.9-8.6c-12.1-2.2-28.3-1-43.5,3.1c-3.7,1-7.4,2.2-10.9,3.5
			c-20,7.5-32.7,19-35,31.5c-0.7,3.9-0.4,8.1,0.8,12.4C55.9,165.2,55.7,161.1,56.4,157.3z"/>
		<path class="st2" d="M186.4,136.8c6.7,9.8,10.4,21.1,10.8,32.8c3.2,3.8,6.5,7.1,9.8,9.8c11.1,9,25,13.2,39.2,11.7
			c6.6-0.6,12.8-2.6,18.7-5.6c8.8-3.2,16-9.5,19.8-17.6c7.1-10.4,10.5-22.8,9.2-35.5c-1.5-14.3-8.4-27-19.5-36
			c-9.6-7.7-24.4-14.5-39.7-18.2c-3.8-0.9-7.6-1.7-11.3-2.2c-21.1-3.1-37.8,0.8-45.8,10.7c-6.5,8.1-8,21-4.4,36.3
			C178.2,126.8,182.7,131.5,186.4,136.8z"/>
		<path class="st2" d="M180.2,141.3c3.1,4.5,5.4,9.3,6.9,14.3c0,0,0,0,0,0.1c-1.5-5.2-3.9-10.2-7.1-14.8c-0.5-0.8-1.1-1.6-1.7-2.3
			c0.1,0.2,0.2,0.4,0.2,0.6C179.2,139.9,179.7,140.6,180.2,141.3z"/>
		<path class="st3" d="M176.1,146.9c0-0.1-0.1-0.2-0.2-0.3c-1.3-5.1-3.8-11.2-8.5-16.3c0.6,2.1,1.3,4.2,2.1,6.3
			c4.4,12.1,11.2,24.2,18.8,34.1c-1.3-5.1-3.7-9.8-7.1-13.7C179.9,153.5,178.3,150.1,176.1,146.9z"/>
		<path class="st3" d="M187.3,156c0-0.1-0.1-0.2-0.1-0.4c0,0,0,0,0-0.1C187.2,155.7,187.2,155.9,187.3,156z"/>
		<path class="st3" d="M301.3,131.7c-1.7-16.2-9.6-30.8-22.2-41c-12.9-10.5-34.4-19.1-54.6-22c-24.2-3.5-42.9,1.3-52.7,13.5
			c-7,8.6-9.4,20.7-7.3,35.2c-5.4-2.8-11.2-4.8-17.3-5.9c-16.4-3-39.3-0.2-58.5,6.9c-22.8,8.6-37,21.8-39.7,37.2
			c-2.8,15.4,5.8,32.7,24.2,48.8c15.4,13.5,35.9,24.1,52.3,27.1c9.1,1.7,18.1,1.2,26.5-1.1c22.1-5.9,40-24.1,44.3-48
			c0.1-0.7,0.2-1.4,0.3-2.1c1.9,1.9,3.8,3.7,5.7,5.2c7.2,5.8,15.3,9.8,23.8,11.8c22.2,5.4,46.6-1.9,61.9-20.8
			C298.2,163.8,303,147.9,301.3,131.7z M189.2,175.4c0,0.3,0,0.7-0.1,1c0.6,9-2.7,17.9-8.9,24.9c-0.9,1.4-1.8,2.7-2.8,4
			c-3,3.9-6.6,7.2-10.7,10.1c-11.7,8.1-25.9,11.2-40,8.6c-15.1-2.7-34.2-12.7-48.7-25.3c-11.1-9.6-18.2-19.8-20.9-29.4
			c-1.2-4.3-1.5-8.5-0.8-12.4c2.3-12.5,15-24,35-31.5c3.5-1.3,7.2-2.5,10.9-3.5c15.2-4.1,31.4-5.3,43.5-3.1
			c7.6,1.4,14.7,4.3,20.9,8.6c4.4,3.1,8.4,6.8,11.8,11.2c0.6,0.8,1.2,1.5,1.7,2.3c3.2,4.6,5.5,9.6,7.1,14.8c0,0.1,0.1,0.2,0.1,0.4
			C189.1,162.3,189.7,168.8,189.2,175.4z M284.7,167.9c-3.8,8.1-11,14.4-19.8,17.6c-5.9,3-12.1,5-18.7,5.6
			c-14.2,1.5-28.1-2.7-39.2-11.7c-3.3-2.7-6.6-6-9.8-9.8c-0.4-11.6-4.1-23-10.8-32.8c-3.7-5.3-8.2-10-13.2-13.8
			c-3.6-15.3-2.2-28.2,4.4-36.3c8-9.9,24.7-13.8,45.8-10.7c3.7,0.5,7.5,1.3,11.3,2.2c15.3,3.7,30.1,10.5,39.7,18.2
			c11.1,9,18,21.7,19.5,36C295.2,145.1,291.8,157.5,284.7,167.9z"/>
	</g>
	<path class="st0" d="M143.7,157.1h-0.1C143.6,157,143.6,157,143.7,157.1z"/>
	<g>
		<path class="st0" d="M160.7,213c0.1,0,0.2-0.1,0.3-0.1c-0.5,0.1-1,0.2-1.5,0.2C159.9,213.2,160.3,213.1,160.7,213z"/>
		<path class="st0" d="M189.2,176.6c0-0.4,0.1-0.9,0-1.3c-0.7-6.9-3.5-13.3-8-18.5c0,0,0-0.1-0.1-0.1c-1.3-3.4-2.9-6.8-5-9.9
			c0,0,0-0.1,0-0.1c0-0.1,0-0.2-0.1-0.3c-1.4-5.6-4.2-12.3-9.8-17.7c-6.6-6.4-15.3-9.5-25.9-9.2c-1,0-2.4,0.1-3.4,0.3
			c-8.1,1.4-15.6,5.6-20.9,11.9c-0.6,0.7-1.3,1.1-1.9,1.2c-11.5,0.5-19.9,6.3-27.1,18.7c-4.6,7.8-6.1,16.3-4.3,23.9
			c2.1,8.9,7.6,16.4,15.3,21.3c5.4,17.8,24.1,28.3,42.2,23.4c4.1-1.1,8-3,11.5-5.6c1-0.8,2.2-1.2,3.5-1.2c1.4,0,2.9-0.1,4.2-0.3
			c0.4,0,0.8,0,1.2-0.1l0.4-0.1c5.9-1.1,11.4-3.7,16.2-8c1.2-1.1,2.2-2.4,3.2-3.6C186.5,194.5,189.8,185.6,189.2,176.6z
			 M172.3,199.6c-3.7,3.2-7.5,5.2-11.9,6.1c-0.1,0-0.2-0.1-0.3-0.1c-0.3,0-2.5-0.4-5.4-1.3c-6.5-2-16.7-7.3-19.7-20
			c-0.4-1.6-0.8-3.2-1-5c-0.1-2.1-1.9-3.7-4-3.5c-2,0.2-3.6,1.9-3.5,4c1,15.8,10.6,24.7,20,29.3c0,0,0,0,0.1,0
			c-2.6,1.9-5.4,3.2-8.4,4c-14.5,3.9-29.4-4.7-33.3-19.6l-0.3-0.9c0-0.1,0.1-0.2,0.1-0.3c0-0.3,0-2.6,0.5-5.6
			c1-6.4,4.1-16.6,14.4-21.8c-0.7-2.9-0.2-5.8,1-8.3c-16,5.7-21.9,20-23.1,30.4v-0.1c-3.6-3.5-6.3-8-7.5-13
			c-1.4-5.7-0.1-12.2,3.5-18.3c5.5-9.4,11-12.9,15.9-14.2c1.8-0.5,3.5-0.7,5.1-0.8c0.7,0,1.4-0.4,2.1-0.6c-0.2,0-0.5,0-0.7,0
			c0.2,0,0.5,0,0.7,0h0h0.1c0.3,0,2.7-0.3,5.8,0.1c4.2,0.4,9.8,2,14.2,6.6c-0.2-3,0.7-5.7,2.4-8c-4.2-3.2-9-4.9-13.4-5.7l-1.3,0
			c0.4-0.1,0.8-0.1,1.3,0c3.6-2.8,7.8-4.8,12.4-5.5c0.7-0.1,1.8-0.2,2.5-0.2c8.5-0.3,15.3,2.1,20.4,7c4.4,4.3,6.7,9.7,7.7,14.1
			c0,0.2,0,0.4,0,0.6c0,0.2-0.1,0.3-0.1,0.4c0.2,0.3,0.6,2.7,0.5,5.8c-0.1,3.5-0.9,7.9-3.5,12c0.6,1,1.3,2,1.6,3.2
			c0.6,2.3,0.3,4.5-0.3,6.7c4.9-4.4,7.6-9.8,8.8-15.1c0.1-0.2,0.1-0.5,0.1-0.7l0.1,0.8c3.3,4,5.4,8.8,6,14.1
			C182.8,184.7,179.2,193.4,172.3,199.6z"/>
	</g>
	<path class="st1" d="M160.9,142.7c-1.8-6.6-8.6-10.6-15.3-8.8c-2.8,0.8-5,2.5-6.6,4.7c-1.6,2.3-2.4,5.1-2.2,8c0,0.7,0,1.3,0.1,2
		c0,0.2,0,0.3,0,0.5c0.2,0.8,0.7,1.4,1,2c-2.8-1.4-6.1-2-9.5-1.1c-3.6,1-6.3,3.5-7.8,6.6c-1.2,2.5-1.7,5.4-1,8.3c0,0.1,0,0.2,0,0.3
		c0.1,0.4,0.4,0.7,0.6,1.1c2.3,5.9,8.5,9.3,14.7,7.7c6.6-1.8,10.6-8.6,8.8-15.3c-0.2-0.8-0.7-1.4-1-2c0.3,0.1,0.5,0.2,0.8,0.3h0.1
		c2.6,1.2,5.5,1.7,8.5,0.9C158.7,156.1,162.7,149.3,160.9,142.7z M132.9,166.8c-2.6,0.7-5.3-0.9-6-3.5c-0.7-2.6,0.9-5.3,3.5-6
		c2.6-0.7,5.3,0.9,6,3.5C137.1,163.3,135.5,166.1,132.9,166.8z M150.2,150.7c-2.6,0.7-5.3-0.9-6-3.5c-0.7-2.6,0.8-5.3,3.5-6
		c2.6-0.7,5.3,0.9,6,3.5C154.4,147.3,152.8,150,150.2,150.7z"/>
	<path class="st1" d="M167.2,170.5c-0.3-1.2-1-2.2-1.6-3.2c-0.5-0.7-1-1.4-1.6-2c-3-3.2-7.6-4.8-12.1-3.5
		c-6.6,1.8-10.6,8.6-8.8,15.3c1.8,6.6,8.6,10.6,15.2,8.8c4.3-1.2,7.3-4.6,8.5-8.6C167.5,175,167.8,172.8,167.2,170.5z M153.9,168.9
		c2.6-0.7,5.3,0.9,6,3.5s-0.9,5.3-3.5,6s-5.3-0.9-6-3.5C149.7,172.3,151.3,169.6,153.9,168.9z"/>
</g>
</svg>
