<?xml version="1.0" encoding="utf-8"?>
<!-- Generator: Adobe Illustrator 23.0.1, SVG Export Plug-In . SVG Version: 6.00 Build 0)  -->
<svg version="1.1" id="Layer_1" xmlns="http://www.w3.org/2000/svg" xmlns:xlink="http://www.w3.org/1999/xlink" x="0px" y="0px"
	 viewBox="0 0 350 300" style="enable-background:new 0 0 350 300;" xml:space="preserve">
<style type="text/css">
	.st0{fill:#D57632;}
	.st1{fill:#FCB445;}
</style>
<g>
	<path class="st0" d="M195,136.6c-0.4-0.5-0.7-1.2-1.1-1.8c-1.5-2.5-3.2-5.4-5.7-7c-3.2-2-6.7-1.7-9.5-1.4c-0.7,0-1.3,0.1-2,0.1
		c-1.7-0.5-5.7-1.6-9.8-1.3c-3.6,0.2-6.7,2-8.5,3.1c-1.8,0.9-3.7,1.2-5.6,0.9c-3.9-0.6-7.2-1.4-10.3-2.6c-1.4-0.5-3-2.3-4.5-4.1
		c-1.7-2-3.5-4.1-6-5.4c-2.6-1.5-5.3-1.6-7.9-1.7c-2.2-0.1-4.2-0.1-6.3-1l-3.5-1.5c-6.1-2.7-13.1-5.7-20.4-5.7
		c-4.8,0-9,1.8-12.7,3.4c-1.7,0.7-3.3,1.4-5,1.9c-1.8,0.5-4.1,0.9-6.4,1.2c-4.8,0.7-9.7,1.5-13.1,3.8c-4.3,3-5.8,7.3-7,11.1
		c-0.6,1.8-1.2,3.5-2.2,5.2c-3.1,5.2-7.4,12.3-7.4,19c0,9.8,6.7,17,12.6,23.5c1.2,1.3,2.3,2.8,3.4,4.3c3.1,4.1,6.6,8.8,12.3,11.2
		c2,0.8,4.2,1.1,6.4,1.1c3.4,0,6.9-0.7,10.4-1.5c3.2-0.7,6.3-1.3,9-1.3h2.4c10.1,0,19.7,0.1,27.9-4.7c4.9-2.8,8.2-5.5,11.1-7.8
		l1.1-0.8c2.7-2.2,5.1-3.9,8.5-5.3c1.9-0.7,4.2-1.3,6.8-1.8c1.5-0.3,3.2-0.1,4.9,0.5l2.9,1c0.1,0,7,2.5,10.6,2.3l5.9-1.3
		c3.3,0,9.8-1.1,13.3-3c3.6-2,4.8-4.7,5.7-6.9c0.3-0.7,0.6-1.4,1-2.2c0.3-0.6,0.7-1.2,1.1-1.8c1.5-2.4,3.3-5.4,3.3-9
		c0-4.7-2.7-8.6-4.9-11.8L195,136.6z M190.3,154.2c-0.5,0.7-0.9,1.5-1.3,2.2c-0.5,1-1,2-1.3,2.8c-0.8,1.9-1,2.4-2.1,2.9
		c-1.8,1-6.7,2-10.3,2.1l-5.8,1.3c-1-0.1-5.2-1.3-7-1.9l-2.9-1c-2.9-1.1-6.1-1.4-9-0.9c-3.2,0.5-6,1.3-8.4,2.2
		c-4.5,1.7-7.6,4.1-10.7,6.5l-1.1,0.9c-2.8,2.2-5.7,4.6-10,7.1c-6.3,3.6-14.7,3.6-23.8,3.6h-2.4c-3.5,0-7.1,0.7-10.6,1.5
		c-4.5,0.9-9.2,1.9-12.1,0.7c-3.7-1.5-6.2-4.9-8.9-8.5c-1.3-1.7-2.6-3.4-4-5c-5.3-5.8-10.4-11.3-10.4-17.9c0-4.4,3.6-10.4,6.4-15.2
		c1.3-2.1,2-4.3,2.7-6.4c1.1-3.4,1.9-5.6,3.9-6.9c1.9-1.3,6-1.9,9.7-2.5c2.8-0.4,5.4-0.9,7.5-1.5c2-0.6,3.9-1.4,5.9-2.3
		c3.2-1.4,6.3-2.7,9.4-2.7c5.6,0,11.8,2.7,17.2,5l3.7,1.6c3.4,1.4,6.6,1.5,9.1,1.6c1.8,0.1,3.3,0.1,4.2,0.6c1.2,0.6,2.4,2.1,3.8,3.6
		c2.1,2.4,4.4,5.1,7.8,6.4c3.5,1.3,7.4,2.3,11.8,3c3.5,0.6,7.1,0,10.4-1.6l0.9-0.5c1-0.6,2.9-1.7,4.6-1.8c2.9-0.2,6.1,0.8,7.2,1.1
		l1.4,0.2c1.1,0,2.2-0.1,3.3-0.2c1.9-0.2,3.6-0.3,4.5,0.3c0.8,0.5,2.2,2.8,3,4.2c0.5,0.8,1,1.6,1.4,2.2l0.8,1.1
		c1.6,2.3,3.4,5,3.4,7.1C192.4,150.7,191.3,152.6,190.3,154.2z"/>
	<path class="st0" d="M87.5,133.3l3-1.8c2.2-1.3,5-1.3,7.3-0.1l4.2,2.3l4.8,2.7c2,1.1,4.4,0.4,5.6-1.6c1.1-2,0.4-4.4-1.6-5.5l-9-5.1
		c-4.8-2.6-10.7-2.6-15.4,0.2l-3,1.8c-1.5,0.9-3.2,1.2-4.9,0.9c-5.9-0.9-11.8,1.6-15.1,6.4l-1.7,2.4c-1.3,1.8-0.8,4.4,1,5.7
		c0.7,0.5,1.5,0.7,2.3,0.7c1.3,0,2.5-0.6,3.3-1.7l1.7-2.4c0.2-0.3,0.6-0.4,0.8-0.7c1.6-1.7,3.9-2.7,6.3-2.4
		C80.8,135.9,84.4,135.2,87.5,133.3z"/>
	<path class="st0" d="M136.2,144.3l-4.4,2.5c-1.4,0.8-3,0.9-4.5,0.4l-3.2-1.2c-4.3-1.7-9.3-0.9-13,1.9c-1.3,1.1-3.1,1.4-4.7,0.9
		l-5.5-1.6c-2.2-0.7-4.4,0.6-5,2.8s0.6,4.4,2.8,5l5.5,1.6c1.2,0.4,2.4,0.5,3.7,0.5c2.9,0,5.8-1,8.2-2.8c1.5-1.1,3.4-1.4,5.1-0.8
		l3.2,1.2c3.8,1.4,7.9,1.1,11.4-0.9l4.4-2.5c2-1.1,2.7-3.6,1.6-5.5C140.6,143.9,138.1,143.2,136.2,144.3z"/>
	<g>
		<path class="st1" d="M309.9,161.9v-1.1l-0.1-3.1c0.5-9.9-1.8-19.8-6.5-28.5c-1.8-4.4-4.3-9.4-11.7-13.1c-1.4-0.7-2.6-1.6-3.8-2.5
			c-2.7-2-6.1-4.6-11.9-5.4c-3.3-0.5-7.9,0-12.3,0.5c-6.1,0.6-10.5,0.5-15,0c-4.4-0.5-8.8-0.9-13-0.1c-5.6,1.1-10,4.1-13.5,6.5
			c-1.2,0.8-2.3,1.6-3.3,2.2c-8.3,4.7-10,10.1-10,13.3l-1.1,10.2c-0.3,3-0.9,5.9-1.8,8.8v0.1c-0.1,0.3-0.1,0.6-0.1,0.9l-2.7,8.7
			c-0.1,0.4-0.2,0.8-0.2,1.2c0,6,4.1,13.5,9.7,17.4c3.7,2.6,8,3.5,12.6,4.3c1.9,0.4,3.8,0.7,6,1.3c2.1,0.5,4.3,1.3,6.5,2
			c5.4,1.8,11.4,3.8,18.2,3.8c2,0,4.6,0.1,7.4,0.2c3.4,0.1,7,0.3,10.3,0.3s6.3-0.1,8.6-0.5c6-1.1,10.8-4.6,14.6-7.4
			c1.7-1.2,3.2-2.4,4.7-3.2C310.1,174.1,310,167.1,309.9,161.9z M301.5,163.8c-0.1,3.6-0.7,5.6-4.1,7.5c-1.8,1-3.7,2.4-5.7,3.8
			c-3.5,2.6-7.1,5.2-11.3,6c-3.6,0.7-11.1,0.4-17,0.2c-2.9-0.1-5.6-0.2-7.7-0.2c-5.4,0-10.6-1.7-15.6-3.4c-2.4-0.8-4.8-1.6-7.1-2.2
			c-2.3-0.6-4.4-1-6.4-1.4c-4-0.7-7.1-1.3-9.4-2.9c-3.4-2.4-5.9-7.1-6.2-10.2l1.6-5.1l-0.1-0.1l9.3,2.6c0.4,0.1,0.7,0.1,1.1,0.1
			c1.8,0,3.4-1.2,3.9-3c0.6-2.2-0.7-4.4-2.8-5l-9.5-2.6v0c0.5-2.1,1-4.1,1.3-6.2l1.1-10.6c0-2.1,2.2-4.5,5.9-6.7
			c1.2-0.7,2.5-1.6,3.9-2.5c3.2-2.2,6.6-4.4,10.5-5.2c2.9-0.6,6.6-0.2,10.5,0.2c5.1,0.5,10,0.7,16.8,0c3.7-0.4,7.9-0.9,10.2-0.5
			c3.8,0.6,5.7,2,8.2,3.9c1.6,1.2,3.2,2.4,5.1,3.3c4.9,2.5,6.4,5.4,7.9,9c0.1,0.2,0.1,0.3,0.2,0.4c3.8,6.9,5.4,14.5,5.4,22.3
			l-4.2-0.8c-5.2-1-10.6,0.3-14.7,3.6c-2.4,1.9-5.6,2.6-8.5,1.8l-6.3-1.7c-2.1-0.5-4.4,0.7-5,2.9c-0.6,2.2,0.7,4.4,2.9,5l6.3,1.7
			c1.5,0.4,3,0.6,4.6,0.6c4,0,8-1.4,11.2-3.9c2.2-1.8,5.1-2.5,7.9-2L301.5,163.8L301.5,163.8z"/>
		<path class="st1" d="M270.7,147.5l4.1,1.2c1.6,0.5,3.3,0.7,5,0.7c2.6,0,5.1-0.6,7.5-1.7l4-1.8c2.1-0.9,2.9-3.4,2-5.4
			c-0.9-2.1-3.4-2.9-5.4-2l-4,1.9c-2.1,1-4.4,1.2-6.7,0.5l-4.1-1.2c-3.3-0.9-6.9-0.9-10.2,0.1l-2.9,0.9c-2.1,0.6-4.2,0.6-6.1-0.1
			l-6.9-2.5c-2.1-0.7-4.5,0.4-5.2,2.5c-0.9,1.9,0.2,4.2,2.3,5l7,2.5c3.6,1.3,7.5,1.4,11.2,0.3l2.9-0.9
			C267,146.9,268.9,146.9,270.7,147.5z"/>
	</g>
</g>
</svg>
