<?xml version="1.0" encoding="utf-8"?>
<!-- Generator: Adobe Illustrator 23.0.1, SVG Export Plug-In . SVG Version: 6.00 Build 0)  -->
<svg version="1.1" id="Layer_1" xmlns="http://www.w3.org/2000/svg" xmlns:xlink="http://www.w3.org/1999/xlink" x="0px" y="0px"
	 viewBox="0 0 350 300" style="enable-background:new 0 0 350 300;" xml:space="preserve">
<style type="text/css">
	.st0{fill:#FFFFFF;}
	.st1{fill:#BE1E2D;}
	.st2{fill:#F15636;}
	.st3{fill:#6D6E71;}
	.st4{fill:#FAAD66;}
</style>
<g>
	<g>
		<path class="st0" d="M295.9,125.5c-1.9,0.1-3.6,1.2-4.2,3l-0.5,1.3c-0.6,1.6-2.4,2.5-4,2c-3-1-6.2,0.6-7.3,3.5l-4.5,12.2l10.8,4.5
			L295.9,125.5z"/>
		<path class="st1" d="M299.8,119.7c-5.3-1.9-11.1,0.5-13.6,5.3c-5.3-0.2-10.4,2.7-12.4,8l-4.4,11.9l5.9,2.4l4.5-12.2
			c1.1-2.9,4.3-4.5,7.3-3.5c1.6,0.6,3.4-0.3,4-2l0.5-1.3c0.7-1.8,2.4-3,4.2-3l-9.7,26.4l1.1,0.5c0.7,0.3,1,0.8,1.4,1.4
			c0.1,0,0.2-0.1,0.3,0c1.6,0.6,2.4,2.3,1.9,3.9l11.6-31.8C303.5,123.3,302.2,120.6,299.8,119.7z"/>
		<path d="M290.5,158.7l0.1-0.2C290.6,158.6,290.5,158.7,290.5,158.7C290.5,158.8,290.5,158.8,290.5,158.7z"/>
		<path class="st0" d="M244.8,92.6c-1.4-0.7-2.1-2.4-1.6-3.9c1.7-5.2-0.9-10.7-6-12.6h-0.1c-0.2,0-0.5,0.2-0.5,0.4l-12.7,34.7
			l13.7,12.4l7-6.1c1.4-1.2,3.3-1.8,5-1.7c1.8,0.1,3.4,0.9,4.6,2.2l0.4-1C257.9,107.6,253.7,97.2,244.8,92.6z M239.9,107.8
			c-3,0.5-5.9-1.6-6.4-4.6s1.6-5.9,4.6-6.4s5.9,1.6,6.4,4.6C245,104.5,242.9,107.3,239.9,107.8z"/>
		<path class="st1" d="M222.2,109.7l1.6,1.5l12.7-34.7c0.1-0.2,0.3-0.4,0.5-0.4c0.1,0,0.2,0,0.1,0c5.1,1.9,7.7,7.4,6,12.6
			c-0.5,1.5,0.2,3.2,1.6,3.9c8.9,4.5,13.1,15,9.7,24.3l-0.4,1c0.1,0.1,0.1,0.1,0.2,0.1l0,0c2.1,2.4,3.1,5.2,3.6,8.1l2.6-7.1
			c4.2-11.6-0.3-24.5-10.6-31c1.3-7.7-3-15.3-10.5-18.1c-3.6-1.3-7.6,0.5-8.9,4.1l-13,35.6c0.1,0,0.1,0,0.2,0.1
			C218.8,108.6,220.9,108.5,222.2,109.7z"/>
		<path class="st0" d="M249.2,171.2l-7.8,6.8c6.6,1.8,13.5,1.7,20.1-0.3l-5.6-15.7C254.3,165.4,252.1,168.6,249.2,171.2z"/>
		<path class="st0" d="M267.2,174.8l0.2,0.5c7.4-3.8,13.1-9.9,16.4-17.5l-0.1-0.1L267.2,174.8z"/>
		<path class="st0" d="M283.7,157.8l-26.1-10.7c0.1,0.5,0.1,1,0.2,1.4l9.4,26.3L283.7,157.8z"/>
		<path class="st2" d="M290.1,154.4c-0.3-0.6-2.2-1.9-2.8-2.1l-1.1-0.5l-10.8-4.5l-5.9-2.4l-14.6-6c1.3,2.7,2.2,5.4,2.7,8.2
			l26.1,10.7l0.1,0.1l0.1,0c-3.4,7.6-9.1,13.7-16.4,17.5l-0.2-0.1l-0.2-0.5l-9.3-26.3c0.5,4.6-0.1,9.2-2,13.5l5.6,15.7l0.1,0.1
			c-6.5,2-13.3,2-20,0.3l-5.7,5c0.2,0.1,0.3,0.2,0.4,0.2c4.8,1.8,9.8,2.6,14.7,2.6c6.1,0,12.3-1.3,18-4c10-4.6,17.6-12.8,21.7-23
			c0-0.1,0.1-0.2,0.1-0.3c0.1-0.3,0.3-0.5,0.4-0.7c0-0.1,0-0.1,0-0.2C291.3,156.5,290.9,155.2,290.1,154.4z"/>
		<path d="M238.1,96.9c-3,0.5-5.1,3.4-4.6,6.4s3.4,5.1,6.4,4.6s5.1-3.4,4.6-6.4C244,98.4,241.1,96.4,238.1,96.9z"/>
		<path class="st2" d="M222.2,109.7c-1.3-1.2-3.3-1.1-4.5,0.2c4.9,1.7,9.4,4.5,13.2,8.4c2,2,3.5,4.3,4.9,6.7l1.7-1.5l-13.7-12.4
			L222.2,109.7z"/>
		<path d="M216.2,136.8c0.7,1.2,1.3,2.5,1.7,3.8l17.8-15.5c-1.4-2.3-2.9-4.6-4.9-6.7c-3.8-4-8.4-6.7-13.2-8.4c-0.1,0-0.1,0-0.2-0.1
			c-0.9-0.3-1.7-0.6-2.6-0.8C219,117,219.7,127.1,216.2,136.8z"/>
		<path class="st0" d="M187.5,178.6c0.4-2.1,1.1-4.1,1.8-6.1c-3.2,3.2-6.6,6.1-9.9,8.7C182.1,180.5,184.8,179.6,187.5,178.6z"/>
		<path class="st0" d="M216.2,136.8c-0.6,1.7-1.3,3.4-2.2,5.1c-0.7,1.3-1.6,2.8-2.6,4.4l6.5-5.7C217.5,139.3,216.9,138,216.2,136.8z
			"/>
		<g>
			<path d="M179.5,181.3c-9.9,7.9-19.5,12.7-25.5,9.6c0.2,0.2,0.3,0.5,0.5,0.7c5.8,6.1,18.6,4.5,32.2-0.3c-0.4-4.3-0.1-8.6,0.8-12.7
				C184.8,179.7,182.1,180.6,179.5,181.3z"/>
			<path d="M214.9,109c-2.6-4.8-6.3-9-11.3-11.6c-14.7-7.8-33.9-0.6-42.8,16.1c-8.9,16.7-21.6,69.4-6.9,77.2h0.1
				c6,3.2,15.6-1.6,25.5-9.5c3.3-2.6,6.6-5.6,9.9-8.7c1.8-4.6,4.3-9,7.7-12.9c0.2-0.5,0.3-1,0.7-1.4l13.7-11.9
				c1-1.6,1.9-3.1,2.6-4.4c0.9-1.7,1.5-3.4,2.2-5.1C219.8,127.1,219.1,117,214.9,109z M191.7,156.3c-0.8,1.5-2.7,2.1-4.3,1.3
				c-1.6-0.8-2.1-2.7-1.3-4.3c1.8-3.4,2.4-7.3,1.5-10.8c-0.8-3.4-2.8-6.1-5.6-7.6c-5.9-3.2-13.8-0.1-17.5,6.9
				c-0.8,1.5-2.7,2.1-4.3,1.3c-0.3-0.2-0.6-0.4-0.8-0.6c-0.9-1-1.2-2.5-0.5-3.7c5.3-10.1,17-14.3,26.1-9.5c4.5,2.4,7.6,6.5,8.8,11.7
				C195,146,194.2,151.4,191.7,156.3z M204.4,146.8c-0.8,1.5-2.7,2.1-4.3,1.3c-1.6-0.8-2.1-2.7-1.3-4.3c2.8-5.2,3.6-11.1,2.3-16.4
				c-1.2-5.2-4.3-9.4-8.7-11.7c-4.4-2.3-9.6-2.6-14.6-0.7c-5.2,2-9.5,5.9-12.3,11.1c-0.8,1.5-2.7,2.1-4.3,1.3
				c-0.3-0.2-0.6-0.4-0.8-0.6c-0.9-0.9-1.2-2.4-0.5-3.7c3.5-6.6,9.1-11.6,15.7-14.1c6.8-2.6,13.8-2.2,19.8,1s10.2,8.8,11.9,15.9
				C208.9,132.8,207.9,140.2,204.4,146.8z"/>
		</g>
		<path class="st3" d="M161.2,127.4c1.5,0.8,3.5,0.2,4.3-1.3c2.8-5.2,7.2-9.2,12.3-11.1c5-1.9,10.2-1.7,14.6,0.7
			c4.4,2.3,7.5,6.5,8.7,11.7c1.3,5.4,0.4,11.2-2.3,16.4c-0.8,1.5-0.3,3.5,1.3,4.3c1.5,0.8,3.5,0.2,4.3-1.3c3.5-6.6,4.5-14,2.9-20.9
			c-1.7-7-5.9-12.7-11.9-15.9c-6-3.2-13-3.6-19.8-1c-6.6,2.5-12.2,7.5-15.7,14.1c-0.7,1.2-0.4,2.7,0.5,3.7
			C160.6,127.1,160.9,127.3,161.2,127.4z"/>
		<path class="st3" d="M160.2,143.1c1.5,0.8,3.5,0.2,4.3-1.3c3.7-7,11.6-10.1,17.5-6.9c2.8,1.5,4.8,4.2,5.6,7.6
			c0.8,3.5,0.3,7.4-1.5,10.8c-0.8,1.5-0.3,3.5,1.3,4.3c1.5,0.8,3.5,0.2,4.3-1.3c2.6-4.8,3.3-10.2,2.1-15.3
			c-1.2-5.2-4.3-9.3-8.8-11.7c-9-4.8-20.7-0.5-26.1,9.5c-0.7,1.2-0.4,2.7,0.5,3.7C159.6,142.7,159.9,142.9,160.2,143.1z"/>
		<path d="M109,138.4c3.9,7.3,4.5,16.6,1.3,25.4c4.5,8,3.3,18.2-3.6,24.9c-5.2,5-18.8,12.8-30,15.8c-9,7.2-17.8,11.6-23.3,8.8
			c0.2,0.2,0.2,0.4,0.4,0.6c12,12.5,56.4-10.5,68.9-22.5s13-31.9,1-44.4C119.6,142.6,114.5,139.8,109,138.4z"/>
		<g>
			<path class="st0" d="M74.5,202.8c11.2-3,24.8-10.8,30-15.8c6.9-6.6,8.1-16.9,3.6-24.9c-0.6,1.6-1.2,3.1-2,4.7
				C101.3,175.9,87.7,192.3,74.5,202.8z"/>
			<path class="st4" d="M108.1,162.2c4.5,8,3.3,18.2-3.6,24.9c-5.2,5-18.8,12.8-30,15.8c13.1-10.5,26.8-26.9,31.6-36
				C107,165.3,107.6,163.8,108.1,162.2 M108.1,156.7c-0.2,0-0.3,0-0.5,0c-2.1,0.2-4,1.6-4.7,3.6c-0.5,1.3-1,2.7-1.7,4
				c-4.5,8.5-17.8,24.3-30.2,34.3c-2,1.6-2.6,4.4-1.5,6.7c0.9,1.9,2.9,3,4.9,3c0.5,0,0.9-0.1,1.4-0.2c12-3.2,26.4-11.4,32.4-17.1
				c8.6-8.2,10.4-21.2,4.6-31.5C111.9,157.8,110.1,156.7,108.1,156.7L108.1,156.7z"/>
		</g>
		<path d="M76.8,204.4c13.1-10.5,26.8-26.9,31.6-36c0.8-1.5,1.4-3.1,2-4.7c3.2-8.8,2.6-18.1-1.3-25.4c-2.3-4.4-5.8-8.2-10.3-10.6
			c-13.5-7.2-31-0.6-39.1,14.8c-8.1,15.3-19.8,63.5-6.3,70.7h0.1C58.9,216,67.7,211.6,76.8,204.4z M58.8,151.3
			c3.2-6,8.3-10.6,14.3-12.9c6.2-2.3,12.6-2,18.1,0.9s9.4,8.1,10.9,14.5c1.5,6.3,0.5,13.1-2.7,19.1c-0.7,1.4-2.5,2-3.9,1.2
			s-2-2.5-1.2-3.9c2.5-4.8,3.3-10.1,2.1-15c-1.1-4.8-4-8.6-8-10.7c-4-2.1-8.7-2.3-13.3-0.6c-4.7,1.8-8.7,5.4-11.3,10.2
			c-0.7,1.4-2.5,2-3.9,1.2c-0.3-0.1-0.5-0.3-0.7-0.6C58.4,153.8,58.2,152.4,58.8,151.3z M57.9,165.6c4.9-9.2,15.6-13.1,23.9-8.7
			c4.1,2.2,6.9,6,8,10.7c1.1,4.6,0.4,9.6-1.9,14c-0.7,1.4-2.5,1.9-3.9,1.2c-1.4-0.8-2-2.5-1.2-3.9c1.7-3.1,2.2-6.7,1.4-9.9
			c-0.7-3.1-2.6-5.5-5.1-6.9c-5.4-2.9-12.6-0.1-16,6.3c-0.7,1.4-2.5,2-3.9,1.2c-0.3-0.1-0.5-0.3-0.7-0.6
			C57.5,168.1,57.3,166.7,57.9,165.6z"/>
		<path class="st3" d="M60,155.2c1.4,0.8,3.2,0.2,3.9-1.2c2.5-4.8,6.5-8.4,11.3-10.2c4.6-1.7,9.3-1.5,13.3,0.6s6.8,5.9,8,10.7
			c1.2,4.9,0.4,10.3-2.1,15c-0.8,1.4-0.2,3.2,1.2,3.9c1.4,0.8,3.2,0.2,3.9-1.2c3.2-6,4.1-12.8,2.7-19.1c-1.5-6.4-5.4-11.6-10.9-14.5
			s-11.9-3.3-18.1-0.9c-6,2.3-11.1,6.9-14.3,12.9c-0.6,1.1-0.4,2.5,0.5,3.4C59.5,154.9,59.7,155,60,155.2z"/>
		<path class="st3" d="M59.1,169.5c1.4,0.8,3.2,0.2,3.9-1.2c3.4-6.4,10.6-9.2,16-6.3c2.6,1.4,4.4,3.8,5.1,6.9
			c0.8,3.2,0.3,6.7-1.4,9.9c-0.8,1.4-0.2,3.2,1.2,3.9c1.4,0.8,3.2,0.2,3.9-1.2c2.3-4.4,3-9.4,1.9-14c-1.1-4.7-4-8.5-8-10.7
			c-8.3-4.4-19-0.5-23.9,8.7c-0.6,1.1-0.4,2.5,0.5,3.4C58.6,169.2,58.8,169.4,59.1,169.5z"/>
		<path class="st0" d="M275.3,193.3c-1.3,0-2.4,0.3-3.4,1.1l0,0l-1,0.9c-1.3,1.1-3.3,1-4.4-0.2c-2.2-2.3-5.7-2.5-8.1-0.5l-9.8,8.5
			l7.4,9.1l21.2-18.5C276.6,193.5,276,193.3,275.3,193.3z"/>
		<path d="M256.5,220.4l0.2-0.2C256.6,220.3,256.5,220.4,256.5,220.4C256.4,220.4,256.4,220.4,256.5,220.4z"/>
		<path class="st1" d="M248.6,203.2l9.8-8.5c2.4-2.1,5.9-1.9,8.1,0.5c1.2,1.3,3.1,1.3,4.4,0.2l1-0.9l0,0c0.9-0.8,2-1.1,3.4-1.1
			c0.6,0.1,1.3,0.2,1.8,0.5L256,212.3l0.7,0.9c0.4,0.5,0.5,1.2,0.6,1.9c0.1,0.1,0.2,0.1,0.3,0.2c1.1,1.3,1,3.2-0.2,4.4l25.5-22.3
			c1-0.8,1.5-2,1.6-3.2c0.1-1.3-0.3-2.5-1.2-3.4c-1.9-2.2-4.6-3.6-7.6-3.8c-2.5-0.1-4.9,0.5-6.9,1.9c-4.5-2.9-10.5-2.6-14.7,1.1
			l-9.6,8.4L248.6,203.2z"/>
		<path class="st0" d="M231.7,178l13.3-11.6c7.5-6.5,8.9-17.7,3.2-26c-0.9-1.3-0.7-3.1,0.5-4.2c4-3.7,4.4-9.8,0.8-13.9
			c-0.2-0.2-0.6-0.2-0.8,0l-27.8,24.3L231.7,178z M233.2,144.3c1-2.9,4.2-4.4,7.1-3.4c2.9,1,4.4,4.2,3.4,7.1c-1,2.9-4.2,4.4-7.1,3.4
			C233.7,150.4,232.2,147.2,233.2,144.3z"/>
		<path class="st0" d="M222.9,180.4l3.1,0.8l-10.4-30l-10.3,9l0,0L222.9,180.4z"/>
		<path class="st0" d="M201.8,211.5c5.4,6.2,12.5,10,20.1,11.5l4.8-30.5l-26,17.4C201.1,210.5,201.4,211,201.8,211.5z"/>
		<path class="st0" d="M197.2,204.6l26.1-17.5l-29.3-7.3c-0.1,0-0.1-0.1-0.1-0.1C192,188,193,196.9,197.2,204.6z"/>
		<path class="st0" d="M251,216.4l-0.1-0.1l-22.6,7l-0.1,0.5C236.2,224,244.3,221.5,251,216.4z"/>
		<path class="st0" d="M205.2,160.2L205.2,160.2c-4.3,3.8-7.4,8.4-9.5,13.4l27.1,6.8L205.2,160.2z"/>
		<polygon class="st0" points="250.9,216.3 233,194 228.3,223.3 		"/>
		<path d="M236.6,151.4c2.9,1,6.1-0.5,7.1-3.4s-0.5-6.1-3.4-7.1s-6.1,0.5-7.1,3.4C232.2,147.2,233.7,150.4,236.6,151.4z"/>
	</g>
	<g>
		<path class="st2" d="M258.1,216c-0.3-0.9-1-2.3-1.3-2.7l-0.7-0.9l-7.4-9.1l-4-5l-10.6-13c0-0.1,0-0.2,0-0.4c0-0.1,0-0.3,0-0.4
			v-0.1l-2.4-6.4l-10.8-31.4l-0.7-2.1c-0.6-1.7-2.4-2.6-4.1-2c-0.3,0.1-0.6,0.3-0.9,0.6l-0.1-0.2l-3.7,3.4l-10.1,8.8
			c-0.1,0.1-0.2,0.1-0.3,0.2c-0.2,0.1-0.3,0.3-0.5,0.4l-2.8,2.5c-0.4,0.4-0.5,0.9-0.7,1.4c0.1-0.1,0.2-0.2,0.3-0.3
			c-0.1,0.1-0.1,0.1-0.2,0.2c-3.4,3.9-6,8.2-7.7,12.9c-0.8,2-1.4,4-1.8,6.1c-0.9,4.2-1.2,8.4-0.8,12.7c0.7,8.8,4,17.4,10.3,24.5
			c8.4,9.7,20.3,14.6,32.2,14.6c9.6,0,19.2-3.3,27.2-9.9c0.1-0.1,0.2-0.2,0.3-0.2c0.2-0.2,0.4-0.3,0.6-0.4c0,0,0-0.1,0.1-0.2
			C258.4,218.6,258.6,217.2,258.1,216z M205.1,160.2C205.1,160.2,205.1,160.2,205.1,160.2l10.3-9l-0.1-0.3l0.4,0.2l10.4,30l-3.1-0.8
			l-27.1-6.8l-0.2-0.1C197.8,168.5,200.8,163.9,205.1,160.2z M197.2,204.6l-0.3,0l0.1-0.1c-4.1-7.8-5.2-16.6-3.3-25h0.2
			c0.1,0,0.1,0.1,0.1,0.1l29.3,7.3l0.2,0.3l-0.1,0L197.2,204.6z M221.8,223l-0.1,0.8c0,0,0,0,0,0c0-0.1,0-0.1,0-0.1L221.8,223
			c-7.5-1.6-14.6-5.4-20.1-11.6c-0.4-0.4-0.6-0.9-1-1.3l0.1-0.1l25.8-17.2L221.8,223z M228.3,223.6l0.1-0.4L233,194l18,22.3
			C244.2,221.3,236.3,223.8,228.3,223.6z"/>
		<path class="st1" d="M254.8,139L254.8,139c2.9-3.7,3.8-8.3,3.1-12.8c-0.5-2.9-1.5-5.7-3.6-8.1l0,0c-0.1-0.1-0.1-0.1-0.2-0.1
			c-1.2-1.3-2.8-2.1-4.6-2.2s-3.6,0.5-5,1.7l-7,6.1l-1.7,1.5L218,140.6l-2.6,2.3l0.1,0.2c0.2-0.2,0.3-0.4,0.6-0.5
			c1.7-0.6,3.5,0.3,4.1,2l0.7,2.1l27.8-24.3c0.2-0.2,0.6-0.1,0.8,0c3.6,4.1,3.2,10.2-0.8,13.9c-1.2,1.1-1.4,2.9-0.5,4.2
			c5.6,8.3,4.3,19.4-3.2,26L231.7,178l2.3,6.6l1.7-1.5l5.7-5l7.8-6.8c3-2.6,5.2-5.8,6.7-9.3c1.8-4.2,2.5-8.9,2-13.5
			c-0.1-0.5-0.1-1-0.2-1.4C257.1,144.3,256.2,141.6,254.8,139z"/>
	</g>
</g>
</svg>
