<?xml version="1.0" encoding="utf-8"?>
<!-- Generator: Adobe Illustrator 23.0.1, SVG Export Plug-In . SVG Version: 6.00 Build 0)  -->
<svg version="1.1" id="Layer_1" xmlns="http://www.w3.org/2000/svg" xmlns:xlink="http://www.w3.org/1999/xlink" x="0px" y="0px"
	 viewBox="0 0 350 300" style="enable-background:new 0 0 350 300;" xml:space="preserve">
<style type="text/css">
	.st0{fill:#297739;}
	.st1{fill:#FFFFFF;}
	.st2{fill:#BE1E2D;}
	.st3{fill:#C4D82E;}
	.st4{fill:#F15636;}
</style>
<g>
	<g>
		<path class="st0" d="M172.6,129l-3.8,4.7h6.2c-0.5-0.6-1-1.2-1.4-2C173.1,130.9,172.8,129.9,172.6,129z"/>
		<path class="st1" d="M167.6,125.3c-1.4-0.3-2.9,0.2-3.8,1.3l-0.8,1c-1.1,1.3-2.9,1.5-4.3,0.5c-2.2-1.6-5.2-1.3-6.8,0.8l-3.8,4.7
			h12.7L167.6,125.3z"/>
		<path class="st2" d="M148.1,133.7l3.8-4.7c1.7-2.1,4.7-2.4,6.8-0.8c1.3,1,3.2,0.8,4.3-0.5l0.8-1c0.9-1.2,2.4-1.6,3.8-1.3l-6.7,8.3
			h7.9l3.8-4.7l1.2-1.5c1.5-1.9,1.2-4.7-0.7-6.2c-0.1-0.1-0.2-0.1-0.4-0.2c-1.7-1.3-3.7-1.9-5.7-1.9c-2.6-0.1-5.1,0.8-7.1,2.6
			c-4.4-1.8-9.6-0.6-12.8,3.3l-6.9,8.6L148.1,133.7L148.1,133.7z"/>
		<path class="st1" d="M121,121.8l-13.3-23.9l-7.4,9.2l0,0l18,14.5L121,121.8z"/>
		<path class="st1" d="M135.5,106.1c5.5-6.8,5-16.6-1.2-22.9c-1.1-1.1-1.2-2.8-0.2-4c2.9-3.8,2.2-9-1.4-12c-0.1-0.1-0.3-0.1-0.4,0
			l-20.5,25.4l14,25.3L135.5,106.1z M127.7,84.8c2.7,0.4,4.5,3,4,5.7s-3,4.5-5.7,4c-2.7-0.4-4.5-3-4-5.7
			C122.5,86.1,125,84.3,127.7,84.8z"/>
		<polygon class="st1" points="122.2,133.7 123.6,133.7 123.6,132.4 		"/>
		<path class="st1" d="M118.2,121.6l-18-14.5l0,0c-3.1,3.8-5.1,8.2-6.1,12.8L118.2,121.6z"/>
		<path class="st1" d="M119.4,127.8L93.3,126c-0.1,1.5-0.1,3.1,0,4.6c0.1,1.1,0.4,2.1,0.6,3.1h19.3L119.4,127.8z"/>
		<polygon class="st1" points="129.7,133.7 130.8,133.7 129.7,132.7 		"/>
		<path d="M126.1,94.5c2.7,0.4,5.2-1.4,5.7-4s-1.4-5.2-4-5.7c-2.7-0.4-5.2,1.4-5.7,4C121.6,91.5,123.4,94,126.1,94.5z"/>
		<path d="M214.7,157.4c-0.2,0-0.3,0-0.5,0c-8.4,0-16.4-2.4-22.5-6.8c-6.2-4.5-9.7-10.5-10-17H175h-6.2h-7.9h-12.7h-7.9h-9.4h-1.1
			h-6.2h-1.3h-8.9H94h-6.3h-5.1c-6.4,0-11.3,5.7-10.4,12c4.3,31.1,25,56.8,53.1,68.4c0,0,0.1,0,0.1,0v14.6h58
			c-3.1-2.7-5.6-6-7.5-9.8c-1.4-2.7-2.6-5.5-3.3-8.6c-0.2-0.8,0-1.6,0.4-2.3c0.4-0.7,1.1-1.2,1.9-1.4l9.5-2.2l19.6-4.6
			c0-1.4-0.1-2.8,0.1-4.2c0.2-1.7,1.5-2.9,3.4-2.7l9.7,1.1l3.6,0.4c11.9-12.3,20.2-28,23.3-45.6
			C235.5,154.1,223.8,157.3,214.7,157.4z"/>
		<path class="st0" d="M240.6,113.9c-2.8-1.5-5.8-2.5-8.9-3.5c0.5-3.2,0.3-6.3-1.2-9c-6.7-12.6-32.2-9.8-46-2.4
			c-9,4.8-15.2,12.4-17.5,20.2c2,0,4,0.7,5.7,1.9c1.7-6.3,7-12.6,14.7-16.7c6.7-3.6,15.6-5.6,23.1-5.6c6.8,0,12.6,1.7,14.6,5.5
			c0.7,1.3,0.8,2.9,0.7,4.5c1.9,0.4,3.9,0.9,5.7,1.5c0,0-0.1,0-0.1,0c-1.6-0.5-3.6-1.1-5.6-1.5c-4-0.8-8.1-1.4-11.8-1.3
			c-18.1,0.2-32.7,11.6-32.6,25.3c0,0,0,0.1,0,0.1l-0.1,0.6v0.1c0.4,6.5,3.8,12.6,10,17c6.1,4.4,14,6.8,22.5,6.8c0.2,0,0.3,0,0.5,0
			c9.2-0.1,20.8-3.4,29.4-8.7c6.9-4.3,12-10,11.9-16.7C255.5,125.2,250.2,118.8,240.6,113.9z M214.4,151.2
			c-7.3-0.2-14.1-1.9-19.3-5.6c-4-2.9-6.4-6.5-7.3-10.4c0.1,0,0.1,0,0.2,0c6.9-1.5,26.8-5.2,42-1.2c1.7,0.4,3.3-0.6,3.8-2.2
			c0.4-1.6-0.6-3.3-2.2-3.8c-15.6-4-34.8-0.9-43.3,0.8h-0.2c2.5-8.5,13.1-15,25.9-15.2c0.1,0,0.3,0,0.4,0c7.6,0,16.6,2.2,23.7,5.8
			c7.3,3.7,11.6,8.3,11.6,12.6C249.8,141.7,229.9,151,214.4,151.2z"/>
		<path class="st1" d="M240.9,227.2c-1,0-2-0.1-3.1-0.2c-0.5-0.1-1-0.2-1.5-0.3c-1,1.1-2.1,2-3.2,3c1.4,0.4,2.8,0.8,4.3,0.9
			c16,1.7,30.5-9,33.8-24.4l-3.7-0.4C264.7,218.2,253.7,227.2,240.9,227.2z"/>
		<path class="st3" d="M213.6,197.5c0-0.3,0-0.5,0-0.8c0.1-0.8,0.5-1.6,1.1-2.1s1.5-0.7,2.3-0.6l-9.7-1.1c-1.9-0.2-3.2,1-3.4,2.7
			c-0.2,1.4-0.1,2.8-0.1,4.2L213.6,197.5z"/>
		<path class="st1" d="M261.5,205.1l-15.7-1.8c-0.3,6.1-1.9,12.1-5.2,17.5C250.3,220.9,259.1,214.5,261.5,205.1z"/>
		<path class="st3" d="M217,193.9c-0.8-0.1-1.6,0.1-2.3,0.6c-0.6,0.5-1,1.3-1.1,2.1c0,0.3,0,0.6,0,0.8l11.3-2.7l-4.3-0.5L217,193.9
			L217,193.9z"/>
		<path class="st3" d="M277.2,201.6c-0.5-0.6-1.3-1-2.1-1.1l-9.3-1c-0.1,0-0.2-0.1-0.3-0.1l-20-2.2c0,0,0,0,0,0l-0.1,0l0.1,0
			c0.3,2,0.4,4.1,0.3,6.1l15.7,1.8c-2.5,9.4-11.3,15.8-20.9,15.8c-0.1,0.2-0.1,0.3-0.2,0.5c-1.2,1.9-2.6,3.7-4,5.3
			c0.5,0.1,1,0.3,1.5,0.3c1,0.1,2.1,0.2,3.1,0.2c12.7,0,23.8-8.9,26.6-21.4l3.6,0.4c-3.3,15.4-17.8,26-33.8,24.4
			c-1.5-0.2-2.9-0.6-4.3-0.9c-1.9,1.7-4,3.1-6.2,4.4c3.1,1.3,6.4,2.3,9.8,2.6c1.4,0.2,2.8,0.2,4.2,0.2c18.7,0,34.8-14.1,37-33.1
			C278,203,277.7,202.2,277.2,201.6z"/>
		<path class="st1" d="M215,228.5c-2.1,0.5-4.2,0.7-6.3,0.7c-5.1,0-10-1.4-14.4-4.1c-5.3-3.3-9.2-8.3-11.3-14.1l-3.6,0.9
			c5.1,14.9,20.9,23.8,36.4,20.2c8.1-1.9,14.9-6.8,19.3-13.9c3.8-6.2,5.3-13.3,4.4-20.4l-3.7,0.9C237.5,212.2,228.7,225.3,215,228.5
			z"/>
		<path class="st1" d="M203.5,206.2l-14.6,3.4c1.7,4.2,4.6,7.8,8.6,10.3c0.2,0.1,0.4,0.2,0.5,0.3L203.5,206.2z"/>
		<path class="st1" d="M204.1,221.7l-0.3,0.7c3.2,0.8,6.5,0.9,9.8,0.1c3.2-0.7,5.9-2.2,8.3-4.1l-0.2-0.2L204.1,221.7z"/>
		<path class="st1" d="M226.2,213.9c2.8-4,4.2-8.9,3.8-13.9l-15.2,3.6L226.2,213.9z"/>
		<polygon class="st1" points="221.8,218.2 209.7,207.2 204.1,221.7 		"/>
		<path class="st3" d="M245.5,197.1c-0.2-1.3-0.2-2.6-0.5-3.9c-0.4-1.6-2.1-2.7-3.7-2.3l-9.5,2.3c0,0,0,0,0,0l-6.9,1.6l-11.3,2.7
			l-9.7,2.3l-19.6,4.6c-1,0.2-1.7,0.9-2.1,1.8c0.3-0.9,1.1-1.7,2.2-2l-9.5,2.2c-0.8,0.2-1.5,0.7-1.9,1.4c-0.4,0.7-0.6,1.5-0.4,2.3
			c0.7,3.1,1.9,5.9,3.3,8.6c1.9,3.8,4.5,7.1,7.5,9.9c6.8,6.4,15.8,10.2,25.4,10.2c2.8,0,5.7-0.3,8.5-1c3.5-0.8,6.7-2.3,9.7-4
			c2.2-1,4.2-2.5,6.2-4.2c1.1-1,2.2-1.9,3.2-3c1.5-1.6,2.9-3.4,4-5.3c0.1-0.1,0.1-0.3,0.2-0.5c3.2-5.4,4.9-11.4,5.2-17.5
			C245.9,201.2,245.8,199.2,245.5,197.1z M215.1,203.5l15.2-3.6c0.4,5.1-1,10-3.8,13.9l0,0l-0.2,0.1l-11.4-10.4l-0.8-0.7
			L215.1,203.5z M228.5,218.4c-0.1,0.3-0.2,0.5-0.4,0.8C228.3,218.9,228.4,218.7,228.5,218.4z M203.8,222.2l0.3-0.7l5.6-14.4
			l12.1,11l0.2,0.2c-2.4,1.9-5.2,3.4-8.3,4.1c-3.3,0.8-6.6,0.6-9.8-0.1l-0.2,0.2L203.8,222.2z M203.5,206.2l-5.4,13.8l0,0
			c-0.2-0.1-0.3-0.2-0.4-0.2c-4-2.4-6.9-6-8.6-10.3L203.5,206.2z M235.2,218c-4.4,7-11.2,12-19.3,13.9c-15.6,3.7-31.3-5.3-36.4-20.2
			l3.4-0.9c0,0.1,0,0.1,0.1,0.2c2.1,5.8,5.9,10.8,11.3,14.1c4.4,2.7,9.4,4.1,14.4,4.1c2.1,0,4.2-0.2,6.3-0.7
			c13.7-3.2,22.5-16.3,20.9-29.9l0-0.1l3.7-0.9C240.6,204.7,239,211.8,235.2,218z"/>
	</g>
	<g>
		<g>
			<polygon class="st4" points="94,133.7 94,133.7 94,133.7 			"/>
			<path class="st4" d="M129.3,124.1c0.1,0.2,0.1,0.5,0.2,0.8c0-0.2-0.1-0.4-0.2-0.6c0-0.1,0-0.2-0.1-0.3c0,0,0,0,0-0.1l-3.3-5.9
				l-14-25.3l-1-1.8c-0.8-1.5-2.7-2-4.2-1.2c-0.1,0.1-0.2,0.1-0.3,0.2l-0.1-0.1l-10.7,13.3c0,0-0.1,0.1-0.1,0.1
				c-0.1,0.1-0.2,0.3-0.3,0.4l-2.1,2.6c-0.3,0.3-0.3,0.8-0.4,1.2c-4.3,7.1-6.4,15.4-5.5,23.8c0.1,0.8,0.4,1.6,0.5,2.5H94
				c-0.2-1-0.5-2-0.6-3.1c-0.2-1.5-0.1-3,0-4.5h0l25.8,1.9l-5.9,5.7h8.9l1.4-1.3l0,0v1.3h6.2v-1l1.1,1h9.4L129.3,124.1z
				 M118.3,121.6l-24.1-1.7h-0.5c0,0-0.1,0-0.1,0l0.1-0.1h0.5c1.1-4.6,3.1-9,6.1-12.8c0.4-0.5,0.6-1.1,0.6-1.7
				c0,0.6-0.2,1.2-0.6,1.7l7.4-9.2l0,0.1l13.3,23.9L118.3,121.6z"/>
		</g>
		<path class="st2" d="M140.4,80.8c3.2-6.2,1.8-13.8-3.8-18.3c-2.7-2.2-6.8-1.8-9,1L106.3,90l0.1,0.2c0.1-0.1,0.2-0.3,0.3-0.4
			c1.5-0.8,3.4-0.3,4.2,1.2l1,1.8l20.5-25.4c0.1-0.1,0.2-0.1,0.4,0c3.6,2.9,4.3,8.2,1.4,12c-0.9,1.2-0.8,2.9,0.2,4
			c6.1,6.3,6.6,16.1,1.2,22.9l-9.6,11.9l3.2,5.8c0,0,0,0,0,0.1l11.2-13.8C147.2,101.4,147.1,89.3,140.4,80.8z"/>
	</g>
</g>
</svg>
