<?xml version="1.0" encoding="utf-8"?>
<!-- Generator: Adobe Illustrator 23.0.1, SVG Export Plug-In . SVG Version: 6.00 Build 0)  -->
<svg version="1.1" id="Layer_1" xmlns="http://www.w3.org/2000/svg" xmlns:xlink="http://www.w3.org/1999/xlink" x="0px" y="0px"
	 viewBox="0 0 350 300" style="enable-background:new 0 0 350 300;" xml:space="preserve">
<style type="text/css">
	.st0{fill:#FFFFFF;}
	.st1{fill:#EBAB13;}
	.st2{fill:#935135;}
	.st3{fill:#9DCE72;}
	.st4{fill:#FAD618;}
</style>
<g>
	<path class="st0" d="M162.8,219c0.5-3,2.5-5.6,5.5-7.1c2.8-1.4,6.1-1.9,9.5-1.4c5.9,1,10.2,4.8,11.3,9.3c1-0.1,2-0.2,3-0.4
		l-2.4-9.9c-0.2-0.8-0.7-1.4-1.1-2.1c-2.3-0.2-4.6-0.4-7-0.6c-2.6-0.2-5.2-0.4-7.8-0.7c-4.9,4.3-11.2,7-18.1,7.1
		c-1.5,2.7-4.2,4.6-7.7,5.4c3.7,2.3,10,5.9,17.6,8.7C163.5,225,162.3,222.1,162.8,219z"/>
	<path class="st0" d="M262.3,198.2c-5.7,6.6-13.1,10.3-20.9,12.3l0.4,6.9c5.4-1.6,10-3.3,12.5-5c10.8-7.4,15.3-16.3,18.2-23.7
		C268.9,191.7,265.4,194.6,262.3,198.2z"/>
	<path class="st0" d="M183.9,230.4c-0.6,0.3-1.2,0.4-1.8,0.7c4.4,0.3,8.9,0,13.1-1.3c-0.5-1-1.1-1.9-1.3-2.9l-0.3-1.3
		c-1.8,0.4-3.6,0.6-5.4,0.6C187.2,227.8,185.9,229.4,183.9,230.4z"/>
	<path class="st0" d="M164.5,204.9c-1.3-0.2-2.6-0.4-3.9-0.7c-0.2,0.9-0.7,1.6-1.1,2.4C161.3,206.2,163,205.7,164.5,204.9z"/>
	<path class="st0" d="M98.2,189.2c3.1,4.7,7.8,8.3,13.1,11.5l-2.3-9.5c-0.3-1.4-1-2.7-2-3.7l-10-10.4c-1.4-1.4-2.3-3-3-4.8
		c-0.7-0.2-1.4-0.3-2-0.6C93.1,177.7,94.8,184,98.2,189.2z"/>
	<path class="st0" d="M119.4,68.4c-0.2,0-0.3,0-0.5,0c-3.8,0-7.4,1.1-9.3,2.4l5.3,0.6c0.3,0,0.5,0.2,0.8,0.2
		C116.8,70.4,118,69.3,119.4,68.4z"/>
	<path class="st1" d="M111.3,200.6c-5.4-3.1-10-6.8-13.1-11.5c-3.4-5.2-5.1-11.5-6.2-17.7c-1.5-0.8-2.8-1.9-3.8-3.4
		c-1.7-2.6-2.6-5.9-2.4-9.3c0.1-2,0.5-3.9,1.3-5.6c-1.2-1.5-2.1-3.1-2.7-4.9l-8.7-27c-0.4-1.2-0.3-2.4-0.4-3.6
		c-1.7,10.7,2.3,21.6,7.5,33.2c0.8,1.9,1.3,6,1.8,10.4c1,9.2,2.5,21.7,8.8,31.3c4.7,7.1,12.1,11.9,20.1,15.9l0,0L111.3,200.6z"/>
	<path class="st2" d="M108.3,70.6l1.3,0.1c1.9-1.3,5.5-2.4,9.3-2.4c0.2,0,0.3,0,0.5,0c2.5-1.6,5.3-2.9,7.8-3.6c0.2,0,0.3,0,0.5,0
		c-1.8-1.3-4.1-2.3-7.2-2.5c-5.3-0.4-12.5,1.1-16,4.7c-1.7,1.7-3,3.3-4.2,5C102.8,70.9,105.5,70.4,108.3,70.6z"/>
	<path class="st1" d="M195.2,229.8c-4.3,1.3-8.7,1.6-13.1,1.3c-1.6,0.5-3.2,0.9-5,0.9c-0.9,0-1.8-0.1-2.7-0.2
		c-3.6-0.6-6.5-2.2-8.6-4.4c-7.6-2.8-13.9-6.4-17.6-8.7c-1.1,0.3-2.3,0.5-3.5,0.5c-0.9,0-1.8-0.1-2.8-0.2c-1.7-0.3-3.3-0.8-4.7-1.5
		l-2.9,0.7c3.3,1.5,6.4,3.1,9.1,4.9c6.3,4.1,24,14.5,42,14.5c4.8,0,9.5-0.8,14.1-2.5C197.6,233.6,196.3,231.8,195.2,229.8z"/>
	<path class="st0" d="M102.3,132.2c-0.8-4.1-0.7-8.5,0.5-13.3L92.4,107c-1.6-1.8-3.7-3.1-5.9-4l-4.5,8.4c-1.3,2.4-1.6,5.3-0.7,8
		l8.7,27c0.2,0.6,0.5,1.1,0.8,1.7c1-0.8,2.1-1.4,3.3-1.7C95.4,140.8,98.3,135.9,102.3,132.2z"/>
	<path class="st0" d="M107.7,76.8c-0.3,0-0.7-0.1-1-0.1c-2.2,0-4.2,0.8-5.9,2c2-0.1,4,0.1,6,0.6l4.6,1.2c0.3-1,0.8-2.1,1.2-3.2
		L107.7,76.8z"/>
	<path class="st0" d="M103.8,149.6c1.3-1.4,2.9-2.4,4.6-3.1c-1.6-2.5-3-5-4.1-7.6c-1.8,2.3-3.2,5-4,7.9
		C101.7,147.5,102.8,148.4,103.8,149.6z"/>
	<path class="st2" d="M84.2,148.3c0.6,1.8,1.6,3.4,2.7,4.9c0.8-1.8,1.8-3.5,3.2-4.7c0.2-0.2,0.5-0.2,0.7-0.4
		c-0.3-0.5-0.6-1.1-0.8-1.7l-8.7-27c-0.9-2.6-0.6-5.5,0.7-8l4.5-8.4c-0.8-0.3-1.5-0.7-2.3-0.9l-3.7-0.8l-3.8,7.2
		c-1.5,2.8-1.8,6-1.5,9.2c0.1,1.2,0,2.4,0.4,3.6L84.2,148.3z"/>
	<path class="st0" d="M108.2,103.5l-5.7-5.8c-1.3-1.3-2.9-2.2-4.8-2.6L85,92.6c-1.3-0.3-1.9-1.3-2.2-2.5l-10.1,3.3l12.8,2.8
		c4.5,1,8.5,3.4,11.6,6.8l8,9.2c0.3-0.7,0.5-1.4,0.8-2.2C107,107.7,107.7,105.6,108.2,103.5z"/>
	<path class="st0" d="M98.9,89.1c3,0.6,5.8,2.1,8,4.3l2.3,2.4c0-0.5,0.1-1.1,0.1-1.6c0.1-2.4,0.3-5,0.7-7.7l-4.7-1.2
		c-2.8-0.7-5.7-0.6-8.4,0.3l-6.1,2L98.9,89.1z"/>
	<path class="st0" d="M130.3,206.1c1-5.8,7.3-9.5,14.6-8.5c-0.4-0.3-0.9-0.4-1.3-0.8c-8.5-6.6-13.8-17-17.7-25.2
		c-1.9,2.1-4.4,3.4-7.1,3.4c-0.1,0-0.3,0-0.4,0c-3-0.1-5.8-1.8-7.7-4.6c-1.7-2.6-2.6-5.9-2.4-9.3c0.2-3.8,1.5-7,3.6-9.4
		c-1.5,0.4-2.9,1.1-3.9,2.3l-1.1,1.2c0.3,1.4,0.5,2.9,0.5,4.4c-0.2,4.1-1.8,7.9-4.5,10.3c-0.7,0.6-1.4,1-2.2,1.4
		c0.3,0.4,0.5,0.9,0.8,1.2l0,0l10,10.4c1.8,1.8,3,4.1,3.6,6.6l4.1,17.4c0.5,2.1,1.8,3.9,3.7,5c1.8,1.1,4,1.5,6.1,1l2.8-0.7
		C130.7,210.4,130,208.4,130.3,206.1z"/>
	<path class="st0" d="M154.7,202.5c-0.1,0-0.3-0.1-0.4-0.1c0.1,0.2,0.2,0.4,0.3,0.6C154.7,202.8,154.7,202.6,154.7,202.5z"/>
	<path class="st2" d="M131.8,212.4L129,213c-2.1,0.5-4.3,0.2-6.1-1c-1.9-1.1-3.2-2.9-3.7-5l-4.1-17.4c-0.6-2.5-1.8-4.7-3.6-6.6
		l-10-10.4l0,0c-0.4-0.4-0.5-0.8-0.8-1.2c-1.4,0.7-2.8,1.3-4.4,1.3c-0.1,0-0.2,0-0.3,0h-0.1l0,0c-0.1,0-0.1,0-0.2,0
		s-0.1-0.1-0.2-0.1c-0.5,0-0.9-0.3-1.4-0.4c0.7,1.7,1.6,3.4,3,4.8l10,10.4c1,1,1.7,2.3,2,3.7l2.3,9.5l1.9,7.8l0,0
		c0.9,3.7,3.2,6.8,6.4,8.8c2.3,1.4,4.8,2.1,7.4,2.1c1.1,0,2.2-0.1,3.4-0.4l3.9-0.9l2.9-0.7C134.7,216.2,133,214.4,131.8,212.4z"/>
	<path class="st2" d="M104.8,150.5c1,1.4,1.6,3.1,2,4.9l1.1-1.2c1.1-1.2,2.5-1.9,3.9-2.3c0.1-0.1,0.2-0.1,0.3-0.2
		c-1.3-1.7-2.5-3.4-3.6-5.1c-1.7,0.7-3.2,1.7-4.6,3.1C104.1,149.9,104.5,150.1,104.8,150.5z"/>
	<path class="st2" d="M156.6,207c1-0.1,2-0.2,2.9-0.4c0.4-0.8,0.8-1.5,1.1-2.4c-2-0.5-4-1.1-5.9-1.8c0,0.1-0.1,0.3-0.1,0.4
		C155.6,204.1,156.3,205.5,156.6,207z"/>
	<path class="st3" d="M90.8,87.6l6.1-2c2.7-0.9,5.6-1,8.4-0.3l4.7,1.2c0.3-1.9,0.7-3.9,1.3-6l-4.6-1.2c-2-0.5-3.9-0.7-5.9-0.6
		c1.7-1.2,3.7-2,5.9-2c0.3,0,0.7,0,1,0.1l4.8,0.5c0.4-0.9,0.6-1.8,1.1-2.8s1.3-2,2.1-3c-0.3,0-0.5-0.2-0.8-0.2l-5.3-0.5l-1.3-0.1
		c-2.8-0.3-5.5,0.3-8,1.4c-3.4,1.4-6.2,3.8-8,7.2l-0.8,1.5l-0.2,0.1l-25.8,8.3c-2,0.7-3.3,2.5-3.2,4.7c0.1,2.1,1.6,3.9,3.7,4.3
		l14.3,3.1l3.9,0.9c0.8,0.2,1.5,0.6,2.3,0.9c2.2,0.9,4.3,2.1,5.9,4l10.3,11.9c0.5-2.1,1.3-4.4,2.3-6.7l-8-9.2c-3-3.5-7-5.9-11.6-6.8
		l-12.8-2.8l10.1-3.3c0.3,1.1,1,2.1,2.3,2.4l12.7,2.6c1.8,0.4,3.5,1.3,4.8,2.6l5.7,5.8c0.6-2.6,0.9-5.2,1-7.7l-2.3-2.4
		c-2.2-2.2-4.9-3.7-8-4.3L90.8,87.6"/>
	<path class="st0" d="M212.4,211.5c-3,5.3-7.5,9.6-13,12.1l0.5,1.9c0.5,2.1,1.8,3.9,3.7,5s4,1.5,6.1,1l19.9-4.8
		c3.8-0.9,6.4-4.4,6.2-8.3l-0.4-6.6c-3.4,0.5-6.8,0.7-10,0.7C220.7,212.4,216.3,212,212.4,211.5z"/>
	<path class="st0" d="M205.9,210.4c-1.9-0.4-3.6-0.8-4.8-1.1c-1.6-0.4-3.5-0.6-5.3-0.9l2.1,8.9C201.1,215.7,203.8,213.3,205.9,210.4
		z"/>
	<path class="st2" d="M192.1,219.4c2.1-0.4,4-1.1,5.8-2.1l-2.1-8.9c-2.3-0.4-4.7-0.7-7.2-0.9c0.4,0.7,0.9,1.3,1.1,2.1L192.1,219.4z"
		/>
	<path class="st2" d="M241.9,217.9v-0.5l-0.4-6.9c-2,0.5-4,0.9-6.1,1.2l0.4,6.6c0.2,3.9-2.4,7.4-6.2,8.3l-19.9,4.8
		c-2.1,0.5-4.3,0.2-6.1-1c-1.8-1.1-3.1-2.9-3.7-5l-0.5-1.9c-1.9,0.9-3.8,1.6-5.8,2l0.3,1.3c0.3,1.1,0.9,2,1.3,2.9
		c1,2,2.4,3.8,4.3,5.2c0.3,0.2,0.5,0.5,0.8,0.7c2.3,1.4,4.8,2.1,7.4,2.1c1.1,0,2.3-0.1,3.4-0.4l19.9-4.8c4.6-1.1,8-4.4,9.7-8.5
		C241.5,222.2,242,220.2,241.9,217.9z"/>
	<path class="st0" d="M94.2,159.3c0.2-1.7,1.7-2.8,3.4-2.7c1.7,0.2,2.9,1.7,2.7,3.4l-0.5,3.7c0.7-1.2,1.2-2.7,1.3-4.3l0,0
		c0.1-2.1-0.4-4.1-1.4-5.6c-0.5-0.7-1.5-1.9-2.9-1.9h-0.1c-1,0-1.8,0.6-2.4,1c-1.4,1.3-2.4,3.6-2.5,6.1c-0.1,2.1,0.4,4.1,1.4,5.6
		c0.1,0.1,0.2,0.2,0.3,0.3L94.2,159.3z"/>
	<path d="M95.8,172.7L95.8,172.7C95.9,172.7,95.9,172.7,95.8,172.7L95.8,172.7z"/>
	<path class="st0" d="M114.4,161.4c-0.1,2.1,0.4,4.1,1.4,5.6c0.5,0.7,1.5,1.9,2.9,1.9h0.1c1.6,0,3.1-1.5,4-3.6
		c-1-1.9-1.9-3.5-2.7-4.4c-1.4-1.5-2.8-3-4.1-4.6C115.1,157.7,114.5,159.5,114.4,161.4z"/>
	<path class="st0" d="M179.1,221.6c-0.3,1.5-1.5,2.6-3,2.6c-0.2,0-0.3,0-0.5,0l-5.3-0.9c1.2,1.2,2.9,2.1,5,2.4
		c2.1,0.3,4.1,0.1,5.7-0.7c0.7-0.4,2-1.2,2.3-2.7c0.4-2.4-2.6-5.1-6.5-5.8c-0.6-0.1-1.2-0.1-1.7-0.1c-1.4,0-2.7,0.3-3.8,0.8l5.2,0.9
		C178.3,218.4,179.4,219.9,179.1,221.6z"/>
	<path class="st0" d="M146.6,208.8c-0.3,1.5-1.5,2.6-3,2.6c-0.2,0-0.3,0-0.5,0l-5.2-0.9c1.2,1.1,2.9,2.1,5,2.4c3.9,0.7,7.6-1,8-3.4
		s-2.6-5.1-6.5-5.7c-0.6-0.1-1.1-0.1-1.7-0.1c-1.4,0-2.7,0.3-3.8,0.8l5.2,0.9C145.8,205.5,146.9,207.1,146.6,208.8z"/>
	<path class="st0" d="M127.5,156.6c-0.2-3.4,0.6-6.7,2.4-9.6l6.8-11c1.4-2.3,1.9-5.2,1.1-7.9l-5.4-19.6c-0.4-1.6,0.5-3.3,2.2-3.8
		c1.6-0.4,3.3,0.5,3.8,2.2l5.4,19.6c1.2,4.3,0.5,8.9-1.8,12.7l-6.8,11c-1.1,1.8-1.6,3.8-1.5,5.9l1.4,19.9c3.2,5.9,7,11.8,12.3,15.9
		c8.8,6.8,22,7.7,34.8,8.7c7.4,0.6,14.3,1.1,20.5,2.6c9.1,2.3,40,8.5,55-9.1c3.9-4.5,8.1-8,12.3-11.3c3.9-3.1,7.6-6.1,10.9-9.9
		c0.4-0.5,0.4-1,0.4-1.4c-0.1-0.7-0.5-1.3-1-1.7L133.9,70.7c-0.4-0.3-1.1-0.5-2.1-0.5c-0.8,0-1.8,0.1-3,0.4
		c-4.5,1.2-8.7,4.3-9.7,6.5c-3.2,6.8-3.5,11.9-3.7,17.4c-0.3,5.5-0.6,11.2-4,18.2c-8,16.7-2.2,27.5,13.1,44.1c1.1,1.2,2.2,3,3.3,5.2
		L127.5,156.6z M205.2,163.8c-1-1.8-0.3-4.1,1.5-5.1l13.6-7.6c1.1-0.6,2.5-0.6,3.6-0.1l5.6,2.9c1.3,0.7,2.1,2.1,2,3.6l-1.3,17.5
		c-0.2,2.3-2.3,3.9-4.5,3.4l-12.3-2.5c-1.1-0.2-2-0.9-2.6-1.9L205.2,163.8z M186.3,135.8c-0.1,0.9-0.7,1.6-1.4,2l-7.8,4.5
		c-1.4,0.8-3.1,0.3-4-1l-6.2-10.4c-0.5-0.8-0.5-1.9-0.1-2.8l2.1-4.4c0.5-1,1.6-1.7,2.8-1.6l13.5,0.7c1.7,0.1,3,1.7,2.7,3.4
		L186.3,135.8z"/>
	<g>
		<path class="st4" d="M104.7,150.5c-0.3-0.4-0.6-0.6-0.9-0.9c-1-1.2-2.2-2.1-3.5-2.7c-0.5-0.2-1-0.5-1.5-0.7
			c0.5,0.2,1.1,0.4,1.6,0.7c0.8-2.9,2.2-5.6,4-7.9c-0.9-2.2-1.6-4.4-2-6.7c-4.1,3.6-7,8.5-8.2,14.1c0,0-0.1,0-0.1,0
			c-1.2,0.3-2.3,0.9-3.3,1.7c-0.2,0.2-0.5,0.2-0.7,0.4c-1.4,1.3-2.5,2.9-3.2,4.7c-0.7,1.7-1.2,3.6-1.3,5.6c-0.2,3.4,0.7,6.7,2.4,9.3
			c1,1.5,2.4,2.6,3.8,3.4c0.6,0.3,1.4,0.4,2,0.6c0.5,0.1,0.8,0.3,1.3,0.4c0.1,0,0.3,0.1,0.4,0.1c0.1,0,0.1,0.1,0.2,0.1s0.1,0,0.2,0
			c0,0,0.1,0,0.1,0c0,0,0.1,0,0.1,0c0.1,0,0.1,0,0.2,0c1.5,0,3-0.5,4.4-1.3c0.7-0.4,1.5-0.8,2.2-1.4c2.5-2.4,4.1-6.1,4.3-10.2
			c0.1-1.5-0.1-3-0.5-4.4C106.3,153.6,105.7,151.9,104.7,150.5z M97.3,145.9c-0.1,0-0.2,0-0.3,0c0,0,0,0,0.1,0
			C97.2,145.9,97.2,145.9,97.3,145.9z M99.9,162.8l0.4-2.7c0.2-1.7-1-3.2-2.7-3.4c-1.7-0.2-3.2,1-3.4,2.7l-0.7,5.6l-0.5,4.3
			c-0.2,1.4,0.6,2.6,1.9,3.1c-1.4-0.4-2.3-1.7-2.2-3.2l0.5-4.3c-0.1-0.1-0.2-0.2-0.3-0.3c-1-1.5-1.5-3.5-1.4-5.6
			c0.1-2.5,1-4.7,2.5-6.1c0.5-0.5,1.4-1,2.4-1h0.1c1.4,0.1,2.4,1.2,2.9,1.9c1,1.5,1.5,3.5,1.4,5.6
			C100.7,160.6,100.4,161.8,99.9,162.8z"/>
		<path class="st4" d="M123.5,167.1l0.4-2.8l0.5-3.7c0.2-1.7-1-3.2-2.7-3.4s-3.2,1-3.4,2.7l-0.7,5.6l-0.3,3c-0.7-0.4-1.2-1-1.6-1.5
			c-1-1.5-1.5-3.5-1.4-5.6c0.1-2,0.7-3.7,1.6-5.1c-1.4-1.6-2.7-3.2-3.9-4.8c-0.1,0.1-0.2,0.1-0.3,0.2c-1.9,2.4-3.3,5.7-3.5,9.5
			c-0.2,3.4,0.7,6.7,2.4,9.3c1.9,2.8,4.7,4.5,7.7,4.6c0.1,0,0.3,0,0.4,0c2.7,0,5.2-1.3,7.1-3.4c-0.2-0.5-0.5-1.1-0.8-1.6
			C124.5,169,124,168,123.5,167.1z"/>
		<path class="st4" d="M205.9,210.4c-2.1,2.9-4.8,5.3-8,6.9c-1.8,0.9-3.8,1.6-5.8,2.1c-1,0.2-2.1,0.3-3.1,0.4c0,0,0,0,0,0
			c-1-4.5-5.3-8.4-11.3-9.3c-3.4-0.5-6.8-0.1-9.5,1.4c-3,1.6-5,4.2-5.5,7.1v0.1c-0.5,3.1,0.7,6.1,2.9,8.4c2.1,2.2,5.1,3.8,8.6,4.4
			c0.9,0.1,1.8,0.2,2.7,0.2c1.8,0,3.4-0.4,5-0.9c0.6-0.2,1.2-0.4,1.8-0.7c2.2-1.1,3.5-2.7,4.4-4.4c0,0,0,0,0-0.1
			c1.8,0,3.8-0.1,5.5-0.5c2-0.4,4-1.1,5.8-2c5.5-2.5,10-6.7,13-12C210,211.2,207.8,210.8,205.9,210.4z M183.2,222.4
			c-0.2,1.4-1.5,2.3-2.3,2.7c-1.6,0.8-3.6,1.1-5.7,0.7c-2-0.3-3.8-1.3-5-2.4l-0.2,0l0.4-0.1l5.3,0.9c0.2,0,0.3,0,0.5,0
			c1.5,0,2.8-1.1,3-2.6c0.3-1.7-0.9-3.2-2.5-3.5l-5.2-0.9l0,0c1-0.4,2.2-0.7,3.5-0.7c0.6,0,1.1,0,1.7,0.1
			C180.5,217.2,183.6,219.9,183.2,222.4z"/>
		<path class="st4" d="M164.6,205c-1.6,0.7-3.2,1.3-5,1.7c-1,0.1-2,0.2-3,0.3c0.2,0.8,0.4,1.7,0.4,2.6c0-0.9-0.2-1.7-0.4-2.6
			c-0.3-1.5-1-2.8-2-4.1c-0.1-0.2-0.2-0.4-0.3-0.6c-3.4-1.2-6.5-2.7-9.4-4.7c-7.3-1-13.6,2.6-14.6,8.5c0.2-1.1,0.9-1.9,1.7-2.3
			c-0.9,0.4-1.5,1.2-1.6,2.2c-0.2,1.3,0.3,2.6,1.3,3.2c-1.1-0.6-1.7-1.9-1.4-3.1c-0.4,2.2,0.3,4.3,1.5,6.2c1.2,2,3,3.8,5.4,5
			c1.4,0.7,3,1.3,4.7,1.5c0.9,0.2,1.9,0.2,2.8,0.2c1.2,0,2.4-0.2,3.5-0.5c3.4-0.6,6.1-2.5,7.6-5.2c6.9-0.1,13.2-2.8,18.1-7.1
			C170.7,205.9,167.6,205.5,164.6,205z M150.8,209.4c-0.4,2.4-4.1,4.1-8,3.4c-2-0.3-3.8-1.3-5-2.4l-5-0.8c-0.1,0-0.3-0.1-0.4-0.1
			c0.2,0.1,0.3,0.1,0.5,0.1l5,0.8l5.2,0.9c0.2,0,0.3,0,0.5,0c1.5,0,2.8-1.1,3-2.6c0.3-1.7-0.9-3.2-2.5-3.5l-5.1-0.9
			c1.1-0.4,2.3-0.7,3.6-0.7c0.6,0,1.1,0,1.7,0.1C148.1,204.3,151.2,207,150.8,209.4z M131.8,209.2c0.1,0.1,0.3,0.1,0.4,0.2
			C132.1,209.4,132,209.3,131.8,209.2z"/>
	</g>
	<path class="st1" d="M285.9,167c-0.2-0.3-0.5-0.5-0.8-0.7l-0.4-0.3c1.3,1.3,2.4,3,2.6,4.9c0,0.3,0.1,0.6,0.1,0.9
		c0-0.3,0-0.6-0.1-0.8c-0.2-1.9-1.2-3.5-2.6-4.9c-0.4-0.4-0.6-0.8-1.1-1.1L137.3,65.6c-2.4-1.6-5.7-1.9-9.6-0.9
		c-0.2,0-0.3,0-0.5,0.1c-2.5,0.6-5.3,1.9-7.8,3.5c-1.4,0.9-2.6,2-3.7,3.2c-0.9,0.9-1.6,1.9-2.1,3c-0.5,1-0.7,1.8-1.1,2.8
		c-0.4,1.1-0.9,2.2-1.2,3.2c-0.6,2.1-1,4.1-1.3,6c-0.4,2.7-0.6,5.3-0.7,7.7c0,0.6-0.1,1.1-0.1,1.6c-0.1,2.5-0.4,5.1-1,7.7
		c-0.5,2.1-1.1,4.2-2.2,6.5c-0.4,0.8-0.5,1.4-0.8,2.2c-1,2.3-1.8,4.5-2.3,6.7c-1.1,4.7-1.3,9.2-0.5,13.3c0.4,2.3,1.1,4.5,2,6.7
		c1.1,2.6,2.5,5.1,4.1,7.6c1.1,1.7,2.3,3.4,3.6,5.1c1.3,1.6,2.6,3.2,3.9,4.8c1.3,1.5,2.7,3,4.1,4.6c0.8,0.9,1.7,2.5,2.7,4.4
		c0.8,1.5,1.5,3.1,2.3,4.8c0.2,0.5,0.5,1.1,0.8,1.6c3.9,8.2,9.1,18.6,17.7,25.2c0.4,0.3,0.9,0.5,1.3,0.8c2.9,2,6,3.5,9.4,4.7
		c0.1,0.1,0.3,0.1,0.4,0.1c1.9,0.7,3.8,1.3,5.9,1.8c1.3,0.3,2.6,0.5,3.9,0.7c3.1,0.5,6.2,1,9.3,1.2c2.6,0.2,5.2,0.5,7.8,0.7
		c2.4,0.2,4.7,0.4,7,0.6c2.5,0.2,4.9,0.6,7.2,0.9c1.8,0.3,3.7,0.5,5.3,0.9c1.2,0.3,2.9,0.7,4.8,1.1c1.9,0.4,4.1,0.7,6.5,1.1
		c3.9,0.5,8.2,1,12.9,1c3.3,0,6.6-0.2,10-0.7c2-0.3,4.1-0.7,6.1-1.2c7.8-2,15.2-5.7,20.9-12.3c3.1-3.7,6.6-6.5,10.1-9.4
		c-2.9,7.4-7.4,16.2-18.1,23.5c-2.5,1.7-7.1,3.4-12.5,5v0.5c0.1,2.2-0.4,4.3-1.2,6.2c7.2-2,13.6-4.2,17.2-6.6
		c14.4-9.9,19-22.4,22-30.7c1-2.8,1.9-5.4,3-6.8c0.3-0.3,0.5-0.5,0.8-0.8c0.1,0,0.1-0.1,0.2-0.1c1.9-1.1,3.3-3.1,3.8-5.3
		C287.9,171.4,287.4,168.9,285.9,167z M257.6,194.1c-15,17.6-45.9,11.4-55,9.1c-6.1-1.6-13.1-2.1-20.5-2.6
		c-12.8-0.9-26-1.9-34.8-8.7c-5.2-4.1-9-9.9-12.2-15.7l-1.4-19.9c-0.1-2.1,0.4-4.1,1.5-5.9l6.8-11c2.3-3.8,3-8.4,1.8-12.7l-5.4-19.6
		c-0.4-1.6-2.2-2.6-3.8-2.2c-1.6,0.4-2.6,2.1-2.2,3.8l5.4,19.6c0.7,2.7,0.3,5.5-1.1,7.9l-6.8,11c-1.8,2.9-2.6,6.2-2.4,9.6l0.4,5.3
		l-0.1-0.3c-1.1-2.1-2.2-3.9-3.3-5.2c-15.3-16.6-21.2-27.4-13.1-44.1c3.4-7,3.7-12.7,4-18.2c0.3-5.5,0.6-10.6,3.7-17.4
		c1-2.1,5.1-5.2,9.7-6.5c1.2-0.3,2.2-0.4,3-0.4c1,0,1.7,0.2,2.1,0.5l146.3,99.3c0.6,0.4,0.9,1,1,1.7c0,0.4,0,1-0.4,1.4
		c-3.3,3.8-7,6.8-10.9,9.9C265.8,186.1,261.5,189.6,257.6,194.1z"/>
	<path class="st1" d="M210.7,174.1c0.5,1,1.5,1.7,2.6,1.9l12.3,2.5c2.2,0.4,4.3-1.2,4.5-3.4l1.3-17.5c0.1-1.5-0.7-2.9-2-3.6
		l-5.6-2.9c-1.1-0.6-2.5-0.6-3.6,0.1l-13.6,7.6c-1.8,1-2.5,3.3-1.5,5.1L210.7,174.1z"/>
	<path class="st1" d="M185.2,122.8l-13.5-0.7c-1.2-0.1-2.2,0.6-2.8,1.6l-2.1,4.4c-0.4,0.9-0.4,1.9,0.1,2.8l6.2,10.4
		c0.8,1.4,2.6,1.8,4,1l7.8-4.5c0.7-0.4,1.3-1.2,1.4-2l1.7-9.6C188.3,124.5,187,122.9,185.2,122.8z"/>
</g>
</svg>
